<svg xmlns="http://www.w3.org/2000/svg" viewBox="0 0 57.46 47.01">
  <defs>
    <style>.cls-1 {
      fill: #00BFD3;
    }

    .cls-2 {
      fill: #fff;
      stroke: #fff;
      stroke-miterlimit: 10;
    }</style>
  </defs>
  <g id="Livello_2" data-name="Livello 2">
    <g id="Livello_1-2" data-name="Livello 1">
      <rect class="cls-1" width="57.46" height="47.01" rx="23.51"/>
      <path class="cls-2"
            d="M32.13,11a1.3,1.3,0,0,1,1,.46,1.55,1.55,0,0,1,0,2.07l-9.77,10,9.77,10a1.56,1.56,0,0,1,0,2.08,1.31,1.31,0,0,1-1.94,0L20.38,24.57A1.52,1.52,0,0,1,20,23.51a1.51,1.51,0,0,1,.42-1.06l10.8-11.09A1.35,1.35,0,0,1,32.13,11Z"/>
    </g>
  </g>
</svg>
