<svg xmlns="http://www.w3.org/2000/svg" viewBox="0 0 57.08 47.01"><defs><style>.cls-1{fill:#e4326d;}.cls-2{fill:#fff;}</style></defs><g id="Livello_2" data-name="Livello 2"><g id="Livello_1-2" data-name="Livello 1"><rect class="cls-1" width="57.08" height="47.01" rx="23.51"/><path class="cls-2" d="M38.8,13.21H32v-.48a1.65,1.65,0,0,0-1.65-1.65H27a1.64,1.64,0,0,0-1.64,1.65v.48h-7A1.32,1.32,0,0,0,17,14.53v.14A1.33,1.33,0,0,0,18.28,16H38.8a1.33,1.33,0,0,0,1.33-1.33v-.14A1.32,1.32,0,0,0,38.8,13.21Z"/><path class="cls-2" d="M37.07,17.56H20.24a.6.6,0,0,0-.59.64L21,34.07a2,2,0,0,0,2,1.86H34.25a2,2,0,0,0,2-1.86L37.66,18.2A.59.59,0,0,0,37.07,17.56ZM24.43,33.64h0a.9.9,0,0,1-.9-.86l-.59-12.5a.91.91,0,0,1,1.82-.08l.58,12.49A.91.91,0,0,1,24.43,33.64Zm5.13-.91a.91.91,0,1,1-1.81,0V20.24a.91.91,0,0,1,1.81,0Zm4.27.05a.92.92,0,0,1-.91.86h0a.9.9,0,0,1-.86-1L32.6,20.2a.91.91,0,0,1,1.81.08Z"/></g></g></svg>