<svg width="805" height="801" viewBox="0 0 805 801" fill="none" xmlns="http://www.w3.org/2000/svg">
<path d="M528.281 508.031H276.719V547.094H528.281V508.031Z" fill="#FB2E7B"/>
<path d="M528.281 566.625H276.719V722.875H528.281V566.625Z" fill="#FB2E7B"/>
<path d="M150.938 390.844C220.293 390.844 276.719 434.652 276.719 488.5H528.281C528.281 434.652 584.707 390.844 654.063 390.844C655.798 390.844 657.433 391.195 659.169 391.254L646.365 316.762C636.378 258.539 572.405 215.062 496.76 215.062H308.24C232.595 215.062 168.622 258.539 158.635 316.762L145.831 391.254C147.567 391.195 149.202 390.844 150.938 390.844ZM375.809 354.633C370.904 350.824 370.904 344.633 375.809 340.824C380.715 337.016 388.689 337.016 393.595 340.824L402.5 347.738L411.405 340.824C416.311 337.016 424.285 337.016 429.191 340.824C434.096 344.633 434.096 350.824 429.191 354.633L420.286 361.547L429.191 368.461C434.096 372.27 434.096 378.461 429.191 382.27C424.285 386.078 416.311 386.078 411.405 382.27L402.5 375.355L393.595 382.27C388.689 386.078 380.715 386.078 375.809 382.27C370.904 378.461 370.904 372.27 375.809 368.461L384.715 361.547L375.809 354.633Z" fill="#FB2E7B"/>
<path d="M754.688 488.5C754.688 447.621 714.085 414.438 662.565 411.039L662.54 410.883C659.723 410.668 656.955 410.375 654.062 410.375C598.568 410.375 553.438 445.414 553.438 488.5V722.875H603.75V742.406C603.75 753.187 615.02 761.938 628.906 761.938H679.219C693.105 761.938 704.375 753.187 704.375 742.406V722.875H725.028C740.575 722.875 752.398 712.035 749.832 700.141L717.33 548.793C739.946 534.457 754.688 512.914 754.688 488.5Z" fill="#FB2E7B"/>
<path d="M251.562 488.5C251.562 445.414 206.432 410.375 150.938 410.375C148.045 410.375 145.277 410.668 142.46 410.883L142.435 411.039C90.9147 414.438 50.3125 447.602 50.3125 488.5C50.3125 512.934 65.0541 534.477 87.6695 548.793L55.1928 700.121C52.6269 712.035 64.4503 722.875 79.9969 722.875H100.625V742.406C100.625 753.187 111.895 761.938 125.781 761.938H176.094C189.98 761.938 201.25 753.187 201.25 742.406V722.875H251.562V488.5Z" fill="#FB2E7B"/>
<path d="M528.281 508.031H276.719V547.094H528.281V508.031Z" fill="#FB2E7B"/>
<path d="M528.281 566.625H276.719V722.875H528.281V566.625Z" fill="#FB2E7B"/>
<path d="M150.938 390.844C220.293 390.844 276.719 434.652 276.719 488.5H528.281C528.281 434.652 584.707 390.844 654.063 390.844C655.798 390.844 657.433 391.195 659.169 391.254L646.365 316.762C636.378 258.539 572.405 215.062 496.76 215.062H308.24C232.595 215.062 168.622 258.539 158.635 316.762L145.831 391.254C147.567 391.195 149.202 390.844 150.938 390.844ZM375.809 354.633C370.904 350.824 370.904 344.633 375.809 340.824C380.715 337.016 388.689 337.016 393.595 340.824L402.5 347.738L411.405 340.824C416.311 337.016 424.285 337.016 429.191 340.824C434.096 344.633 434.096 350.824 429.191 354.633L420.286 361.547L429.191 368.461C434.096 372.27 434.096 378.461 429.191 382.27C424.285 386.078 416.311 386.078 411.405 382.27L402.5 375.355L393.595 382.27C388.689 386.078 380.715 386.078 375.809 382.27C370.904 378.461 370.904 372.27 375.809 368.461L384.715 361.547L375.809 354.633Z" fill="#FB2E7B"/>
<path d="M754.688 488.5C754.688 447.621 714.085 414.438 662.565 411.039L662.54 410.883C659.723 410.668 656.955 410.375 654.062 410.375C598.568 410.375 553.438 445.414 553.438 488.5V722.875H603.75V742.406C603.75 753.187 615.02 761.938 628.906 761.938H679.219C693.105 761.938 704.375 753.187 704.375 742.406V722.875H725.028C740.575 722.875 752.398 712.035 749.832 700.141L717.33 548.793C739.946 534.457 754.688 512.914 754.688 488.5Z" fill="#FB2E7B"/>
<path d="M251.562 488.5C251.562 445.414 206.432 410.375 150.938 410.375C148.045 410.375 145.277 410.668 142.46 410.883L142.435 411.039C90.9147 414.438 50.3125 447.602 50.3125 488.5C50.3125 512.934 65.0541 534.477 87.6695 548.793L55.1928 700.121C52.6269 712.035 64.4503 722.875 79.9969 722.875H100.625V742.406C100.625 753.187 111.895 761.938 125.781 761.938H176.094C189.98 761.938 201.25 753.187 201.25 742.406V722.875H251.562V488.5Z" fill="#FB2E7B"/>
<path d="M325.403 298.954C364.96 332.355 383.604 376.58 387.982 394.517L245.243 430.825C237.944 425.391 205.061 402.381 178.865 381.386C144.634 344.936 146.67 302.789 155.357 275.885C183.106 215.767 238.462 232.637 262.672 248.587C268.479 252.519 289.155 268.098 325.403 298.954Z" fill="#091336" stroke="#031D4B"/>
<path d="M303.661 309.423C336.758 334.872 356.372 371.276 362.041 386.298L255.278 409.222C235.512 394.023 193.914 361.611 185.652 353.553C175.325 343.479 169.531 305.441 176.763 288.079C192.378 257.013 228.09 260.911 243.995 266.743C254.517 273.945 281.18 292.563 303.661 309.423Z" fill="#2DEFD0" stroke="#2DEFD0"/>
<path d="M175.016 289.934C185.042 264.805 202.135 270.806 209.429 276.947C218.914 283.707 223.113 302.395 218.532 312.732C215.498 324.793 199.303 335.263 185.467 331.021C177.178 326.78 170.558 307.296 175.016 289.934Z" fill="#FB2E7B" stroke="#FB2E7B"/>
<path d="M264.865 281.191L246.753 268.864C259.455 334.497 224.755 363.362 205.817 369.591C207.942 371.402 215.225 377.358 227.36 386.689C271.254 356.896 270.652 303.943 264.865 281.191Z" fill="#0B1232" stroke="#0B1231"/>
<path d="M259.978 309.951L250.677 301.734C248.692 327.075 234.917 348.077 228.278 355.41C230.173 357.045 234.928 361.057 238.79 364.026C254.552 350.985 259.483 322.542 259.978 309.951Z" fill="#FB3E81" stroke="#FB3E81"/>
<path d="M247.95 319.361L258.124 326.651L255.643 334.338L245.3 326.385L247.95 319.361Z" fill="#50094F" stroke="#50094F"/>
<path d="M249.284 350.772L237.379 343.217L228.968 355.94L238.789 364.026L249.284 350.772Z" fill="#50094F" stroke="#50094F"/>
<path d="M597.549 402.597C573.942 363.816 537.944 340.708 522.896 334.003L471.126 447.356C474.846 454.388 490.317 485.82 504.969 511.311C531.987 546.15 569.077 551.59 593.793 548.878C650.19 535.836 643.239 486.629 632.714 463.656C630.097 458.127 619.399 438.175 597.549 402.597Z" fill="#091336" stroke="#031D4B"/>
<path d="M585.351 419.025C567.78 387.001 538.747 364.408 526.427 357.115L491.402 442.616C501.896 461.742 524.352 502.064 530.228 510.347C537.573 520.701 569.975 532 586.153 528.889C615.476 521.082 617.092 490.52 614.234 476.215C609.424 466.186 596.914 440.706 585.351 419.025Z" fill="#2DEFD0" stroke="#2DEFD0"/>
<path d="M584.287 530.037C607.64 525.903 604.803 510.574 600.465 503.426C595.895 494.339 580.166 487.656 570.495 489.739C559.537 490.234 548.118 502.018 549.877 514.321C552.416 521.981 568.499 530.826 584.287 530.037Z" fill="#FB2E7B" stroke="#FB2E7B"/>
<path d="M604.551 456.293L612.77 473.547C557.242 451.786 527.158 475.946 519.057 490.746C517.774 488.66 513.597 481.552 507.154 469.81C539.34 438.11 585.496 447.591 604.551 456.293Z" fill="#0B1232" stroke="#0B1231"/>
<path d="M578.75 455.509L584.618 464.69C562.211 462.055 541.934 470.028 534.597 474.344C533.436 472.48 530.601 467.819 528.552 464.083C542.155 453.096 567.685 453.789 578.75 455.509Z" fill="#FB3E81" stroke="#FB3E81"/>
<path d="M568.842 463.984L563.907 454.23L556.845 455.005L562.336 465.013L568.842 463.984Z" fill="#50094F" stroke="#50094F"/>
<path d="M541.6 457.542L546.524 468.791L534.231 473.676L528.552 464.083L541.6 457.542Z" fill="#50094F" stroke="#50094F"/>
<path d="M248.996 507.5V393C256.996 354.6 290.496 322 319.996 322H492.996C524.996 328 558.996 348.5 567.496 399C571.01 419.873 567.496 469.5 567.496 507.5C561.996 547.5 526.496 586.5 492.996 586.5H319.996C283.596 578.1 248.996 540 248.996 507.5Z" fill="#002553" stroke="#002553"/>
<path d="M267.996 504V396C275.996 357.6 304.996 347.667 318.496 347.5H501.496C533.496 353.5 544.83 384.333 546.496 399V510C532.896 554 500.83 564.333 486.496 564H318.496C282.096 555.6 269.663 520.5 267.996 504Z" fill="#2CFDDC" stroke="#2CFDDC"/>
<path fill-rule="evenodd" clip-rule="evenodd" d="M275.996 400V505C279.996 536 299.996 555 330.496 555H485.496C501.996 557 533.996 538 533.996 505V406.5C533.996 387 516.996 358 485.496 357H330.496C316.996 357.167 286.496 361.5 275.996 400ZM285.996 405.063V500.448C289.686 528.609 308.136 545.87 336.272 545.87H479.256C494.477 547.686 523.996 530.426 523.996 500.448V410.967C523.996 393.253 508.314 366.908 479.256 366H336.272C323.818 366.151 295.682 370.088 285.996 405.063Z" fill="#1394B2"/>
<path d="M275.996 505H275.496V505.032L275.5 505.064L275.996 505ZM275.996 400L275.514 399.868L275.496 399.933V400H275.996ZM485.496 555L485.557 554.504L485.527 554.5H485.496V555ZM485.496 357L485.512 356.5L485.504 356.5H485.496V357ZM330.496 357V356.5L330.49 356.5L330.496 357ZM285.996 500.448H285.496V500.481L285.501 500.513L285.996 500.448ZM285.996 405.063L285.514 404.929L285.496 404.995V405.063H285.996ZM479.256 545.87L479.315 545.373L479.286 545.37H479.256V545.87ZM479.256 366L479.272 365.5L479.264 365.5H479.256V366ZM336.272 366V365.5L336.265 365.5L336.272 366ZM276.496 505V400H275.496V505H276.496ZM330.496 554.5C315.354 554.5 302.856 549.786 293.649 541.258C284.438 532.728 278.48 520.344 276.492 504.936L275.5 505.064C277.512 520.656 283.554 533.272 292.969 541.992C302.387 550.714 315.138 555.5 330.496 555.5V554.5ZM485.496 554.5H330.496V555.5H485.496V554.5ZM533.496 505C533.496 521.326 525.584 534.195 515.608 542.745C505.612 551.314 493.622 555.481 485.557 554.504L485.436 555.496C493.871 556.519 506.131 552.186 516.259 543.505C526.409 534.805 534.496 521.674 534.496 505H533.496ZM533.496 406.5V505H534.496V406.5H533.496ZM485.48 357.5C501.067 357.995 513.064 365.412 521.175 375.133C529.295 384.864 533.496 396.878 533.496 406.5H534.496C534.496 396.622 530.198 384.386 521.943 374.492C513.678 364.588 501.426 357.005 485.512 356.5L485.48 357.5ZM330.496 357.5H485.496V356.5H330.496V357.5ZM276.479 400.132C281.694 381.01 291.858 370.413 302.365 364.562C312.888 358.702 323.795 357.583 330.503 357.5L330.49 356.5C323.698 356.584 312.604 357.715 301.878 363.688C291.135 369.671 280.799 380.49 275.514 399.868L276.479 400.132ZM286.496 500.448V405.063H285.496V500.448H286.496ZM336.272 545.37C322.309 545.37 310.789 541.089 302.304 533.35C293.816 525.609 288.325 514.37 286.492 500.383L285.501 500.513C287.358 514.687 292.936 526.159 301.63 534.089C310.326 542.02 322.098 546.37 336.272 546.37V545.37ZM479.256 545.37H336.272V546.37H479.256V545.37ZM523.496 500.448C523.496 515.26 516.207 526.938 507.012 534.7C497.796 542.479 486.744 546.26 479.315 545.373L479.197 546.366C486.989 547.296 498.308 543.355 507.657 535.464C517.026 527.555 524.496 515.614 524.496 500.448H523.496ZM523.496 410.967V500.448H524.496V410.967H523.496ZM479.24 366.5C493.608 366.949 504.667 373.683 512.142 382.505C519.626 391.338 523.496 402.241 523.496 410.967H524.496C524.496 401.98 520.526 390.853 512.904 381.858C505.274 372.852 493.962 365.959 479.272 365.5L479.24 366.5ZM336.272 366.5H479.256V365.5H336.272V366.5ZM286.478 405.196C291.285 387.839 300.653 378.221 310.337 372.911C320.037 367.591 330.092 366.575 336.278 366.5L336.265 365.5C329.997 365.576 319.758 366.604 309.856 372.034C299.936 377.474 290.394 387.311 285.514 404.929L286.478 405.196Z" fill="#1394B2"/>
<path d="M323.821 504.816L374.312 456.322C376.785 453.946 375.367 450.832 371.392 448.292C360.832 437.685 336.048 412.735 321.397 397.787C320.411 376.576 338.136 374.12 347.122 375.544C366.597 394.741 408.22 435.762 418.915 446.27C433.662 451.618 424.474 456.993 418.284 459.264C399.096 477.905 354.141 522.893 345.574 529.536C337.007 536.18 315.656 521.235 323.821 504.816Z" fill="#FB3E81"/>
<path d="M323.821 504.816L374.312 456.322C376.785 453.946 375.367 450.832 371.392 448.292C360.832 437.685 336.048 412.735 321.397 397.787C320.411 376.576 338.136 374.12 347.122 375.544C366.597 394.741 408.22 435.762 418.915 446.27C433.662 451.618 424.474 456.993 418.284 459.264C399.096 477.905 354.141 522.893 345.574 529.536C337.007 536.18 315.656 521.235 323.821 504.816Z" fill="#FB3E81"/>
<path d="M323.821 504.816L374.312 456.322C376.785 453.946 375.367 450.832 371.392 448.292C360.832 437.685 336.048 412.735 321.397 397.787C320.411 376.576 338.136 374.12 347.122 375.544C366.597 394.741 408.22 435.762 418.915 446.27C433.662 451.618 424.474 456.993 418.284 459.264C399.096 477.905 354.141 522.893 345.574 529.536C337.007 536.18 315.656 521.235 323.821 504.816Z" stroke="#FB3E81"/>
<path d="M481.308 504.827L428.758 458.585C426.184 456.32 427.462 453.145 431.319 450.432C441.398 439.368 465.047 413.345 479.019 397.764C479.071 376.524 461.263 374.849 452.352 376.667C433.751 396.707 393.994 439.529 383.777 450.5C369.287 456.493 378.698 461.46 384.978 463.458C404.959 481.243 451.828 524.224 460.675 530.486C469.522 536.748 490.185 520.876 481.308 504.827Z" fill="#FB3E81"/>
<path d="M481.308 504.827L428.758 458.585C426.184 456.32 427.462 453.145 431.319 450.432C441.398 439.368 465.047 413.345 479.019 397.764C479.071 376.524 461.263 374.849 452.352 376.667C433.751 396.707 393.994 439.529 383.777 450.5C369.287 456.493 378.698 461.46 384.978 463.458C404.959 481.243 451.828 524.224 460.675 530.486C469.522 536.748 490.185 520.876 481.308 504.827Z" fill="#FB3E81"/>
<path d="M481.308 504.827L428.758 458.585C426.184 456.32 427.462 453.145 431.319 450.432C441.398 439.368 465.047 413.345 479.019 397.764C479.071 376.524 461.263 374.849 452.352 376.667C433.751 396.707 393.994 439.529 383.777 450.5C369.287 456.493 378.698 461.46 384.978 463.458C404.959 481.243 451.828 524.224 460.675 530.486C469.522 536.748 490.185 520.876 481.308 504.827Z" stroke="#FB3E81"/>
<path d="M473.438 649.571C502.707 649.251 526.112 619.445 525.714 582.996C525.316 546.547 501.266 517.259 471.997 517.578C442.727 517.898 419.323 547.704 419.72 584.153C420.118 620.602 444.168 649.89 473.438 649.571Z" fill="#545454"/>
<path d="M339.713 633.716C368.983 633.397 392.388 603.591 391.99 567.142C391.592 530.693 367.542 501.405 338.273 501.724C309.003 502.044 285.598 531.85 285.996 568.299C286.394 604.747 310.444 634.036 339.713 633.716Z" fill="#545454"/>
<path d="M219.112 173C223.305 60.8598 320.112 1 402.492 1C498.612 1 580.112 69.5 586.612 173C593.112 276.5 500.601 347.5 405.112 351C315.886 354.271 215.111 280 219.112 173Z" fill="#035593" stroke="black"/>
<path d="M239.112 169C246.112 57 353.112 19.5 402.112 19.5C455.112 19.5 561.112 65.5 567.612 169C574.112 272.5 481.601 331 406.612 331C382.577 331 230.143 312.5 239.112 169Z" fill="#2CFDDC" stroke="black"/>
<path d="M420.005 21.1432C332.505 11.1433 278.505 69.1432 260.005 101.643C256.305 108.143 263.005 121.643 276.505 115.143C315.705 49.1432 391.172 38.9765 424.005 42.1432C432.505 36.1433 430.102 22.2971 420.005 21.1432Z" fill="white" stroke="#FDFFFF"/>
<path d="M304.715 135.425C304.715 158.525 317.145 192.125 355.106 192.125C393.067 192.125 405.497 158.525 405.497 135.425C405.497 64.025 304.715 64.025 304.715 135.425Z" fill="#DDE8E3"/>
<path d="M405.497 135.425C405.497 158.525 417.926 192.125 455.887 192.125C493.848 192.125 506.278 158.525 506.278 135.425C506.278 64.025 405.497 64.025 405.497 135.425Z" fill="#DDE8E3"/>
<path d="M307.403 137.263C307.403 157.213 315.465 187.925 347.715 187.925C379.965 187.925 388.028 156.95 388.028 137.263C387.692 69.0125 307.403 69.0125 307.403 137.263Z" fill="white"/>
<path d="M408.184 137.263C408.184 157.213 416.247 187.925 448.497 187.925C480.747 187.925 488.809 156.95 488.809 137.263C488.473 69.0125 408.184 69.0125 408.184 137.263Z" fill="white"/>
<path d="M315 118.925C315 135.2 329.782 147.8 347.586 147.8C365.727 147.8 380.172 135.2 380.172 118.925C380.172 79.025 315 79.025 315 118.925Z" fill="#493B30"/>
<path d="M418 115.925C418 132.2 432.782 144.8 450.586 144.8C468.727 144.8 483.172 132.2 483.172 115.925C483.172 76.025 418 76.025 418 115.925Z" fill="#493B30"/>
<path d="M397.997 306C360.442 306 329.997 288.539 329.997 267H465.997C465.997 288.539 435.551 306 397.997 306Z" fill="#7F184C"/>
<path d="M352.997 267V273.238C352.997 275.868 356.667 278 361.193 278H448.8C453.327 278 456.997 275.868 456.997 273.238V267H352.997Z" fill="#F2F2F2"/>
<path d="M406.165 289.404C387.834 284.381 367.492 285.11 350.997 290.321C363.392 299.85 382.884 306 404.82 306C414.487 306 423.674 304.799 431.997 302.649C425.89 297.075 417.135 292.411 406.165 289.404Z" fill="#FC4C59"/>
<path d="M329.997 266.933C329.997 290.68 363.641 310 404.997 310C446.352 310 479.997 290.68 479.997 266.933C479.997 264.761 476.93 263 473.147 263H336.846C333.064 263 329.997 264.761 329.997 266.933ZM465.919 270.866C462.502 288.432 436.484 302.134 404.997 302.134C373.509 302.134 347.491 288.432 344.075 270.866H465.919Z" fill="black"/>
</svg>
