<svg width="575" height="681" viewBox="0 0 575 681" fill="none" xmlns="http://www.w3.org/2000/svg">
<path d="M137 637V501C168.2 554.6 211 562.333 228.5 559.5H273V637C265 669.8 244.333 679 235 679.5H180C158.8 681.5 142.5 652 137 637Z" fill="#0A1437" stroke="#0C1436"/>
<path d="M157.5 628.5V529.5C180.3 559.5 230.667 562 253 559.5V635.5C250.6 648.3 238.667 657.167 233 660H184C166.4 658 159 638.167 157.5 628.5Z" fill="#1DBBC9" stroke="#1DBBC9"/>
<path d="M157.5 586V528.5C182.7 561.3 231.667 562.833 253 559.5V586H157.5Z" fill="#FB2770" stroke="#FB2770"/>
<path d="M197 659.5V595.5H212.455L214 659.5H197Z" fill="#31F8CB" stroke="#31F8CB"/>
<path d="M157.5 595V586H253V595H157.5Z" fill="#071333" stroke="#071333"/>
<path d="M157.5 547V528.5C184.7 558.1 218.5 558.5 231.5 560V571.5H201.5C179.9 570.7 163.167 554.833 157.5 547Z" fill="#AB0359" stroke="#AB0359"/>
<path d="M231.5 586L231 559.5C238.2 559.5 248.833 559.5 253 559V586H231.5Z" fill="#2E0E3D" stroke="#2E0E3D"/>
<path d="M233 660L232.5 596H253V635.5C251.4 647.9 239.167 657.167 233 660Z" fill="#046FAD" stroke="#036DA9"/>
<path d="M438 637V501C406.8 554.6 364 562.333 346.5 559.5H302V637C310 669.8 330.667 679 340 679.5H395C416.2 681.5 432.5 652 438 637Z" fill="#0A1437" stroke="#0C1436"/>
<path d="M417.5 628.5V529.5C394.7 559.5 344.333 562 322 559.5V635.5C324.4 648.3 336.333 657.167 342 660H391C408.6 658 416 638.167 417.5 628.5Z" fill="#1DBBC9" stroke="#1DBBC9"/>
<path d="M417.5 586V528.5C392.3 561.3 343.333 562.833 322 559.5V586H417.5Z" fill="#FB2770" stroke="#FB2770"/>
<path d="M378 659.5V595.5H362.545L361 659.5H378Z" fill="#31F8CB" stroke="#31F8CB"/>
<path d="M417.5 595V586H322V595H417.5Z" fill="#071333" stroke="#071333"/>
<path d="M417.5 547V528.5C390.3 558.1 356.5 558.5 343.5 560V571.5H373.5C395.1 570.7 411.833 554.833 417.5 547Z" fill="#AB0359" stroke="#AB0359"/>
<path d="M343.5 586L344 559.5C336.8 559.5 326.167 559.5 322 559V586H343.5Z" fill="#2E0E3D" stroke="#2E0E3D"/>
<path d="M342 660L342.5 596H322V635.5C323.6 647.9 335.833 657.167 342 660Z" fill="#046FAD" stroke="#036DA9"/>
<path d="M506.129 365.468C475.279 337.496 440.522 330.837 427 331.003V467.863C432.175 473.191 454.445 497.532 474.077 516.313C506.129 538.79 535.677 527.302 553.205 513.316C590.867 474.556 568.897 428.57 553.205 410.422C549.366 406.093 534.575 391.041 506.129 365.468Z" fill="#091336" stroke="#031D4B"/>
<path d="M502.623 387.445C478.584 363.47 449.203 354.146 437.517 352.481L440.522 453.877C454.879 468.196 485.395 498.231 492.607 503.826C501.621 510.819 529.667 507.322 540.685 496.833C559.916 475.655 550.701 444.387 543.69 431.4C536.678 423.575 518.649 403.828 502.623 387.445Z" fill="#2DEFD0" stroke="#2DEFD0"/>
<path d="M539.683 498.831C555.709 484.046 548.364 470.027 542.688 464.866C536.178 457.873 522.155 458.372 515.644 464.866C507.631 470.36 503.124 487.343 508.633 498.831C513.14 505.324 528.165 506.823 539.683 498.831Z" fill="#FB2E7B" stroke="#FB2E7B"/>
<path d="M529.667 415.916L541.687 429.402C492.807 432.998 478.584 470.86 477.582 489.341C475.913 487.842 470.371 482.648 461.556 473.857C474.778 427.504 512.472 415.916 529.667 415.916Z" fill="#0B1232" stroke="#0B1231"/>
<path d="M510.135 426.905L517.647 433.398C500.019 440.99 487.599 458.206 483.592 465.865C482.09 464.533 478.384 461.17 475.579 458.373C481.989 441.19 501.288 430.235 510.135 426.905Z" fill="#FB3E81" stroke="#FB3E81"/>
<path d="M505.628 439.891L498.617 432.399L493.608 436.395L501.121 443.887L505.628 439.891Z" fill="#50094F" stroke="#50094F"/>
<path d="M483.091 445.885L490.603 454.876L483.091 465.365L475.579 458.372L483.091 445.885Z" fill="#50094F" stroke="#50094F"/>
<path d="M68.7609 362.503C99.5609 334.503 134.261 327.836 147.761 328.003V465.003C142.594 470.336 120.361 494.703 100.761 513.503C68.7609 536.003 39.2609 524.503 21.7609 510.503C-15.8391 471.703 6.09424 425.67 21.7609 407.503C25.5942 403.17 40.3609 388.103 68.7609 362.503Z" fill="#091336" stroke="#031D4B"/>
<path d="M72.2609 384.503C96.2609 360.503 125.594 351.17 137.261 349.503L134.261 451.003C119.928 465.336 89.4609 495.403 82.2609 501.003C73.2609 508.003 45.2609 504.503 34.2609 494.003C15.0609 472.803 24.2609 441.503 31.2609 428.503C38.2609 420.67 56.2609 400.903 72.2609 384.503Z" fill="#2DEFD0" stroke="#2DEFD0"/>
<path d="M35.2609 496.003C19.2609 481.203 26.5942 467.17 32.2608 462.003C38.7609 455.003 52.7609 455.503 59.2609 462.003C67.2609 467.503 71.7609 484.503 66.2609 496.003C61.7609 502.503 46.7609 504.003 35.2609 496.003Z" fill="#FB2E7B" stroke="#FB2E7B"/>
<path d="M45.2609 413.003L33.2609 426.503C82.0609 430.103 96.2609 468.003 97.2609 486.503C98.9275 485.003 104.461 479.803 113.261 471.003C100.061 424.603 62.4275 413.003 45.2609 413.003Z" fill="#0B1232" stroke="#0B1231"/>
<path d="M64.7609 424.003L57.2609 430.503C74.8609 438.103 87.2609 455.336 91.2609 463.003C92.7609 461.67 96.4609 458.303 99.2609 455.503C92.8609 438.303 73.5942 427.336 64.7609 424.003Z" fill="#FB3E81" stroke="#FB3E81"/>
<path d="M69.2609 437.003L76.2609 429.503L81.2609 433.503L73.7609 441.003L69.2609 437.003Z" fill="#50094F" stroke="#50094F"/>
<path d="M91.7609 443.003L84.2609 452.003L91.7609 462.503L99.2609 455.503L91.7609 443.003Z" fill="#50094F" stroke="#50094F"/>
<path d="M129 483.5V369C137 330.6 170.5 298 200 298H373C405 304 439 324.5 447.5 375C451.013 395.873 447.5 445.5 447.5 483.5C442 523.5 406.5 562.5 373 562.5H200C163.6 554.1 129 516 129 483.5Z" fill="#002553" stroke="#002553"/>
<path d="M148 480V372C156 333.6 185 323.667 198.5 323.5H381.5C413.5 329.5 424.833 360.333 426.5 375V486C412.9 530 380.833 540.333 366.5 540H198.5C162.1 531.6 149.667 496.5 148 480Z" fill="#2CFDDC" stroke="#2CFDDC"/>
<path fill-rule="evenodd" clip-rule="evenodd" d="M156 376V481C160 512 180 531 210.5 531H365.5C382 533 414 514 414 481V382.5C414 363 397 334 365.5 333H210.5C197 333.167 166.5 337.5 156 376ZM166 381.063V476.448C169.69 504.609 188.14 521.87 216.275 521.87H359.26C374.481 523.686 404 506.426 404 476.448V386.967C404 369.253 388.318 342.908 359.26 342H216.275C203.822 342.151 175.686 346.088 166 381.063Z" fill="#1394B2"/>
<path d="M156 481H155.5V481.032L155.504 481.064L156 481ZM156 376L155.518 375.868L155.5 375.933V376H156ZM365.5 531L365.56 530.504L365.53 530.5H365.5V531ZM365.5 333L365.516 332.5L365.508 332.5H365.5V333ZM210.5 333V332.5L210.494 332.5L210.5 333ZM166 476.448H165.5V476.481L165.504 476.513L166 476.448ZM166 381.063L165.518 380.929L165.5 380.995V381.063H166ZM359.26 521.87L359.319 521.373L359.289 521.37H359.26V521.87ZM359.26 342L359.275 341.5L359.268 341.5H359.26V342ZM216.275 342V341.5L216.269 341.5L216.275 342ZM156.5 481V376H155.5V481H156.5ZM210.5 530.5C195.358 530.5 182.86 525.786 173.652 517.258C164.442 508.728 158.484 496.344 156.496 480.936L155.504 481.064C157.516 496.656 163.558 509.272 172.973 517.992C182.39 526.714 195.142 531.5 210.5 531.5V530.5ZM365.5 530.5H210.5V531.5H365.5V530.5ZM413.5 481C413.5 497.326 405.587 510.195 395.612 518.745C385.615 527.314 373.626 531.481 365.56 530.504L365.44 531.496C373.874 532.519 386.135 528.186 396.263 519.505C406.413 510.805 414.5 497.674 414.5 481H413.5ZM413.5 382.5V481H414.5V382.5H413.5ZM365.484 333.5C381.07 333.995 393.068 341.412 401.179 351.133C409.299 360.864 413.5 372.878 413.5 382.5H414.5C414.5 372.622 410.201 360.386 401.946 350.492C393.682 340.588 381.43 333.005 365.516 332.5L365.484 333.5ZM210.5 333.5H365.5V332.5H210.5V333.5ZM156.482 376.132C161.697 357.01 171.862 346.413 182.368 340.562C192.892 334.702 203.798 333.583 210.506 333.5L210.494 332.5C203.702 332.584 192.608 333.715 181.882 339.688C171.138 345.671 160.803 356.49 155.518 375.868L156.482 376.132ZM166.5 476.448V381.063H165.5V476.448H166.5ZM216.275 521.37C202.313 521.37 190.793 517.089 182.307 509.35C173.82 501.609 168.328 490.37 166.496 476.383L165.504 476.513C167.361 490.687 172.94 502.159 181.634 510.089C190.329 518.02 202.102 522.37 216.275 522.37V521.37ZM359.26 521.37H216.275V522.37H359.26V521.37ZM403.5 476.448C403.5 491.26 396.21 502.938 387.015 510.7C377.799 518.479 366.748 522.26 359.319 521.373L359.2 522.366C366.992 523.296 378.311 519.355 387.66 511.464C397.03 503.555 404.5 491.614 404.5 476.448H403.5ZM403.5 386.967V476.448H404.5V386.967H403.5ZM359.244 342.5C373.612 342.949 384.67 349.683 392.145 358.505C399.63 367.338 403.5 378.241 403.5 386.967H404.5C404.5 377.98 400.529 366.853 392.908 357.858C385.277 348.852 373.965 341.959 359.275 341.5L359.244 342.5ZM216.275 342.5H359.26V341.5H216.275V342.5ZM166.482 381.196C171.289 363.839 180.657 354.221 190.34 348.911C200.041 343.591 210.096 342.575 216.281 342.5L216.269 341.5C210.001 341.576 199.761 342.604 189.859 348.034C179.94 353.474 170.397 363.311 165.518 380.929L166.482 381.196Z" fill="#1394B2"/>
<path d="M100.115 173C104.309 60.8598 201.115 1 283.496 1C379.615 1 461.115 69.5 467.615 173C474.115 276.5 381.604 347.5 286.116 351C196.89 354.271 96.1143 280 100.115 173Z" fill="#035593" stroke="black"/>
<path d="M120.115 169C127.115 57 234.115 19.5 283.115 19.5C336.115 19.5 442.115 65.5 448.615 169C455.115 272.5 362.604 331 287.615 331C263.58 331 111.146 312.5 120.115 169Z" fill="#2CFDDC" stroke="black"/>
<path d="M301.009 21.1432C213.509 11.1433 159.509 69.1432 141.009 101.643C137.309 108.143 144.009 121.643 157.509 115.143C196.709 49.1432 272.175 38.9765 305.009 42.1432C313.509 36.1433 311.105 22.2971 301.009 21.1432Z" fill="white" stroke="#FDFFFF"/>
<path d="M204.545 84.9078C194.545 80.408 175.545 93.408 179.545 106.908C195.378 122.408 227.945 154.308 231.545 157.908C235.545 159.908 234.212 164.074 233.045 165.908C222.545 176.241 197.945 200.408 183.545 214.408C177.145 236.808 194.878 240.408 204.545 239.408C226.878 217.408 272.745 172.408 277.545 168.408C282.345 164.408 292.18 164.408 296.045 168.408C310.378 183.241 344.045 218.808 362.045 236.408C390.045 244.008 391.045 224.908 388.045 214.408L339.545 165.908C337.945 164.308 338.878 161.241 339.545 159.908C351.878 147.074 379.445 118.108 391.045 104.908C391.045 83.3078 374.712 83.5745 366.545 86.4078C345.545 106.908 301.845 149.408 295.045 155.408C288.245 161.408 280.545 157.908 277.545 155.408L204.545 84.9078Z" fill="#FB3E81" stroke="#FB3E81"/>
</svg>
