<svg width="487" height="857" viewBox="0 0 487 857" fill="none" xmlns="http://www.w3.org/2000/svg">
<path d="M60.4312 813V677C91.6312 730.6 134.431 738.334 151.931 735.5H196.431V813C188.431 845.8 167.765 855 158.431 855.5H103.431C82.2312 857.5 65.9312 828 60.4312 813Z" fill="#0A1437" stroke="#0C1436"/>
<path d="M80.9312 804.5V705.5C103.731 735.5 154.098 738 176.431 735.5V811.5C174.031 824.3 162.098 833.167 156.431 836H107.431C89.8312 834 82.4312 814.167 80.9312 804.5Z" fill="#1DBBC9" stroke="#1DBBC9"/>
<path d="M80.9312 762V704.5C106.131 737.3 155.098 738.834 176.431 735.5V762H80.9312Z" fill="#FB2770" stroke="#FB2770"/>
<path d="M120.431 835.5V771.5H135.886L137.431 835.5H120.431Z" fill="#31F8CB" stroke="#31F8CB"/>
<path d="M80.9312 771V762H176.431V771H80.9312Z" fill="#071333" stroke="#071333"/>
<path d="M80.9312 723V704.5C108.131 734.1 141.931 734.5 154.931 736V747.5H124.931C103.331 746.7 86.5979 730.834 80.9312 723Z" fill="#AB0359" stroke="#AB0359"/>
<path d="M154.931 762L154.431 735.5C161.631 735.5 172.265 735.5 176.431 735V762H154.931Z" fill="#2E0E3D" stroke="#2E0E3D"/>
<path d="M156.431 836L155.931 772H176.431V811.5C174.831 823.9 162.598 833.167 156.431 836Z" fill="#046FAD" stroke="#036DA9"/>
<path d="M361.431 813V677C330.231 730.6 287.431 738.334 269.931 735.5H225.431V813C233.431 845.8 254.098 855 263.431 855.5H318.431C339.631 857.5 355.931 828 361.431 813Z" fill="#0A1437" stroke="#0C1436"/>
<path d="M340.931 804.5V705.5C318.131 735.5 267.764 738 245.431 735.5V811.5C247.831 824.3 259.764 833.167 265.431 836H314.431C332.031 834 339.431 814.167 340.931 804.5Z" fill="#1DBBC9" stroke="#1DBBC9"/>
<path d="M340.931 762V704.5C315.731 737.3 266.764 738.834 245.431 735.5V762H340.931Z" fill="#FB2770" stroke="#FB2770"/>
<path d="M301.431 835.5V771.5H285.976L284.431 835.5H301.431Z" fill="#31F8CB" stroke="#31F8CB"/>
<path d="M340.931 771V762H245.431V771H340.931Z" fill="#071333" stroke="#071333"/>
<path d="M340.931 723V704.5C313.731 734.1 279.931 734.5 266.931 736V747.5H296.931C318.531 746.7 335.264 730.834 340.931 723Z" fill="#AB0359" stroke="#AB0359"/>
<path d="M266.931 762L267.431 735.5C260.231 735.5 249.598 735.5 245.431 735V762H266.931Z" fill="#2E0E3D" stroke="#2E0E3D"/>
<path d="M265.431 836L265.931 772H245.431V811.5C247.031 823.9 259.264 833.167 265.431 836Z" fill="#046FAD" stroke="#036DA9"/>
<path d="M44.8838 534.911C63.2373 500.13 82.817 492.38 90.3126 492.853L84.267 665.956C81.1602 672.595 67.7281 702.951 56.0053 726.325C37.2275 754.134 21.3396 739.03 12.2313 721.001C-6.95378 671.246 7.26764 613.508 16.7765 590.858C19.0982 585.457 27.97 566.706 44.8838 534.911Z" fill="#091336" stroke="#031D4B"/>
<path d="M45.8584 562.777C60.2562 532.918 76.9708 521.694 83.5284 519.815L77.3821 648.005C68.7834 665.837 50.524 703.236 46.2753 710.172C40.9644 718.842 25.557 713.876 19.9068 700.395C10.1714 673.236 16.6658 633.866 21.1299 617.576C25.366 607.814 36.2423 583.188 45.8584 562.777Z" fill="#2DEFD0" stroke="#2DEFD0"/>
<path d="M20.3743 702.942C12.135 683.931 16.8299 666.342 20.2073 659.924C24.1288 651.205 31.8876 652.109 35.2133 660.448C39.4168 667.553 41.1677 689.12 37.6034 703.544C34.8156 711.669 26.4127 713.274 20.3743 702.942Z" fill="#FB2E7B" stroke="#FB2E7B"/>
<path d="M29.5948 598.263L22.3297 615.088C49.2928 620.584 55.5124 668.747 55.2518 692.142C56.2443 690.279 59.5491 683.816 64.8282 672.868C59.5395 613.984 39.1356 598.596 29.5948 598.263Z" fill="#0B1232" stroke="#0B1231"/>
<path d="M39.947 612.54L35.4918 620.608C44.9381 630.552 51.0693 652.568 52.954 662.333C53.8466 660.677 56.0515 656.495 57.7312 653.011C54.9333 631.154 44.7092 616.924 39.947 612.54Z" fill="#FB3E81" stroke="#FB3E81"/>
<path d="M41.8743 629.054L46.0957 619.713L48.6981 624.864L44.1988 634.195L41.8743 629.054Z" fill="#50094F" stroke="#50094F"/>
<path d="M54.1144 637.072L49.5489 648.298L53.2539 661.71L57.7311 653.011L54.1144 637.072Z" fill="#50094F" stroke="#50094F"/>
<path d="M381.171 527.517C364.81 566.599 347.195 575.583 340.432 575.191L344.937 382.208C347.702 374.756 359.65 340.693 370.094 314.44C386.876 283.12 401.287 299.665 409.6 319.59C427.174 374.685 414.665 439.272 406.213 464.679C404.149 470.738 396.251 491.789 381.171 527.517Z" fill="#091336" stroke="#031D4B"/>
<path d="M380.14 496.487C367.319 530.013 352.307 542.817 346.403 545.028L351.244 402.087C358.901 382.065 375.164 340.068 378.957 332.264C383.699 322.509 397.621 327.767 402.791 342.686C411.719 372.774 406.078 416.756 402.141 434.987C398.374 445.939 388.701 473.572 380.14 496.487Z" fill="#2DEFD0" stroke="#2DEFD0"/>
<path d="M402.355 339.857C409.89 360.892 405.752 380.574 402.741 387.786C399.252 397.57 392.25 396.702 389.205 387.47C385.376 379.629 383.679 355.629 386.814 339.494C389.284 330.391 396.853 328.454 402.355 339.857Z" fill="#FB2E7B" stroke="#FB2E7B"/>
<path d="M394.613 456.656L401.073 437.78C376.727 432.138 370.854 378.585 370.961 352.514C370.076 354.607 367.131 361.867 362.43 374.16C367.522 439.675 386.007 456.455 394.613 456.656Z" fill="#0B1232" stroke="#0B1231"/>
<path d="M385.199 440.933L389.172 431.865C380.599 420.953 374.949 396.533 373.196 385.687C372.4 387.547 370.435 392.246 368.939 396.158C371.582 420.461 380.88 436.134 385.199 440.933Z" fill="#FB3E81" stroke="#FB3E81"/>
<path d="M383.37 422.569L379.614 433.052L377.239 427.358L381.246 416.882L383.37 422.569Z" fill="#50094F" stroke="#50094F"/>
<path d="M372.288 413.853L376.344 401.264L372.929 386.385L368.939 396.158L372.288 413.853Z" fill="#50094F" stroke="#50094F"/>
<path d="M52.4312 659.5V545C60.4312 506.6 93.9312 474 123.431 474H296.431C328.431 480 362.431 500.5 370.931 551C374.444 571.873 370.931 621.5 370.931 659.5C365.431 699.5 329.931 738.5 296.431 738.5H123.431C87.0312 730.1 52.4312 692 52.4312 659.5Z" fill="#002553" stroke="#002553"/>
<path d="M71.4312 656V548C79.4312 509.6 108.431 499.667 121.931 499.5H304.931C336.931 505.5 348.265 536.334 349.931 551V662C336.331 706 304.265 716.334 289.931 716H121.931C85.5312 707.6 73.0979 672.5 71.4312 656Z" fill="#2CFDDC" stroke="#2CFDDC"/>
<path fill-rule="evenodd" clip-rule="evenodd" d="M79.4312 552V657C83.4312 688 103.431 707 133.931 707H288.931C305.431 709 337.431 690 337.431 657V558.5C337.431 539 320.431 510 288.931 509H133.931C120.431 509.167 89.9312 513.5 79.4312 552ZM89.4312 557.063V652.448C93.1211 680.61 111.571 697.87 139.706 697.87H282.691C297.912 699.687 327.431 682.426 327.431 652.448V562.968C327.431 545.253 311.749 518.909 282.691 518H139.706C127.253 518.152 99.1173 522.088 89.4312 557.063Z" fill="#1394B2"/>
<path d="M79.4312 657H78.9312V657.032L78.9353 657.064L79.4312 657ZM79.4312 552L78.9488 551.869L78.9312 551.933V552H79.4312ZM288.931 707L288.991 706.504L288.961 706.5H288.931V707ZM288.931 509L288.947 508.5L288.939 508.5H288.931V509ZM133.931 509V508.5L133.925 508.5L133.931 509ZM89.4312 652.448H88.9312V652.481L88.9355 652.513L89.4312 652.448ZM89.4312 557.063L88.9494 556.929L88.9312 556.995V557.063H89.4312ZM282.691 697.87L282.75 697.373L282.721 697.37H282.691V697.87ZM282.691 518L282.707 517.5L282.699 517.5H282.691V518ZM139.706 518V517.5L139.7 517.5L139.706 518ZM79.9312 657V552H78.9312V657H79.9312ZM133.931 706.5C118.789 706.5 106.291 701.786 97.0835 693.258C87.8732 684.728 81.9152 672.344 79.9271 656.936L78.9353 657.064C80.9472 672.656 86.9892 685.272 96.404 693.992C105.821 702.714 118.573 707.5 133.931 707.5V706.5ZM288.931 706.5H133.931V707.5H288.931V706.5ZM336.931 657C336.931 673.326 329.018 686.195 319.043 694.746C309.047 703.314 297.057 707.481 288.991 706.504L288.871 707.497C297.306 708.519 309.566 704.186 319.694 695.505C329.844 686.805 337.931 673.675 337.931 657H336.931ZM336.931 558.5V657H337.931V558.5H336.931ZM288.915 509.5C304.501 509.995 316.499 517.413 324.61 527.133C332.73 536.865 336.931 548.879 336.931 558.5H337.931C337.931 548.622 333.633 536.386 325.378 526.492C317.113 516.588 304.861 509.006 288.947 508.5L288.915 509.5ZM133.931 509.5H288.931V508.5H133.931V509.5ZM79.9136 552.132C85.1285 533.011 95.293 522.413 105.799 516.562C116.323 510.702 127.23 509.583 133.937 509.5L133.925 508.5C127.133 508.584 116.039 509.715 105.313 515.688C94.5695 521.671 84.2339 532.49 78.9488 551.869L79.9136 552.132ZM89.9312 652.448V557.063H88.9312V652.448H89.9312ZM139.706 697.37C125.744 697.37 114.224 693.089 105.739 685.35C97.2512 677.609 91.7597 666.37 89.927 652.383L88.9355 652.513C90.7927 666.688 96.371 678.16 105.065 686.089C113.761 694.02 125.533 698.37 139.706 698.37V697.37ZM282.691 697.37H139.706V698.37H282.691V697.37ZM326.931 652.448C326.931 667.26 319.641 678.939 310.446 686.7C301.23 694.479 290.179 698.26 282.75 697.373L282.632 698.366C290.424 699.296 301.742 695.356 311.091 687.464C320.461 679.555 327.931 667.615 327.931 652.448H326.931ZM326.931 562.968V652.448H327.931V562.968H326.931ZM282.675 518.5C297.043 518.949 308.102 525.683 315.576 534.505C323.061 543.338 326.931 554.241 326.931 562.968H327.931C327.931 553.98 323.96 542.853 316.339 533.858C308.709 524.852 297.397 517.96 282.707 517.5L282.675 518.5ZM139.706 518.5H282.691V517.5H139.706V518.5ZM89.9131 557.196C94.7199 539.84 104.088 530.221 113.771 524.911C123.472 519.592 133.527 518.575 139.712 518.5L139.7 517.5C133.432 517.576 123.193 518.604 113.291 524.034C103.371 529.474 93.8285 539.311 88.9494 556.929L89.9131 557.196Z" fill="#1394B2"/>
<path d="M239.425 538.112C206.081 524.204 171.027 533.416 148.103 559.711C144.25 556.443 140.056 551.676 135.391 549.189C131.479 542.81 119.751 544.121 120.004 553.427C120.424 568.945 120.424 584.45 120.333 599.972C120.304 605.049 125.833 610.428 131.005 608.285C145.189 602.408 159.591 596.841 173.359 589.987C178.459 587.448 177.985 579.469 173.359 576.796C169.081 574.324 164.881 571.727 160.77 568.987C200.622 538.473 262.962 551.791 273.216 608.968C285.224 675.929 179.502 704.912 156.086 641.436C151.602 629.283 132.337 634.547 136.872 646.854C148.939 679.591 179.211 700.653 213.862 698.134C247.79 695.667 290.384 666.391 295.453 629.469C300.408 593.375 270.838 551.213 239.425 538.112Z" fill="#002553"/>
<path d="M23.5464 349C27.7397 236.86 124.546 177 206.927 177C303.046 177 384.546 245.5 391.046 349C397.546 452.5 305.035 523.5 209.547 527C120.321 530.271 19.5452 456 23.5464 349Z" fill="#035593" stroke="black"/>
<path d="M43.546 345C50.5462 233 157.546 195.5 206.546 195.5C259.546 195.5 365.546 241.5 372.046 345C378.546 448.5 286.035 507 211.046 507C187.011 507 34.5769 488.5 43.546 345Z" fill="#2CFDDC" stroke="black"/>
<path d="M224.44 197.143C136.94 187.144 82.9395 245.143 64.4395 277.643C60.7395 284.143 67.4395 297.643 80.9395 291.143C120.139 225.143 195.606 214.977 228.439 218.143C236.94 212.144 234.536 198.297 224.44 197.143Z" fill="white" stroke="#FDFFFF"/>
<g clip-path="url(#clip0_3_345)">
<path d="M285.868 25.7662C320.892 -7.62585 379.611 -3.18258 417.476 19.7354C457.488 43.9528 485.332 104.668 463.399 157.251C446.458 197.869 413.562 208.273 379.673 207.033C331.626 214.616 276.688 196.257 260.1 154.486C244.019 113.992 256.724 53.5518 285.868 25.7662Z" fill="#FB3E81" stroke="#FB3E81" stroke-width="0.44202"/>
<path d="M400.678 218.952C410.371 212.447 427.417 211.748 433.96 224.007C437.346 230.351 436.356 238.478 432.223 244.01C427.813 249.906 421.228 251.122 415.003 251.338C405.33 251.672 387.178 247.112 389.258 230.691C390.212 223.158 394.944 219.929 400.678 218.952Z" fill="#FB3E81" stroke="#FB3E81" stroke-width="0.44202"/>
<path d="M375.293 282.848C376.95 274.712 382.565 272.042 388.32 272.669C393.97 270.097 401.109 270.785 403.299 278.828C406.238 289.626 398.065 297.9 389.725 298.188C382.294 298.444 373.048 293.881 375.293 282.848Z" fill="#FB3E81" stroke="#FB3E81" stroke-width="0.44202"/>
</g>
<path d="M186.598 296.855L136.479 345.732C134.024 348.126 135.465 351.23 139.459 353.74C150.1 364.266 175.073 389.027 189.837 403.863C190.985 425.066 173.279 427.656 164.282 426.3C144.662 407.252 102.728 366.55 91.9534 356.124C77.1661 350.888 86.3127 345.443 92.4851 343.125C111.531 324.338 156.142 279.009 164.658 272.301C173.175 265.593 194.639 280.374 186.598 296.855Z" fill="#FB3E81"/>
<path d="M186.598 296.855L136.479 345.732C134.024 348.126 135.465 351.23 139.459 353.74C150.1 364.266 175.073 389.027 189.837 403.863C190.985 425.066 173.279 427.656 164.282 426.3C144.662 407.252 102.728 366.55 91.9534 356.124C77.1661 350.888 86.3127 345.443 92.4851 343.125C111.531 324.338 156.142 279.009 164.658 272.301C173.175 265.593 194.639 280.374 186.598 296.855Z" fill="#FB3E81"/>
<path d="M186.598 296.855L136.479 345.732C134.024 348.126 135.465 351.23 139.459 353.74C150.1 364.266 175.073 389.027 189.837 403.863C190.985 425.066 173.279 427.656 164.282 426.3C144.662 407.252 102.728 366.55 91.9534 356.124C77.1661 350.888 86.3127 345.443 92.4851 343.125C111.531 324.338 156.142 279.009 164.658 272.301C173.175 265.593 194.639 280.374 186.598 296.855Z" stroke="#FB3E81"/>
<path d="M230.188 299.592L280.123 348.648C282.569 351.05 281.118 354.15 277.118 356.647C266.448 367.142 241.406 391.828 226.601 406.62C225.384 427.825 243.073 430.474 252.07 429.148C271.743 410.158 313.789 369.581 324.592 359.187C339.389 353.998 330.265 348.522 324.103 346.183C305.128 327.329 260.688 281.842 252.197 275.103C243.707 268.365 222.205 283.081 230.188 299.592Z" fill="#FB3E81"/>
<path d="M230.188 299.592L280.123 348.648C282.569 351.05 281.118 354.15 277.118 356.647C266.448 367.142 241.406 391.828 226.601 406.62C225.384 427.825 243.073 430.474 252.07 429.148C271.743 410.158 313.789 369.581 324.592 359.187C339.389 353.998 330.265 348.522 324.103 346.183C305.128 327.329 260.688 281.842 252.197 275.103C243.707 268.365 222.205 283.081 230.188 299.592Z" fill="#FB3E81"/>
<path d="M230.188 299.592L280.123 348.648C282.569 351.05 281.118 354.15 277.118 356.647C266.448 367.142 241.406 391.828 226.601 406.62C225.384 427.825 243.073 430.474 252.07 429.148C271.743 410.158 313.789 369.581 324.592 359.187C339.389 353.998 330.265 348.522 324.103 346.183C305.128 327.329 260.688 281.842 252.197 275.103C243.707 268.365 222.205 283.081 230.188 299.592Z" stroke="#FB3E81"/>
<defs>
<clipPath id="clip0_3_345">
<rect width="244.875" height="296" fill="white" transform="matrix(-0.999892 -0.0146647 -0.0146647 0.999892 486.189 3.59103)"/>
</clipPath>
</defs>
</svg>
