<svg width="805" height="801" viewBox="0 0 805 801" fill="none" xmlns="http://www.w3.org/2000/svg">
<path d="M528.281 508.031H276.719V547.094H528.281V508.031Z" fill="#FB2E7B"/>
<path d="M528.281 566.625H276.719V722.875H528.281V566.625Z" fill="#FB2E7B"/>
<path d="M150.938 390.844C220.293 390.844 276.719 434.652 276.719 488.5H528.281C528.281 434.652 584.707 390.844 654.063 390.844C655.798 390.844 657.433 391.195 659.169 391.254L646.365 316.762C636.378 258.539 572.405 215.062 496.76 215.062H308.24C232.595 215.062 168.622 258.539 158.635 316.762L145.831 391.254C147.567 391.195 149.202 390.844 150.938 390.844ZM375.809 354.633C370.904 350.824 370.904 344.633 375.809 340.824C380.715 337.016 388.689 337.016 393.595 340.824L402.5 347.738L411.405 340.824C416.311 337.016 424.285 337.016 429.191 340.824C434.096 344.633 434.096 350.824 429.191 354.633L420.286 361.547L429.191 368.461C434.096 372.27 434.096 378.461 429.191 382.27C424.285 386.078 416.311 386.078 411.405 382.27L402.5 375.355L393.595 382.27C388.689 386.078 380.715 386.078 375.809 382.27C370.904 378.461 370.904 372.27 375.809 368.461L384.715 361.547L375.809 354.633Z" fill="#FB2E7B"/>
<path d="M754.688 488.5C754.688 447.621 714.085 414.438 662.565 411.039L662.54 410.883C659.723 410.668 656.955 410.375 654.062 410.375C598.568 410.375 553.438 445.414 553.438 488.5V722.875H603.75V742.406C603.75 753.187 615.02 761.938 628.906 761.938H679.219C693.105 761.938 704.375 753.187 704.375 742.406V722.875H725.028C740.575 722.875 752.398 712.035 749.832 700.141L717.33 548.793C739.946 534.457 754.688 512.914 754.688 488.5Z" fill="#FB2E7B"/>
<path d="M251.562 488.5C251.562 445.414 206.432 410.375 150.938 410.375C148.045 410.375 145.277 410.668 142.46 410.883L142.435 411.039C90.9147 414.438 50.3125 447.602 50.3125 488.5C50.3125 512.934 65.0541 534.477 87.6695 548.793L55.1928 700.121C52.6269 712.035 64.4503 722.875 79.9969 722.875H100.625V742.406C100.625 753.187 111.895 761.938 125.781 761.938H176.094C189.98 761.938 201.25 753.187 201.25 742.406V722.875H251.562V488.5Z" fill="#FB2E7B"/>
<path d="M528.281 508.031H276.719V547.094H528.281V508.031Z" fill="#FB2E7B"/>
<path d="M528.281 566.625H276.719V722.875H528.281V566.625Z" fill="#FB2E7B"/>
<path d="M150.938 390.844C220.293 390.844 276.719 434.652 276.719 488.5H528.281C528.281 434.652 584.707 390.844 654.063 390.844C655.798 390.844 657.433 391.195 659.169 391.254L646.365 316.762C636.378 258.539 572.405 215.062 496.76 215.062H308.24C232.595 215.062 168.622 258.539 158.635 316.762L145.831 391.254C147.567 391.195 149.202 390.844 150.938 390.844ZM375.809 354.633C370.904 350.824 370.904 344.633 375.809 340.824C380.715 337.016 388.689 337.016 393.595 340.824L402.5 347.738L411.405 340.824C416.311 337.016 424.285 337.016 429.191 340.824C434.096 344.633 434.096 350.824 429.191 354.633L420.286 361.547L429.191 368.461C434.096 372.27 434.096 378.461 429.191 382.27C424.285 386.078 416.311 386.078 411.405 382.27L402.5 375.355L393.595 382.27C388.689 386.078 380.715 386.078 375.809 382.27C370.904 378.461 370.904 372.27 375.809 368.461L384.715 361.547L375.809 354.633Z" fill="#FB2E7B"/>
<path d="M754.688 488.5C754.688 447.621 714.085 414.438 662.565 411.039L662.54 410.883C659.723 410.668 656.955 410.375 654.062 410.375C598.568 410.375 553.438 445.414 553.438 488.5V722.875H603.75V742.406C603.75 753.187 615.02 761.938 628.906 761.938H679.219C693.105 761.938 704.375 753.187 704.375 742.406V722.875H725.028C740.575 722.875 752.398 712.035 749.832 700.141L717.33 548.793C739.946 534.457 754.688 512.914 754.688 488.5Z" fill="#FB2E7B"/>
<path d="M251.562 488.5C251.562 445.414 206.432 410.375 150.938 410.375C148.045 410.375 145.277 410.668 142.46 410.883L142.435 411.039C90.9147 414.438 50.3125 447.602 50.3125 488.5C50.3125 512.934 65.0541 534.477 87.6695 548.793L55.1928 700.121C52.6269 712.035 64.4503 722.875 79.9969 722.875H100.625V742.406C100.625 753.187 111.895 761.938 125.781 761.938H176.094C189.98 761.938 201.25 753.187 201.25 742.406V722.875H251.562V488.5Z" fill="#FB2E7B"/>
<path d="M591.549 382.597C567.941 343.815 531.944 320.708 516.896 314.002L465.126 427.356C468.846 434.388 484.317 465.82 498.969 491.311C525.987 526.15 563.077 531.59 587.792 528.878C644.19 515.836 637.239 466.629 626.714 443.656C624.097 438.127 613.399 418.175 591.549 382.597Z" fill="#091336" stroke="#031D4B"/>
<path d="M579.351 399.025C561.78 367.001 532.747 344.408 520.426 337.115L485.402 422.616C495.895 441.742 518.352 482.064 524.228 490.347C531.572 500.701 563.975 512 580.153 508.889C609.476 501.082 611.091 470.52 608.234 456.215C603.424 446.186 590.913 420.706 579.351 399.025Z" fill="#2DEFD0" stroke="#2DEFD0"/>
<path d="M578.287 510.037C601.64 505.903 598.803 490.574 594.465 483.426C589.895 474.339 574.166 467.656 564.495 469.739C553.537 470.234 542.118 482.018 543.877 494.321C546.416 501.981 562.499 510.826 578.287 510.037Z" fill="#FB2E7B" stroke="#FB2E7B"/>
<path d="M598.551 436.293L606.77 453.547C551.241 431.786 521.158 455.946 513.057 470.745C511.774 468.659 507.597 461.552 501.154 449.81C533.34 418.11 579.496 427.591 598.551 436.293Z" fill="#0B1232" stroke="#0B1231"/>
<path d="M572.749 435.509L578.618 444.689C556.21 442.055 535.934 450.028 528.597 454.344C527.436 452.48 524.601 447.819 522.551 444.082C536.155 433.096 561.685 433.789 572.749 435.509Z" fill="#FB3E81" stroke="#FB3E81"/>
<path d="M562.842 443.984L557.906 434.23L550.845 435.005L556.336 445.013L562.842 443.984Z" fill="#50094F" stroke="#50094F"/>
<path d="M535.6 437.542L540.524 448.791L528.231 453.676L522.551 444.083L535.6 437.542Z" fill="#50094F" stroke="#50094F"/>
<path d="M224.939 376.044C252.933 343.985 289.223 329.992 303.869 327.003L330.026 448.842C325.452 454.786 306.036 481.623 288.409 502.898C258.065 530.345 223.936 526.973 202.319 518.589C154.209 492.821 169.163 446.785 182.653 426.987C185.975 422.243 199.084 405.412 224.939 376.044Z" fill="#091336" stroke="#031D4B"/>
<path d="M232.928 394.797C254.325 367.875 284.296 352.757 296.607 348.564L312.739 439.529C299.96 455.607 272.721 489.427 265.996 496.08C257.59 504.397 226.612 507.792 212.7 501.01C187.868 486.618 191.851 456.644 196.946 443.456C203.028 434.863 218.739 413.1 232.928 394.797Z" fill="#2DEFD0" stroke="#2DEFD0"/>
<path d="M214.164 502.556C194.018 493.113 199.277 478.928 204.425 473.016C210.125 465.28 225.375 462.471 233.652 466.741C243.362 469.773 251.479 483.846 247.721 495.352C244.091 502.179 228.14 506.999 214.164 502.556Z" fill="#FB2E7B" stroke="#FB2E7B"/>
<path d="M209.142 426.417L198.729 441.212C252.242 433.073 274.85 463.478 279.465 479.699C280.983 477.977 285.98 472.067 293.825 462.196C270.677 423.998 227.724 422.428 209.142 426.417Z" fill="#0B1232" stroke="#0B1231"/>
<path d="M232.35 431.668L225.473 439.192C245.976 441.861 262.689 454.305 268.483 460.194C269.852 458.66 273.214 454.806 275.711 451.665C265.499 437.855 242.549 432.58 232.35 431.668Z" fill="#FB3E81" stroke="#FB3E81"/>
<path d="M239.704 442.184L245.849 433.887L252.025 436.283L245.339 444.696L239.704 442.184Z" fill="#50094F" stroke="#50094F"/>
<path d="M265.206 442.291L258.805 452.038L268.929 459.633L275.711 451.665L265.206 442.291Z" fill="#50094F" stroke="#50094F"/>
<path d="M242.996 487.5V373C250.996 334.6 284.496 302 313.996 302H486.996C518.996 308 552.996 328.5 561.496 379C565.009 399.873 561.496 449.5 561.496 487.5C555.996 527.5 520.496 566.5 486.996 566.5H313.996C277.596 558.1 242.996 520 242.996 487.5Z" fill="#002553" stroke="#002553"/>
<path d="M261.996 484V376C269.996 337.6 298.996 327.667 312.496 327.5H495.496C527.496 333.5 538.829 364.333 540.496 379V490C526.896 534 494.829 544.333 480.496 544H312.496C276.096 535.6 263.663 500.5 261.996 484Z" fill="#2CFDDC" stroke="#2CFDDC"/>
<path fill-rule="evenodd" clip-rule="evenodd" d="M269.996 380V485C273.996 516 293.996 535 324.496 535H479.496C495.996 537 527.996 518 527.996 485V386.5C527.996 367 510.996 338 479.496 337H324.496C310.996 337.167 280.496 341.5 269.996 380ZM279.996 385.063V480.448C283.686 508.609 302.136 525.87 330.271 525.87H473.256C488.477 527.686 517.996 510.426 517.996 480.448V390.967C517.996 373.253 502.314 346.908 473.256 346H330.271C317.818 346.151 289.682 350.088 279.996 385.063Z" fill="#1394B2"/>
<path d="M269.996 485H269.496V485.032L269.5 485.064L269.996 485ZM269.996 380L269.514 379.868L269.496 379.933V380H269.996ZM479.496 535L479.556 534.504L479.526 534.5H479.496V535ZM479.496 337L479.512 336.5L479.504 336.5H479.496V337ZM324.496 337V336.5L324.49 336.5L324.496 337ZM279.996 480.448H279.496V480.481L279.5 480.513L279.996 480.448ZM279.996 385.063L279.514 384.929L279.496 384.995V385.063H279.996ZM473.256 525.87L473.315 525.373L473.286 525.37H473.256V525.87ZM473.256 346L473.271 345.5L473.264 345.5H473.256V346ZM330.271 346V345.5L330.265 345.5L330.271 346ZM270.496 485V380H269.496V485H270.496ZM324.496 534.5C309.354 534.5 296.856 529.786 287.648 521.258C278.438 512.728 272.48 500.344 270.492 484.936L269.5 485.064C271.512 500.656 277.554 513.272 286.969 521.992C296.386 530.714 309.138 535.5 324.496 535.5V534.5ZM479.496 534.5H324.496V535.5H479.496V534.5ZM527.496 485C527.496 501.326 519.583 514.195 509.608 522.745C499.612 531.314 487.622 535.481 479.556 534.504L479.436 535.496C487.871 536.519 500.131 532.186 510.259 523.505C520.409 514.805 528.496 501.674 528.496 485H527.496ZM527.496 386.5V485H528.496V386.5H527.496ZM479.48 337.5C495.066 337.995 507.064 345.412 515.175 355.133C523.295 364.864 527.496 376.878 527.496 386.5H528.496C528.496 376.622 524.197 364.386 515.943 354.492C507.678 344.588 495.426 337.005 479.512 336.5L479.48 337.5ZM324.496 337.5H479.496V336.5H324.496V337.5ZM270.478 380.132C275.693 361.01 285.858 350.413 296.364 344.562C306.888 338.702 317.794 337.583 324.502 337.5L324.49 336.5C317.698 336.584 306.604 337.715 295.878 343.688C285.134 349.671 274.799 360.49 269.514 379.868L270.478 380.132ZM280.496 480.448V385.063H279.496V480.448H280.496ZM330.271 525.37C316.309 525.37 304.789 521.089 296.303 513.35C287.816 505.609 282.325 494.37 280.492 480.383L279.5 480.513C281.358 494.687 286.936 506.159 295.63 514.089C304.325 522.02 316.098 526.37 330.271 526.37V525.37ZM473.256 525.37H330.271V526.37H473.256V525.37ZM517.496 480.448C517.496 495.26 510.206 506.938 501.011 514.7C491.795 522.479 480.744 526.26 473.315 525.373L473.197 526.366C480.989 527.296 492.307 523.355 501.656 515.464C511.026 507.555 518.496 495.614 518.496 480.448H517.496ZM517.496 390.967V480.448H518.496V390.967H517.496ZM473.24 346.5C487.608 346.949 498.666 353.683 506.141 362.505C513.626 371.338 517.496 382.241 517.496 390.967H518.496C518.496 381.98 514.525 370.853 506.904 361.858C499.273 352.852 487.962 345.959 473.271 345.5L473.24 346.5ZM330.271 346.5H473.256V345.5H330.271V346.5ZM280.478 385.196C285.285 367.839 294.653 358.221 304.336 352.911C314.037 347.591 324.092 346.575 330.277 346.5L330.265 345.5C323.997 345.576 313.757 346.604 303.855 352.034C293.936 357.474 284.393 367.311 279.514 384.929L280.478 385.196Z" fill="#1394B2"/>
<path d="M317.821 484.816L368.311 436.322C370.784 433.946 369.367 430.832 365.392 428.292C354.831 417.685 330.048 392.735 315.397 377.787C314.411 356.576 332.136 354.12 341.122 355.544C360.597 374.741 402.22 415.762 412.915 426.27C427.662 431.618 418.474 436.993 412.284 439.264C393.096 457.905 348.141 502.893 339.574 509.536C331.006 516.18 309.656 501.235 317.821 484.816Z" fill="#FB3E81"/>
<path d="M317.821 484.816L368.311 436.322C370.784 433.946 369.367 430.832 365.392 428.292C354.831 417.685 330.048 392.735 315.397 377.787C314.411 356.576 332.136 354.12 341.122 355.544C360.597 374.741 402.22 415.762 412.915 426.27C427.662 431.618 418.474 436.993 412.284 439.264C393.096 457.905 348.141 502.893 339.574 509.536C331.006 516.18 309.656 501.235 317.821 484.816Z" fill="#FB3E81"/>
<path d="M317.821 484.816L368.311 436.322C370.784 433.946 369.367 430.832 365.392 428.292C354.831 417.685 330.048 392.735 315.397 377.787C314.411 356.576 332.136 354.12 341.122 355.544C360.597 374.741 402.22 415.762 412.915 426.27C427.662 431.618 418.474 436.993 412.284 439.264C393.096 457.905 348.141 502.893 339.574 509.536C331.006 516.18 309.656 501.235 317.821 484.816Z" stroke="#FB3E81"/>
<path d="M475.308 484.827L422.757 438.585C420.183 436.32 421.462 433.145 425.319 430.432C435.398 419.368 459.047 393.345 473.019 377.764C473.07 356.524 455.263 354.849 446.352 356.667C427.751 376.707 387.993 419.529 377.777 430.5C363.286 436.493 372.697 441.46 378.978 443.458C398.959 461.243 445.828 504.224 454.675 510.486C463.522 516.748 484.184 500.876 475.308 484.827Z" fill="#FB3E81"/>
<path d="M475.308 484.827L422.757 438.585C420.183 436.32 421.462 433.145 425.319 430.432C435.398 419.368 459.047 393.345 473.019 377.764C473.07 356.524 455.263 354.849 446.352 356.667C427.751 376.707 387.993 419.529 377.777 430.5C363.286 436.493 372.697 441.46 378.978 443.458C398.959 461.243 445.828 504.224 454.675 510.486C463.522 516.748 484.184 500.876 475.308 484.827Z" fill="#FB3E81"/>
<path d="M475.308 484.827L422.757 438.585C420.183 436.32 421.462 433.145 425.319 430.432C435.398 419.368 459.047 393.345 473.019 377.764C473.07 356.524 455.263 354.849 446.352 356.667C427.751 376.707 387.993 419.529 377.777 430.5C363.286 436.493 372.697 441.46 378.978 443.458C398.959 461.243 445.828 504.224 454.675 510.486C463.522 516.748 484.184 500.876 475.308 484.827Z" stroke="#FB3E81"/>
<path d="M483 630C512.271 630 536 600.451 536 564C536 527.549 512.271 498 483 498C453.729 498 430 527.549 430 564C430 600.451 453.729 630 483 630Z" fill="#545454"/>
<path d="M351 628C380.271 628 404 598.451 404 562C404 525.549 380.271 496 351 496C321.729 496 298 525.549 298 562C298 598.451 321.729 628 351 628Z" fill="#545454"/>
<path d="M219.112 173C223.305 60.8598 320.112 1 402.492 1C498.612 1 580.112 69.5 586.612 173C593.112 276.5 500.601 347.5 405.112 351C315.886 354.271 215.111 280 219.112 173Z" fill="#035593" stroke="black"/>
<path d="M239.112 169C246.112 57 353.112 19.5 402.112 19.5C455.112 19.5 561.112 65.5 567.612 169C574.112 272.5 481.601 331 406.612 331C382.577 331 230.143 312.5 239.112 169Z" fill="#2CFDDC" stroke="black"/>
<path d="M420.005 21.1432C332.505 11.1433 278.505 69.1432 260.005 101.643C256.305 108.143 263.005 121.643 276.505 115.143C315.705 49.1432 391.172 38.9765 424.005 42.1432C432.505 36.1433 430.102 22.2971 420.005 21.1432Z" fill="white" stroke="#FDFFFF"/>
<path d="M304.715 135.425C304.715 158.525 317.145 192.125 355.106 192.125C393.067 192.125 405.497 158.525 405.497 135.425C405.497 64.025 304.715 64.025 304.715 135.425Z" fill="#DDE8E3"/>
<path d="M405.497 135.425C405.497 158.525 417.926 192.125 455.887 192.125C493.848 192.125 506.278 158.525 506.278 135.425C506.278 64.025 405.497 64.025 405.497 135.425Z" fill="#DDE8E3"/>
<path d="M307.403 137.263C307.403 157.213 315.465 187.925 347.715 187.925C379.965 187.925 388.028 156.95 388.028 137.263C387.692 69.0125 307.403 69.0125 307.403 137.263Z" fill="white"/>
<path d="M408.184 137.263C408.184 157.213 416.247 187.925 448.497 187.925C480.747 187.925 488.809 156.95 488.809 137.263C488.473 69.0125 408.184 69.0125 408.184 137.263Z" fill="white"/>
<path d="M307 120.925C307 137.2 321.781 149.8 339.586 149.8C357.727 149.8 372.172 137.2 372.172 120.925C372.172 81.025 307 81.025 307 120.925Z" fill="#493B30"/>
<path d="M408 120.925C408 137.2 422.781 149.8 440.586 149.8C458.727 149.8 473.172 137.2 473.172 120.925C473.172 81.025 408 81.025 408 120.925Z" fill="#493B30"/>
<path d="M397.997 306C360.442 306 329.997 288.539 329.997 267H465.997C465.997 288.539 435.551 306 397.997 306Z" fill="#7F184C"/>
<path d="M352.997 267V273.238C352.997 275.868 356.667 278 361.193 278H448.8C453.327 278 456.997 275.868 456.997 273.238V267H352.997Z" fill="#F2F2F2"/>
<path d="M406.165 289.404C387.834 284.381 367.492 285.11 350.997 290.321C363.392 299.85 382.884 306 404.82 306C414.487 306 423.674 304.799 431.997 302.649C425.89 297.075 417.135 292.411 406.165 289.404Z" fill="#FC4C59"/>
<path d="M329.997 266.933C329.997 290.68 363.641 310 404.997 310C446.352 310 479.997 290.68 479.997 266.933C479.997 264.761 476.93 263 473.147 263H336.846C333.064 263 329.997 264.761 329.997 266.933ZM465.919 270.866C462.502 288.432 436.484 302.134 404.997 302.134C373.509 302.134 347.491 288.432 344.075 270.866H465.919Z" fill="black"/>
</svg>
