<svg width="498" height="626" viewBox="0 0 498 626" fill="none" xmlns="http://www.w3.org/2000/svg">
<path d="M107.379 581.379L107 445.379C138.349 498.892 181.171 506.506 198.663 503.624L243.163 503.5L243.379 581C235.47 613.822 214.829 623.079 205.497 623.605L150.497 623.759C129.303 625.818 112.921 596.363 107.379 581.379Z" fill="#0A1437" stroke="#0C1436"/>
<path d="M127.855 572.821L127.579 473.822C150.463 503.758 200.836 506.118 223.163 503.555L223.374 579.555C221.01 592.362 209.102 601.262 203.443 604.111L154.443 604.247C136.837 602.296 129.382 582.484 127.855 572.821Z" fill="#1DBBC9" stroke="#1DBBC9"/>
<path d="M127.737 530.322L127.577 472.822C152.868 505.552 201.839 506.948 223.163 503.556L223.237 530.056L127.737 530.322Z" fill="#FB2770" stroke="#FB2770"/>
<path d="M167.442 603.711L167.263 539.711L182.718 539.668L184.442 603.664L167.442 603.711Z" fill="#31F8CB" stroke="#31F8CB"/>
<path d="M127.762 539.322L127.737 530.322L223.236 530.056L223.262 539.056L127.762 539.322Z" fill="#071333" stroke="#071333"/>
<path d="M127.628 491.322L127.577 472.822C154.859 502.346 188.66 502.652 201.664 504.116L201.696 515.616L171.696 515.699C150.094 514.959 133.317 499.139 127.628 491.322Z" fill="#AB0359" stroke="#AB0359"/>
<path d="M201.737 530.115L201.163 503.617C208.363 503.597 218.996 503.567 223.161 503.056L223.237 530.056L201.737 530.115Z" fill="#2E0E3D" stroke="#2E0E3D"/>
<path d="M203.443 604.111L202.764 540.113L223.264 540.055L223.374 579.555C221.809 591.96 209.602 601.26 203.443 604.111Z" fill="#046FAD" stroke="#036DA9"/>
<path d="M368.908 580.986L366.986 445C336.547 499.036 293.86 507.373 276.322 504.787L231.827 505.416L232.922 582.908C241.384 615.592 262.179 624.499 271.519 624.867L326.513 624.09C347.739 625.79 363.621 596.063 368.908 580.986Z" fill="#0A1437" stroke="#0C1436"/>
<path d="M348.29 572.777L346.891 473.787C324.517 504.106 274.191 507.318 251.825 505.133L252.899 581.126C255.479 593.891 267.537 602.588 273.243 605.341L322.238 604.648C339.808 602.4 346.927 582.464 348.29 572.777Z" fill="#1DBBC9" stroke="#1DBBC9"/>
<path d="M347.689 530.281L346.877 472.787C322.143 505.94 273.203 508.165 251.825 505.133L252.199 531.631L347.689 530.281Z" fill="#FB2770" stroke="#FB2770"/>
<path d="M309.232 604.332L308.328 540.338L292.875 540.557L292.234 604.572L309.232 604.332Z" fill="#31F8CB" stroke="#31F8CB"/>
<path d="M347.817 539.28L347.689 530.281L252.199 531.631L252.326 540.63L347.817 539.28Z" fill="#071333" stroke="#071333"/>
<path d="M347.138 491.285L346.877 472.787C320.098 502.768 286.307 503.646 273.329 505.329L273.492 516.828L303.489 516.404C325.076 515.299 341.583 499.198 347.138 491.285Z" fill="#AB0359" stroke="#AB0359"/>
<path d="M273.697 531.327L273.822 504.822C266.623 504.924 255.991 505.074 251.818 504.633L252.199 531.631L273.697 531.327Z" fill="#2E0E3D" stroke="#2E0E3D"/>
<path d="M273.243 605.341L272.838 541.34L252.34 541.63L252.899 581.126C254.674 593.502 267.037 602.595 273.243 605.341Z" fill="#046FAD" stroke="#036DA9"/>
<path d="M421.755 340.663C410.829 300.479 385.133 276.146 373.651 269.002L299.932 384.311C301.422 391.587 307.073 424.091 313.497 450.489C328.395 486.692 359.478 492.929 381.78 490.587C434.389 478.217 440.65 427.638 437.204 403.895C436.301 398.18 431.946 377.532 421.755 340.663Z" fill="#091336" stroke="#031D4B"/>
<path d="M406.963 357.291C399.624 324.142 379.892 300.461 370.943 292.763L318.858 379.811C323.241 399.608 332.773 441.352 335.836 449.95C339.664 460.697 365.177 472.858 380.11 469.955C407.72 462.471 416.799 431.163 417.887 416.445C416.195 406.075 411.641 379.727 406.963 357.291Z" fill="#2DEFD0" stroke="#2DEFD0"/>
<path d="M378.19 471.099C399.656 467.275 401.019 451.507 399.017 444.101C397.298 434.702 385.214 427.57 376.231 429.534C366.521 429.847 353.575 441.727 352.029 454.374C352.329 462.272 364.18 471.628 378.19 471.099Z" fill="#FB2E7B" stroke="#FB2E7B"/>
<path d="M414.412 395.846L417.275 413.683C374.155 390.384 341.778 414.622 330.979 429.653C330.38 427.491 328.509 420.129 325.817 407.975C361.925 376.043 399.925 386.584 414.412 395.846Z" fill="#0B1232" stroke="#0B1231"/>
<path d="M392.037 394.583L394.869 404.101C375.927 401.002 356.189 408.816 348.688 413.111C348.14 411.179 346.829 406.349 345.973 402.482C360.629 391.458 382.789 392.623 392.037 394.583Z" fill="#FB3E81" stroke="#FB3E81"/>
<path d="M381.245 403.097L379.373 393.008L373.001 393.677L375.295 404.036L381.245 403.097Z" fill="#50094F" stroke="#50094F"/>
<path d="M359.028 396.008L360.515 407.629L348.535 412.42L345.973 402.482L359.028 396.008Z" fill="#50094F" stroke="#50094F"/>
<path d="M47.0988 315.154C57.3444 283.485 75.2448 271.858 82.9143 270.003L117.923 402.454C116.367 408.382 110.033 435.26 103.764 456.362C91.4349 482.894 71.83 476.181 58.3657 465.259C27.2084 433.362 27.8365 385.582 32.0452 365.679C33.1035 360.917 37.5959 344.145 47.0988 315.154Z" fill="#091336" stroke="#031D4B"/>
<path d="M54.698 335.901C62.1241 309.114 76.3111 295.711 82.4763 292.357L106.719 390.935C102.284 406.933 92.7546 440.551 90.1179 447.04C86.8221 455.152 70.1089 455.949 61.2113 447.44C44.9467 429.811 42.1459 398.176 42.7786 384.563C44.7315 375.944 49.8496 354.146 54.698 335.901Z" fill="#2DEFD0" stroke="#2DEFD0"/>
<path d="M62.2874 449.224C49.4662 437.305 50.0231 422.642 51.9042 416.801C53.7877 409.063 61.8248 407.456 67.1581 412.769C73.0832 416.892 79.9696 432.656 79.8011 444.595C78.9198 451.551 70.8288 455.241 62.2874 449.224Z" fill="#FB2E7B" stroke="#FB2E7B"/>
<path d="M46.727 367.487L43.3973 382.33C71.8871 378.524 89.5944 413.045 94.8869 430.781C95.4452 429.082 97.2424 423.229 99.9653 413.407C80.6509 370.519 56.4254 364.923 46.727 367.487Z" fill="#0B1232" stroke="#0B1231"/>
<path d="M60.5546 375.21L57.9784 382.614C69.8637 387.333 81.273 402.143 85.4919 408.958C85.9987 407.445 87.2287 403.637 88.095 400.512C80.084 384.839 66.3968 377.113 60.5546 375.21Z" fill="#FB3E81" stroke="#FB3E81"/>
<path d="M66.419 387.106L68.4571 378.81L72.3041 381.93L69.9834 390.301L66.419 387.106Z" fill="#50094F" stroke="#50094F"/>
<path d="M80.6637 389.547L78.7264 399.368L85.6467 408.4L88.0951 400.512L80.6637 389.547Z" fill="#50094F" stroke="#50094F"/>
<path d="M74.9998 422.5V308C82.9998 269.6 116.5 237 146 237H319C351 243 385 263.5 393.5 314C397.013 334.873 393.5 384.5 393.5 422.5C388 462.5 352.5 501.5 319 501.5H146C109.6 493.1 74.9998 455 74.9998 422.5Z" fill="#002553" stroke="#002553"/>
<path d="M93.9998 419V311C102 272.6 131 262.667 144.5 262.5H327.5C359.5 268.5 370.833 299.333 372.5 314V425C358.9 469 326.833 479.333 312.5 479H144.5C108.1 470.6 95.6664 435.5 93.9998 419Z" fill="#2CFDDC" stroke="#2CFDDC"/>
<path fill-rule="evenodd" clip-rule="evenodd" d="M102 315V420C106 451 126 470 156.5 470H311.5C328 472 360 453 360 420V321.5C360 302 343 273 311.5 272H156.5C143 272.167 112.5 276.5 102 315ZM112 320.063V415.448C115.69 443.609 134.139 460.87 162.275 460.87H305.259C320.48 462.686 350 445.426 350 415.448V325.967C350 308.253 334.318 281.908 305.259 281H162.275C149.821 281.151 121.686 285.088 112 320.063Z" fill="#1394B2"/>
<path d="M102 420H101.5V420.032L101.504 420.064L102 420ZM102 315L101.517 314.868L101.5 314.933V315H102ZM311.5 470L311.56 469.504L311.53 469.5H311.5V470ZM311.5 272L311.516 271.5L311.508 271.5H311.5V272ZM156.5 272V271.5L156.494 271.5L156.5 272ZM112 415.448H111.5V415.481L111.504 415.513L112 415.448ZM112 320.063L111.518 319.929L111.5 319.995V320.063H112ZM305.259 460.87L305.319 460.373L305.289 460.37H305.259V460.87ZM305.259 281L305.275 280.5L305.267 280.5H305.259V281ZM162.275 281V280.5L162.269 280.5L162.275 281ZM102.5 420V315H101.5V420H102.5ZM156.5 469.5C141.358 469.5 128.86 464.786 119.652 456.258C110.442 447.728 104.484 435.344 102.496 419.936L101.504 420.064C103.516 435.656 109.558 448.272 118.973 456.992C128.39 465.714 141.142 470.5 156.5 470.5V469.5ZM311.5 469.5H156.5V470.5H311.5V469.5ZM359.5 420C359.5 436.326 351.587 449.195 341.612 457.745C331.615 466.314 319.625 470.481 311.56 469.504L311.44 470.496C319.874 471.519 332.134 467.186 342.263 458.505C352.413 449.805 360.5 436.674 360.5 420H359.5ZM359.5 321.5V420H360.5V321.5H359.5ZM311.484 272.5C327.07 272.995 339.068 280.412 347.178 290.133C355.298 299.864 359.5 311.878 359.5 321.5H360.5C360.5 311.622 356.201 299.386 347.946 289.492C339.682 279.588 327.43 272.005 311.516 271.5L311.484 272.5ZM156.5 272.5H311.5V271.5H156.5V272.5ZM102.482 315.132C107.697 296.01 117.861 285.413 128.368 279.562C138.892 273.702 149.798 272.583 156.506 272.5L156.494 271.5C149.701 271.584 138.608 272.715 127.881 278.688C117.138 284.671 106.802 295.49 101.517 314.868L102.482 315.132ZM112.5 415.448V320.063H111.5V415.448H112.5ZM162.275 460.37C148.313 460.37 136.793 456.089 128.307 448.35C119.82 440.609 114.328 429.37 112.496 415.383L111.504 415.513C113.361 429.687 118.94 441.159 127.633 449.089C136.329 457.02 148.101 461.37 162.275 461.37V460.37ZM305.259 460.37H162.275V461.37H305.259V460.37ZM349.5 415.448C349.5 430.26 342.21 441.938 333.015 449.7C323.799 457.479 312.748 461.26 305.319 460.373L305.2 461.366C312.992 462.296 324.311 458.355 333.66 450.464C343.03 442.555 350.5 430.614 350.5 415.448H349.5ZM349.5 325.967V415.448H350.5V325.967H349.5ZM305.244 281.5C319.612 281.949 330.67 288.683 338.145 297.505C345.629 306.338 349.5 317.241 349.5 325.967H350.5C350.5 316.98 346.529 305.853 338.908 296.858C331.277 287.852 319.965 280.959 305.275 280.5L305.244 281.5ZM162.275 281.5H305.259V280.5H162.275V281.5ZM112.482 320.196C117.288 302.839 126.656 293.221 136.34 287.911C146.041 282.591 156.096 281.575 162.281 281.5L162.269 280.5C156.001 280.576 145.761 281.604 135.859 287.034C125.94 292.474 116.397 302.311 111.518 319.929L112.482 320.196Z" fill="#1394B2"/>
<path d="M47.1152 173C51.3085 60.8598 148.115 1 230.495 1C326.615 1 408.115 69.5 414.615 173C421.115 276.5 328.604 347.5 233.115 351C143.889 354.271 43.114 280 47.1152 173Z" fill="#035593" stroke="black"/>
<path d="M67.1146 169C74.1149 57 181.115 19.5 230.115 19.5C283.115 19.5 389.115 65.5 395.615 169C402.115 272.5 309.604 331 234.615 331C210.579 331 58.1456 312.5 67.1146 169Z" fill="#2CFDDC" stroke="black"/>
<path d="M248.008 21.1432C160.508 11.1433 106.508 69.1432 88.0083 101.643C84.3083 108.143 91.0083 121.643 104.508 115.143C143.708 49.1432 219.175 38.9765 252.008 42.1432C260.508 36.1433 258.105 22.2971 248.008 21.1432Z" fill="white" stroke="#FDFFFF"/>
<path d="M146.821 197.816L197.311 149.322C199.784 146.946 198.367 143.832 194.392 141.292C183.831 130.685 159.048 105.735 144.397 90.7866C143.411 69.5756 161.136 67.1204 170.122 68.5442C189.597 87.741 231.22 128.762 241.915 139.27C256.662 144.618 247.474 149.993 241.284 152.264C222.096 170.905 177.141 215.893 168.574 222.536C160.006 229.18 138.656 214.235 146.821 197.816Z" fill="#FB3E81"/>
<path d="M146.821 197.816L197.311 149.322C199.784 146.946 198.367 143.832 194.392 141.292C183.831 130.685 159.048 105.735 144.397 90.7866C143.411 69.5756 161.136 67.1204 170.122 68.5442C189.597 87.741 231.22 128.762 241.915 139.27C256.662 144.618 247.474 149.993 241.284 152.264C222.096 170.905 177.141 215.893 168.574 222.536C160.006 229.18 138.656 214.235 146.821 197.816Z" fill="#FB3E81"/>
<path d="M146.821 197.816L197.311 149.322C199.784 146.946 198.367 143.832 194.392 141.292C183.831 130.685 159.048 105.735 144.397 90.7866C143.411 69.5756 161.136 67.1204 170.122 68.5442C189.597 87.741 231.22 128.762 241.915 139.27C256.662 144.618 247.474 149.993 241.284 152.264C222.096 170.905 177.141 215.893 168.574 222.536C160.006 229.18 138.656 214.235 146.821 197.816Z" stroke="#FB3E81"/>
<path d="M304.308 197.827L251.757 151.585C249.183 149.32 250.462 146.145 254.319 143.432C264.398 132.368 288.047 106.345 302.019 90.7636C302.07 69.5237 284.263 67.8493 275.352 69.6671C256.751 89.7068 216.993 132.529 206.777 143.5C192.286 149.493 201.697 154.46 207.978 156.458C227.959 174.243 274.828 217.224 283.675 223.486C292.522 229.748 313.184 213.876 304.308 197.827Z" fill="#FB3E81"/>
<path d="M304.308 197.827L251.757 151.585C249.183 149.32 250.462 146.145 254.319 143.432C264.398 132.368 288.047 106.345 302.019 90.7636C302.07 69.5237 284.263 67.8493 275.352 69.6671C256.751 89.7068 216.993 132.529 206.777 143.5C192.286 149.493 201.697 154.46 207.978 156.458C227.959 174.243 274.828 217.224 283.675 223.486C292.522 229.748 313.184 213.876 304.308 197.827Z" fill="#FB3E81"/>
<path d="M304.308 197.827L251.757 151.585C249.183 149.32 250.462 146.145 254.319 143.432C264.398 132.368 288.047 106.345 302.019 90.7636C302.07 69.5237 284.263 67.8493 275.352 69.6671C256.751 89.7068 216.993 132.529 206.777 143.5C192.286 149.493 201.697 154.46 207.978 156.458C227.959 174.243 274.828 217.224 283.675 223.486C292.522 229.748 313.184 213.876 304.308 197.827Z" stroke="#FB3E81"/>
<path d="M175.371 268.301C174.508 268.301 173.646 267.972 172.987 267.314C171.671 265.997 171.671 263.863 172.987 262.547C203.051 232.484 251.966 232.485 282.028 262.547C283.345 263.863 283.345 265.998 282.028 267.314C280.711 268.63 278.577 268.63 277.261 267.314C249.827 239.88 205.189 239.879 177.755 267.314C177.097 267.972 176.234 268.301 175.371 268.301Z" fill="#4D4D4D"/>
<path d="M192.604 254.128L215.314 215L171.296 234.398C168.92 230.833 164.864 228.484 160.258 228.484C152.936 228.484 147 234.419 147 241.742C147 246.164 149.167 250.078 152.495 252.487C149.755 255.709 148.098 259.88 148.098 264.442C148.098 274.64 156.366 282.908 166.564 282.908C171.761 282.908 176.453 280.758 179.809 277.302C181.54 278.131 183.479 278.596 185.526 278.596C192.848 278.596 198.784 272.659 198.784 265.337C198.785 260.617 196.317 256.477 192.604 254.128Z" fill="#E6E6E6"/>
<path d="M304.817 252.487C307.559 255.71 309.213 259.881 309.213 264.442C309.213 274.64 300.948 282.905 290.746 282.905C285.55 282.905 280.858 280.757 277.501 277.301C275.77 278.132 273.833 278.595 271.784 278.595C264.462 278.595 258.526 272.658 258.526 265.337C258.526 260.618 260.993 256.478 264.71 254.128L242 215L286.018 234.398C288.391 230.834 292.449 228.483 297.056 228.483C303.241 228.483 308.44 232.721 309.901 238.452C310.171 239.503 310.315 240.604 310.315 241.741C310.314 246.164 308.143 250.079 304.817 252.487Z" fill="#E6E6E6"/>
<path d="M212.37 219.84C210.897 219.84 209.543 218.866 209.126 217.378C208.624 215.585 209.669 213.725 211.461 213.222C222.031 210.259 233.203 210.26 243.771 213.222C245.563 213.725 246.609 215.585 246.107 217.378C245.604 219.17 243.743 220.217 241.951 219.714C232.574 217.084 222.66 217.084 213.281 219.714C212.977 219.799 212.671 219.84 212.37 219.84Z" fill="#E09B2D"/>
</svg>
