<svg width="805" height="801" viewBox="0 0 805 801" fill="none" xmlns="http://www.w3.org/2000/svg">
<path d="M528.281 508.031H276.719V547.094H528.281V508.031Z" fill="#FB2E7B"/>
<path d="M528.281 566.625H276.719V722.875H528.281V566.625Z" fill="#FB2E7B"/>
<path d="M150.937 390.844C220.293 390.844 276.719 434.652 276.719 488.5H528.281C528.281 434.652 584.706 390.844 654.062 390.844C655.798 390.844 657.433 391.195 659.169 391.254L646.364 316.762C636.377 258.539 572.405 215.062 496.76 215.062H308.239C232.594 215.062 168.622 258.539 158.635 316.762L145.831 391.254C147.566 391.195 149.202 390.844 150.937 390.844ZM375.809 354.633C370.904 350.824 370.904 344.633 375.809 340.824C380.714 337.016 388.689 337.016 393.594 340.824L402.5 347.738L411.405 340.824C416.311 337.016 424.285 337.016 429.191 340.824C434.096 344.633 434.096 350.824 429.191 354.633L420.285 361.547L429.191 368.461C434.096 372.27 434.096 378.461 429.191 382.27C424.285 386.078 416.311 386.078 411.405 382.27L402.5 375.355L393.594 382.27C388.689 386.078 380.714 386.078 375.809 382.27C370.904 378.461 370.904 372.27 375.809 368.461L384.714 361.547L375.809 354.633Z" fill="#FB2E7B"/>
<path d="M754.688 488.5C754.688 447.621 714.085 414.438 662.565 411.039L662.54 410.883C659.723 410.668 656.955 410.375 654.062 410.375C598.568 410.375 553.438 445.414 553.438 488.5V722.875H603.75V742.406C603.75 753.187 615.02 761.938 628.906 761.938H679.219C693.105 761.938 704.375 753.187 704.375 742.406V722.875H725.028C740.575 722.875 752.398 712.035 749.832 700.141L717.33 548.793C739.946 534.457 754.688 512.914 754.688 488.5Z" fill="#FB2E7B"/>
<path d="M251.562 488.5C251.562 445.414 206.432 410.375 150.938 410.375C148.045 410.375 145.277 410.668 142.46 410.883L142.435 411.039C90.9147 414.438 50.3125 447.602 50.3125 488.5C50.3125 512.934 65.0541 534.477 87.6695 548.793L55.1928 700.121C52.6269 712.035 64.4503 722.875 79.9969 722.875H100.625V742.406C100.625 753.187 111.895 761.938 125.781 761.938H176.094C189.98 761.938 201.25 753.187 201.25 742.406V722.875H251.562V488.5Z" fill="#FB2E7B"/>
<path d="M528.281 508.031H276.719V547.094H528.281V508.031Z" fill="#FB2E7B"/>
<path d="M528.281 566.625H276.719V722.875H528.281V566.625Z" fill="#FB2E7B"/>
<path d="M150.937 390.844C220.293 390.844 276.719 434.652 276.719 488.5H528.281C528.281 434.652 584.706 390.844 654.062 390.844C655.798 390.844 657.433 391.195 659.169 391.254L646.364 316.762C636.377 258.539 572.405 215.062 496.76 215.062H308.239C232.594 215.062 168.622 258.539 158.635 316.762L145.831 391.254C147.566 391.195 149.202 390.844 150.937 390.844ZM375.809 354.633C370.904 350.824 370.904 344.633 375.809 340.824C380.714 337.016 388.689 337.016 393.594 340.824L402.5 347.738L411.405 340.824C416.311 337.016 424.285 337.016 429.191 340.824C434.096 344.633 434.096 350.824 429.191 354.633L420.285 361.547L429.191 368.461C434.096 372.27 434.096 378.461 429.191 382.27C424.285 386.078 416.311 386.078 411.405 382.27L402.5 375.355L393.594 382.27C388.689 386.078 380.714 386.078 375.809 382.27C370.904 378.461 370.904 372.27 375.809 368.461L384.714 361.547L375.809 354.633Z" fill="#FB2E7B"/>
<path d="M754.688 488.5C754.688 447.621 714.085 414.438 662.565 411.039L662.54 410.883C659.723 410.668 656.955 410.375 654.062 410.375C598.568 410.375 553.438 445.414 553.438 488.5V722.875H603.75V742.406C603.75 753.187 615.02 761.938 628.906 761.938H679.219C693.105 761.938 704.375 753.187 704.375 742.406V722.875H725.028C740.575 722.875 752.398 712.035 749.832 700.141L717.33 548.793C739.946 534.457 754.688 512.914 754.688 488.5Z" fill="#FB2E7B"/>
<path d="M251.562 488.5C251.562 445.414 206.432 410.375 150.938 410.375C148.045 410.375 145.277 410.668 142.46 410.883L142.435 411.039C90.9147 414.438 50.3125 447.602 50.3125 488.5C50.3125 512.934 65.0541 534.477 87.6695 548.793L55.1928 700.121C52.6269 712.035 64.4503 722.875 79.9969 722.875H100.625V742.406C100.625 753.187 111.895 761.938 125.781 761.938H176.094C189.98 761.938 201.25 753.187 201.25 742.406V722.875H251.562V488.5Z" fill="#FB2E7B"/>
<path d="M597.549 363.597C573.941 324.815 537.944 301.708 522.896 295.002L471.126 408.356C474.846 415.388 490.317 446.82 504.969 472.311C531.987 507.15 569.077 512.59 593.792 509.878C650.19 496.836 643.239 447.629 632.714 424.656C630.097 419.127 619.399 399.175 597.549 363.597Z" fill="#091336" stroke="#031D4B"/>
<path d="M585.35 380.025C567.78 348.001 538.746 325.408 526.426 318.115L491.401 403.616C501.895 422.742 524.351 463.064 530.227 471.347C537.572 481.701 569.975 493 586.152 489.889C615.475 482.082 617.091 451.52 614.234 437.215C609.424 427.186 596.913 401.706 585.35 380.025Z" fill="#2DEFD0" stroke="#2DEFD0"/>
<path d="M584.287 491.037C607.64 486.903 604.803 471.574 600.465 464.426C595.895 455.339 580.166 448.656 570.495 450.739C559.537 451.234 548.118 463.018 549.877 475.321C552.416 482.981 568.499 491.826 584.287 491.037Z" fill="#FB2E7B" stroke="#FB2E7B"/>
<path d="M604.551 417.293L612.77 434.547C557.241 412.786 527.158 436.946 519.057 451.745C517.774 449.659 513.597 442.552 507.154 430.81C539.34 399.11 585.496 408.591 604.551 417.293Z" fill="#0B1232" stroke="#0B1231"/>
<path d="M578.749 416.509L584.618 425.689C562.21 423.055 541.934 431.028 534.597 435.344C533.436 433.48 530.601 428.819 528.551 425.083C542.155 414.096 567.685 414.789 578.749 416.509Z" fill="#FB3E81" stroke="#FB3E81"/>
<path d="M568.842 424.984L563.906 415.23L556.845 416.005L562.336 426.013L568.842 424.984Z" fill="#50094F" stroke="#50094F"/>
<path d="M541.6 418.542L546.524 429.791L534.231 434.676L528.551 425.083L541.6 418.542Z" fill="#50094F" stroke="#50094F"/>
<path d="M230.939 357.044C258.933 324.985 295.223 310.992 309.869 308.003L336.026 429.842C331.452 435.786 312.036 462.623 294.409 483.898C264.065 511.345 229.936 507.973 208.319 499.589C160.209 473.821 175.163 427.785 188.653 407.987C191.975 403.243 205.084 386.412 230.939 357.044Z" fill="#091336" stroke="#031D4B"/>
<path d="M238.928 375.797C260.325 348.875 290.297 333.757 302.607 329.564L318.74 420.529C305.96 436.607 278.721 470.427 271.996 477.08C263.59 485.397 232.612 488.792 218.7 482.01C193.868 467.618 197.851 437.644 202.947 424.456C209.028 415.863 224.739 394.1 238.928 375.797Z" fill="#2DEFD0" stroke="#2DEFD0"/>
<path d="M220.164 483.556C200.018 474.113 205.277 459.928 210.425 454.016C216.125 446.28 231.375 443.471 239.652 447.741C249.362 450.773 257.479 464.846 253.721 476.352C250.091 483.179 234.14 487.999 220.164 483.556Z" fill="#FB2E7B" stroke="#FB2E7B"/>
<path d="M215.142 407.417L204.729 422.212C258.243 414.073 280.85 444.478 285.465 460.699C286.983 458.977 291.98 453.067 299.826 443.196C276.677 404.998 233.725 403.428 215.142 407.417Z" fill="#0B1232" stroke="#0B1231"/>
<path d="M238.351 412.668L231.473 420.192C251.976 422.861 268.689 435.305 274.483 441.194C275.852 439.66 279.215 435.806 281.711 432.665C271.499 418.855 248.549 413.58 238.351 412.668Z" fill="#FB3E81" stroke="#FB3E81"/>
<path d="M245.704 423.184L251.849 414.887L258.026 417.283L251.339 425.696L245.704 423.184Z" fill="#50094F" stroke="#50094F"/>
<path d="M271.206 423.291L264.805 433.038L274.929 440.633L281.711 432.665L271.206 423.291Z" fill="#50094F" stroke="#50094F"/>
<path d="M248.996 468.5V354C256.996 315.6 290.496 283 319.996 283H492.996C524.996 289 558.996 309.5 567.496 360C571.009 380.873 567.496 430.5 567.496 468.5C561.996 508.5 526.496 547.5 492.996 547.5H319.996C283.596 539.1 248.996 501 248.996 468.5Z" fill="#002553" stroke="#002553"/>
<path d="M267.996 465V357C275.996 318.6 304.996 308.667 318.496 308.5H501.496C533.496 314.5 544.829 345.333 546.496 360V471C532.896 515 500.829 525.333 486.496 525H318.496C282.096 516.6 269.663 481.5 267.996 465Z" fill="#2CFDDC" stroke="#2CFDDC"/>
<path fill-rule="evenodd" clip-rule="evenodd" d="M275.996 361V466C279.996 497 299.996 516 330.496 516H485.496C501.996 518 533.996 499 533.996 466V367.5C533.996 348 516.996 319 485.496 318H330.496C316.996 318.167 286.496 322.5 275.996 361ZM285.996 366.063V461.448C289.686 489.609 308.136 506.87 336.271 506.87H479.256C494.477 508.686 523.996 491.426 523.996 461.448V371.967C523.996 354.253 508.314 327.908 479.256 327H336.271C323.818 327.151 295.682 331.088 285.996 366.063Z" fill="#1394B2"/>
<path d="M275.996 466H275.496V466.032L275.5 466.064L275.996 466ZM275.996 361L275.514 360.868L275.496 360.933V361H275.996ZM485.496 516L485.556 515.504L485.526 515.5H485.496V516ZM485.496 318L485.512 317.5L485.504 317.5H485.496V318ZM330.496 318V317.5L330.49 317.5L330.496 318ZM285.996 461.448H285.496V461.481L285.5 461.513L285.996 461.448ZM285.996 366.063L285.514 365.929L285.496 365.995V366.063H285.996ZM479.256 506.87L479.315 506.373L479.286 506.37H479.256V506.87ZM479.256 327L479.271 326.5L479.264 326.5H479.256V327ZM336.271 327V326.5L336.265 326.5L336.271 327ZM276.496 466V361H275.496V466H276.496ZM330.496 515.5C315.354 515.5 302.856 510.786 293.648 502.258C284.438 493.728 278.48 481.344 276.492 465.936L275.5 466.064C277.512 481.656 283.554 494.272 292.969 502.992C302.386 511.714 315.138 516.5 330.496 516.5V515.5ZM485.496 515.5H330.496V516.5H485.496V515.5ZM533.496 466C533.496 482.326 525.583 495.195 515.608 503.745C505.612 512.314 493.622 516.481 485.556 515.504L485.436 516.496C493.871 517.519 506.131 513.186 516.259 504.505C526.409 495.805 534.496 482.674 534.496 466H533.496ZM533.496 367.5V466H534.496V367.5H533.496ZM485.48 318.5C501.066 318.995 513.064 326.412 521.175 336.133C529.295 345.864 533.496 357.878 533.496 367.5H534.496C534.496 357.622 530.197 345.386 521.943 335.492C513.678 325.588 501.426 318.005 485.512 317.5L485.48 318.5ZM330.496 318.5H485.496V317.5H330.496V318.5ZM276.478 361.132C281.693 342.01 291.858 331.413 302.364 325.562C312.888 319.702 323.794 318.583 330.502 318.5L330.49 317.5C323.698 317.584 312.604 318.715 301.878 324.688C291.134 330.671 280.799 341.49 275.514 360.868L276.478 361.132ZM286.496 461.448V366.063H285.496V461.448H286.496ZM336.271 506.37C322.309 506.37 310.789 502.089 302.303 494.35C293.816 486.609 288.325 475.37 286.492 461.383L285.5 461.513C287.358 475.687 292.936 487.159 301.63 495.089C310.325 503.02 322.098 507.37 336.271 507.37V506.37ZM479.256 506.37H336.271V507.37H479.256V506.37ZM523.496 461.448C523.496 476.26 516.206 487.938 507.011 495.7C497.795 503.479 486.744 507.26 479.315 506.373L479.197 507.366C486.989 508.296 498.307 504.355 507.656 496.464C517.026 488.555 524.496 476.614 524.496 461.448H523.496ZM523.496 371.967V461.448H524.496V371.967H523.496ZM479.24 327.5C493.608 327.949 504.666 334.683 512.141 343.505C519.626 352.338 523.496 363.241 523.496 371.967H524.496C524.496 362.98 520.525 351.853 512.904 342.858C505.273 333.852 493.962 326.959 479.271 326.5L479.24 327.5ZM336.271 327.5H479.256V326.5H336.271V327.5ZM286.478 366.196C291.285 348.839 300.653 339.221 310.336 333.911C320.037 328.591 330.092 327.575 336.277 327.5L336.265 326.5C329.997 326.576 319.757 327.604 309.855 333.034C299.936 338.474 290.393 348.311 285.514 365.929L286.478 366.196Z" fill="#1394B2"/>
<path d="M323.821 465.816L374.311 417.322C376.784 414.946 375.367 411.832 371.392 409.292C360.831 398.685 336.048 373.735 321.397 358.787C320.411 337.576 338.136 335.12 347.122 336.544C366.597 355.741 408.22 396.762 418.915 407.27C433.662 412.618 424.474 417.993 418.284 420.264C399.096 438.905 354.141 483.893 345.574 490.536C337.006 497.18 315.656 482.235 323.821 465.816Z" fill="#FB3E81"/>
<path d="M323.821 465.816L374.311 417.322C376.784 414.946 375.367 411.832 371.392 409.292C360.831 398.685 336.048 373.735 321.397 358.787C320.411 337.576 338.136 335.12 347.122 336.544C366.597 355.741 408.22 396.762 418.915 407.27C433.662 412.618 424.474 417.993 418.284 420.264C399.096 438.905 354.141 483.893 345.574 490.536C337.006 497.18 315.656 482.235 323.821 465.816Z" fill="#FB3E81"/>
<path d="M323.821 465.816L374.311 417.322C376.784 414.946 375.367 411.832 371.392 409.292C360.831 398.685 336.048 373.735 321.397 358.787C320.411 337.576 338.136 335.12 347.122 336.544C366.597 355.741 408.22 396.762 418.915 407.27C433.662 412.618 424.474 417.993 418.284 420.264C399.096 438.905 354.141 483.893 345.574 490.536C337.006 497.18 315.656 482.235 323.821 465.816Z" stroke="#FB3E81"/>
<path d="M481.308 465.827L428.758 419.585C426.184 417.32 427.462 414.145 431.319 411.432C441.398 400.368 465.047 374.345 479.019 358.764C479.071 337.524 461.263 335.849 452.352 337.667C433.751 357.707 393.994 400.529 383.777 411.5C369.287 417.493 378.698 422.46 384.978 424.458C404.959 442.243 451.828 485.224 460.675 491.486C469.522 497.748 490.185 481.876 481.308 465.827Z" fill="#FB3E81"/>
<path d="M481.308 465.827L428.758 419.585C426.184 417.32 427.462 414.145 431.319 411.432C441.398 400.368 465.047 374.345 479.019 358.764C479.071 337.524 461.263 335.849 452.352 337.667C433.751 357.707 393.994 400.529 383.777 411.5C369.287 417.493 378.698 422.46 384.978 424.458C404.959 442.243 451.828 485.224 460.675 491.486C469.522 497.748 490.185 481.876 481.308 465.827Z" fill="#FB3E81"/>
<path d="M481.308 465.827L428.758 419.585C426.184 417.32 427.462 414.145 431.319 411.432C441.398 400.368 465.047 374.345 479.019 358.764C479.071 337.524 461.263 335.849 452.352 337.667C433.751 357.707 393.994 400.529 383.777 411.5C369.287 417.493 378.698 422.46 384.978 424.458C404.959 442.243 451.828 485.224 460.675 491.486C469.522 497.748 490.185 481.876 481.308 465.827Z" stroke="#FB3E81"/>
<path d="M463.438 644.571C492.707 644.251 516.112 614.445 515.714 577.996C515.316 541.547 491.266 512.259 461.997 512.578C432.727 512.898 409.323 542.704 409.72 579.153C410.118 615.602 434.168 644.89 463.438 644.571Z" fill="#545454"/>
<path d="M345.598 642.571C374.867 642.251 398.272 612.445 397.874 575.996C397.476 539.547 373.426 510.259 344.157 510.578C314.888 510.898 291.483 540.704 291.881 577.153C292.278 613.602 316.328 642.89 345.598 642.571Z" fill="#545454"/>
<path d="M219.112 173C223.305 60.8598 320.112 1 402.492 1C498.612 1 580.112 69.5 586.612 173C593.112 276.5 500.601 347.5 405.112 351C315.886 354.271 215.111 280 219.112 173Z" fill="#035593" stroke="black"/>
<path d="M239.112 169C246.112 57 353.112 19.5 402.112 19.5C455.112 19.5 561.112 65.5 567.612 169C574.112 272.5 481.601 331 406.612 331C382.577 331 230.143 312.5 239.112 169Z" fill="#2CFDDC" stroke="black"/>
<path d="M420.005 21.1432C332.505 11.1433 278.505 69.1432 260.005 101.643C256.305 108.143 263.005 121.643 276.505 115.143C315.705 49.1432 391.172 38.9765 424.005 42.1432C432.505 36.1433 430.102 22.2971 420.005 21.1432Z" fill="white" stroke="#FDFFFF"/>
<path d="M304.715 135.425C304.715 158.525 317.145 192.125 355.106 192.125C393.067 192.125 405.497 158.525 405.497 135.425C405.497 64.025 304.715 64.025 304.715 135.425Z" fill="#DDE8E3"/>
<path d="M405.497 135.425C405.497 158.525 417.926 192.125 455.887 192.125C493.848 192.125 506.278 158.525 506.278 135.425C506.278 64.025 405.497 64.025 405.497 135.425Z" fill="#DDE8E3"/>
<path d="M307.403 137.263C307.403 157.213 315.465 187.925 347.715 187.925C379.965 187.925 388.028 156.95 388.028 137.263C387.692 69.0125 307.403 69.0125 307.403 137.263Z" fill="white"/>
<path d="M408.184 137.263C408.184 157.213 416.247 187.925 448.497 187.925C480.747 187.925 488.809 156.95 488.809 137.263C488.473 69.0125 408.184 69.0125 408.184 137.263Z" fill="white"/>
<path d="M319 158.925C319 175.2 333.781 187.8 351.586 187.8C369.727 187.8 384.172 175.2 384.172 158.925C384.172 119.025 319 119.025 319 158.925Z" fill="#493B30"/>
<path d="M423 158.925C423 175.2 437.781 187.8 455.586 187.8C473.727 187.8 488.172 175.2 488.172 158.925C488.172 119.025 423 119.025 423 158.925Z" fill="#493B30"/>
<path d="M402.5 303C428.734 303 450 284.644 450 262C450 239.356 428.734 221 402.5 221C376.266 221 355 239.356 355 262C355 284.644 376.266 303 402.5 303Z" fill="#545454"/>
</svg>
