<svg width="805" height="801" viewBox="0 0 805 801" fill="none" xmlns="http://www.w3.org/2000/svg">
<path d="M528.28 508.031H276.718V547.094H528.28V508.031Z" fill="#FB2E7B"/>
<path d="M528.28 566.625H276.718V722.875H528.28V566.625Z" fill="#FB2E7B"/>
<path d="M150.936 390.844C220.292 390.844 276.718 434.652 276.718 488.5H528.28C528.28 434.652 584.706 390.844 654.061 390.844C655.797 390.844 657.432 391.195 659.168 391.254L646.363 316.762C636.376 258.539 572.404 215.062 496.759 215.062H308.238C232.594 215.062 168.621 258.539 158.634 316.762L145.83 391.254C147.565 391.195 149.201 390.844 150.936 390.844ZM375.808 354.633C370.903 350.824 370.903 344.633 375.808 340.824C380.714 337.016 388.688 337.016 393.593 340.824L402.499 347.738L411.404 340.824C416.31 337.016 424.284 337.016 429.19 340.824C434.095 344.633 434.095 350.824 429.19 354.633L420.284 361.547L429.19 368.461C434.095 372.27 434.095 378.461 429.19 382.27C424.284 386.078 416.31 386.078 411.404 382.27L402.499 375.355L393.593 382.27C388.688 386.078 380.714 386.078 375.808 382.27C370.903 378.461 370.903 372.27 375.808 368.461L384.713 361.547L375.808 354.633Z" fill="#FB2E7B"/>
<path d="M754.687 488.5C754.687 447.621 714.084 414.438 662.564 411.039L662.539 410.883C659.722 410.668 656.954 410.375 654.062 410.375C598.567 410.375 553.437 445.414 553.437 488.5V722.875H603.749V742.406C603.749 753.187 615.019 761.938 628.905 761.938H679.218C693.104 761.938 704.374 753.187 704.374 742.406V722.875H725.027C740.574 722.875 752.397 712.035 749.831 700.141L717.329 548.793C739.945 534.457 754.687 512.914 754.687 488.5Z" fill="#FB2E7B"/>
<path d="M251.562 488.5C251.562 445.414 206.431 410.375 150.937 410.375C148.044 410.375 145.276 410.668 142.459 410.883L142.434 411.039C90.9137 414.438 50.3115 447.602 50.3115 488.5C50.3115 512.934 65.0531 534.477 87.6686 548.793L55.1918 700.121C52.6259 712.035 64.4493 722.875 79.9959 722.875H100.624V742.406C100.624 753.187 111.894 761.938 125.78 761.938H176.093C189.979 761.938 201.249 753.187 201.249 742.406V722.875H251.562V488.5Z" fill="#FB2E7B"/>
<path d="M528.28 508.031H276.718V547.094H528.28V508.031Z" fill="#FB2E7B"/>
<path d="M528.28 566.625H276.718V722.875H528.28V566.625Z" fill="#FB2E7B"/>
<path d="M150.936 390.844C220.292 390.844 276.718 434.652 276.718 488.5H528.28C528.28 434.652 584.706 390.844 654.061 390.844C655.797 390.844 657.432 391.195 659.168 391.254L646.363 316.762C636.376 258.539 572.404 215.062 496.759 215.062H308.238C232.594 215.062 168.621 258.539 158.634 316.762L145.83 391.254C147.565 391.195 149.201 390.844 150.936 390.844ZM375.808 354.633C370.903 350.824 370.903 344.633 375.808 340.824C380.714 337.016 388.688 337.016 393.593 340.824L402.499 347.738L411.404 340.824C416.31 337.016 424.284 337.016 429.19 340.824C434.095 344.633 434.095 350.824 429.19 354.633L420.284 361.547L429.19 368.461C434.095 372.27 434.095 378.461 429.19 382.27C424.284 386.078 416.31 386.078 411.404 382.27L402.499 375.355L393.593 382.27C388.688 386.078 380.714 386.078 375.808 382.27C370.903 378.461 370.903 372.27 375.808 368.461L384.713 361.547L375.808 354.633Z" fill="#FB2E7B"/>
<path d="M754.687 488.5C754.687 447.621 714.084 414.438 662.564 411.039L662.539 410.883C659.722 410.668 656.954 410.375 654.062 410.375C598.567 410.375 553.437 445.414 553.437 488.5V722.875H603.749V742.406C603.749 753.187 615.019 761.938 628.905 761.938H679.218C693.104 761.938 704.374 753.187 704.374 742.406V722.875H725.027C740.574 722.875 752.397 712.035 749.831 700.141L717.329 548.793C739.945 534.457 754.687 512.914 754.687 488.5Z" fill="#FB2E7B"/>
<path d="M251.562 488.5C251.562 445.414 206.431 410.375 150.937 410.375C148.044 410.375 145.276 410.668 142.459 410.883L142.434 411.039C90.9137 414.438 50.3115 447.602 50.3115 488.5C50.3115 512.934 65.0531 534.477 87.6686 548.793L55.1918 700.121C52.6259 712.035 64.4493 722.875 79.9959 722.875H100.624V742.406C100.624 753.187 111.894 761.938 125.78 761.938H176.093C189.979 761.938 201.249 753.187 201.249 742.406V722.875H251.562V488.5Z" fill="#FB2E7B"/>
<path d="M205.183 386.58C241.618 360.071 281.2 355.55 296.436 356.602L288.353 496.163C282.203 501.258 255.657 524.626 232.413 542.495C194.947 563.323 162.31 549.679 143.372 534.272C103.199 492.288 130.685 446.829 149.449 429.347C154.034 425.183 171.599 410.801 205.183 386.58Z" fill="#091336" stroke="#031D4B"/>
<path d="M207.837 409.22C236.357 386.341 270.035 378.752 283.309 377.817L273.932 481.018C256.9 494.682 220.719 523.318 212.257 528.552C201.68 535.094 170.265 529.697 158.462 518.281C138.03 495.429 150.266 464.146 158.938 451.361C167.306 443.839 188.8 424.88 207.837 409.22Z" fill="#2DEFD0" stroke="#2DEFD0"/>
<path d="M159.473 520.384C142.277 504.261 151.387 490.445 158.091 485.552C165.845 478.846 181.626 480.272 188.583 487.318C197.294 493.444 201.373 511.056 194.483 522.412C189.017 528.739 171.989 529.286 159.473 520.384Z" fill="#FB2E7B" stroke="#FB2E7B"/>
<path d="M175.664 436.486L161.316 449.454C216.215 456.313 230.015 495.85 230.053 514.761C232.024 513.342 238.58 508.407 249.037 500.018C236.867 451.888 195.051 437.609 175.664 436.486Z" fill="#0B1232" stroke="#0B1231"/>
<path d="M197.037 448.968L188.183 455.099C207.611 463.992 220.598 482.359 224.663 490.43C226.436 489.17 230.813 485.982 234.14 483.313C227.928 465.373 206.816 452.941 197.037 448.968Z" fill="#FB3E81" stroke="#FB3E81"/>
<path d="M201.352 462.505L209.7 455.323L215.111 459.725L206.198 466.874L201.352 462.505Z" fill="#50094F" stroke="#50094F"/>
<path d="M226.408 470.089L217.407 478.767L225.258 489.954L234.141 483.313L226.408 470.089Z" fill="#50094F" stroke="#50094F"/>
<path d="M607.665 415.272C577.956 380.941 538.625 364.121 522.674 360.003L490.411 480.369C495.245 486.687 515.713 515.12 534.388 537.83C566.807 567.708 604.286 566.924 628.21 560.152C681.665 537.942 666.654 490.568 652.466 469.657C648.968 464.639 635.111 446.737 607.665 415.272Z" fill="#091336" stroke="#031D4B"/>
<path d="M598.359 433.496C575.723 404.827 543.346 387.36 529.987 382.21L509.621 472.334C523.14 489.456 551.97 525.497 559.137 532.692C568.097 541.686 601.924 547.456 617.362 541.706C644.985 529.146 641.513 498.74 636.323 485.107C629.917 476.013 613.356 452.959 598.359 433.496Z" fill="#2DEFD0" stroke="#2DEFD0"/>
<path d="M615.713 543.148C638.057 535.199 632.718 520.553 627.256 514.224C621.243 506.02 604.624 502.036 595.432 505.693C584.707 507.998 575.399 521.513 579.174 533.354C582.947 540.486 600.274 546.543 615.713 543.148Z" fill="#FB2E7B" stroke="#FB2E7B"/>
<path d="M623.472 467.065L634.437 482.717C576.07 470.463 550.407 499.275 544.872 515.213C543.261 513.369 537.963 507.052 529.663 496.54C556.149 459.944 603.238 461.642 623.472 467.065Z" fill="#0B1232" stroke="#0B1231"/>
<path d="M597.897 470.569L605.207 478.65C582.672 479.767 563.998 490.99 557.478 496.462C556.024 494.817 552.456 490.69 549.815 487.345C561.409 474.256 586.701 470.707 597.897 470.569Z" fill="#FB3E81" stroke="#FB3E81"/>
<path d="M589.532 480.57L583.048 471.769L576.212 473.703L583.286 482.662L589.532 480.57Z" fill="#50094F" stroke="#50094F"/>
<path d="M561.599 478.732L568.32 489.009L557.007 495.865L549.815 487.345L561.599 478.732Z" fill="#50094F" stroke="#50094F"/>
<path d="M238.996 524.5V410C246.996 371.6 280.496 339 309.996 339H482.996C514.996 345 548.996 365.5 557.496 416C561.009 436.873 557.496 486.5 557.496 524.5C551.996 564.5 516.496 603.5 482.996 603.5H309.996C273.596 595.1 238.996 557 238.996 524.5Z" fill="#002553" stroke="#002553"/>
<path d="M257.996 521V413C265.996 374.6 294.996 364.667 308.496 364.5H491.496C523.496 370.5 534.829 401.333 536.496 416V527C522.896 571 490.829 581.333 476.496 581H308.496C272.096 572.6 259.662 537.5 257.996 521Z" fill="#2CFDDC" stroke="#2CFDDC"/>
<path fill-rule="evenodd" clip-rule="evenodd" d="M265.996 417V522C269.996 553 289.996 572 320.496 572H475.496C491.996 574 523.996 555 523.996 522V423.5C523.996 404 506.996 375 475.496 374H320.496C306.996 374.167 276.496 378.5 265.996 417ZM275.996 422.063V517.448C279.686 545.609 298.135 562.87 326.271 562.87H469.255C484.476 564.686 513.996 547.426 513.996 517.448V427.967C513.996 410.253 498.313 383.908 469.255 383H326.271C313.817 383.151 285.682 387.088 275.996 422.063Z" fill="#1394B2"/>
<path d="M265.996 522H265.496V522.032L265.5 522.064L265.996 522ZM265.996 417L265.513 416.868L265.496 416.933V417H265.996ZM475.496 572L475.556 571.504L475.526 571.5H475.496V572ZM475.496 374L475.511 373.5L475.504 373.5H475.496V374ZM320.496 374V373.5L320.489 373.5L320.496 374ZM275.996 517.448H275.496V517.481L275.5 517.513L275.996 517.448ZM275.996 422.063L275.514 421.929L275.496 421.995V422.063H275.996ZM469.255 562.87L469.315 562.373L469.285 562.37H469.255V562.87ZM469.255 383L469.271 382.5L469.263 382.5H469.255V383ZM326.271 383V382.5L326.265 382.5L326.271 383ZM266.496 522V417H265.496V522H266.496ZM320.496 571.5C305.353 571.5 292.855 566.786 283.648 558.258C274.438 549.728 268.48 537.344 266.491 521.936L265.5 522.064C267.512 537.656 273.554 550.272 282.968 558.992C292.386 567.714 305.138 572.5 320.496 572.5V571.5ZM475.496 571.5H320.496V572.5H475.496V571.5ZM523.496 522C523.496 538.326 515.583 551.195 505.608 559.745C495.611 568.314 483.621 572.481 475.556 571.504L475.435 572.496C483.87 573.519 496.13 569.186 506.259 560.505C516.408 551.805 524.496 538.674 524.496 522H523.496ZM523.496 423.5V522H524.496V423.5H523.496ZM475.48 374.5C491.066 374.995 503.064 382.412 511.174 392.133C519.294 401.864 523.496 413.878 523.496 423.5H524.496C524.496 413.622 520.197 401.386 511.942 391.492C503.678 381.588 491.425 374.005 475.511 373.5L475.48 374.5ZM320.496 374.5H475.496V373.5H320.496V374.5ZM266.478 417.132C271.693 398.01 281.857 387.413 292.364 381.562C302.887 375.702 313.794 374.583 320.502 374.5L320.489 373.5C313.697 373.584 302.604 374.715 291.877 380.688C281.134 386.671 270.798 397.49 265.513 416.868L266.478 417.132ZM276.496 517.448V422.063H275.496V517.448H276.496ZM326.271 562.37C312.309 562.37 300.788 558.089 292.303 550.35C283.816 542.609 278.324 531.37 276.491 517.383L275.5 517.513C277.357 531.687 282.935 543.159 291.629 551.089C300.325 559.02 312.097 563.37 326.271 563.37V562.37ZM469.255 562.37H326.271V563.37H469.255V562.37ZM513.496 517.448C513.496 532.26 506.206 543.938 497.011 551.7C487.795 559.479 476.743 563.26 469.315 562.373L469.196 563.366C476.988 564.296 488.307 560.355 497.656 552.464C507.026 544.555 514.496 532.614 514.496 517.448H513.496ZM513.496 427.967V517.448H514.496V427.967H513.496ZM469.24 383.5C483.608 383.949 494.666 390.683 502.141 399.505C509.625 408.338 513.496 419.241 513.496 427.967H514.496C514.496 418.98 510.525 407.853 502.904 398.858C495.273 389.852 483.961 382.959 469.271 382.5L469.24 383.5ZM326.271 383.5H469.255V382.5H326.271V383.5ZM276.477 422.196C281.284 404.839 290.652 395.221 300.336 389.911C310.037 384.591 320.092 383.575 326.277 383.5L326.265 382.5C319.997 382.576 309.757 383.604 299.855 389.034C289.936 394.474 280.393 404.311 275.514 421.929L276.477 422.196Z" fill="#1394B2"/>
<path d="M313.821 521.816L364.311 473.322C366.784 470.946 365.366 467.832 361.391 465.292C350.831 454.685 326.047 429.735 311.397 414.787C310.41 393.576 328.136 391.12 337.122 392.544C356.596 411.741 398.219 452.762 408.914 463.27C423.661 468.618 414.473 473.993 408.283 476.264C389.095 494.905 344.14 539.893 335.573 546.536C327.006 553.18 305.655 538.235 313.821 521.816Z" fill="#FB3E81"/>
<path d="M313.821 521.816L364.311 473.322C366.784 470.946 365.366 467.832 361.391 465.292C350.831 454.685 326.047 429.735 311.397 414.787C310.41 393.576 328.136 391.12 337.122 392.544C356.596 411.741 398.219 452.762 408.914 463.27C423.661 468.618 414.473 473.993 408.283 476.264C389.095 494.905 344.14 539.893 335.573 546.536C327.006 553.18 305.655 538.235 313.821 521.816Z" fill="#FB3E81"/>
<path d="M313.821 521.816L364.311 473.322C366.784 470.946 365.366 467.832 361.391 465.292C350.831 454.685 326.047 429.735 311.397 414.787C310.41 393.576 328.136 391.12 337.122 392.544C356.596 411.741 398.219 452.762 408.914 463.27C423.661 468.618 414.473 473.993 408.283 476.264C389.095 494.905 344.14 539.893 335.573 546.536C327.006 553.18 305.655 538.235 313.821 521.816Z" stroke="#FB3E81"/>
<path d="M471.308 521.827L418.757 475.585C416.183 473.32 417.462 470.145 421.319 467.432C431.397 456.368 455.047 430.345 469.018 414.764C469.07 393.524 451.262 391.849 442.352 393.667C423.75 413.707 383.993 456.529 373.776 467.5C359.286 473.493 368.697 478.46 374.978 480.458C394.959 498.243 441.828 541.224 450.675 547.486C459.522 553.748 480.184 537.876 471.308 521.827Z" fill="#FB3E81"/>
<path d="M471.308 521.827L418.757 475.585C416.183 473.32 417.462 470.145 421.319 467.432C431.397 456.368 455.047 430.345 469.018 414.764C469.07 393.524 451.262 391.849 442.352 393.667C423.75 413.707 383.993 456.529 373.776 467.5C359.286 473.493 368.697 478.46 374.978 480.458C394.959 498.243 441.828 541.224 450.675 547.486C459.522 553.748 480.184 537.876 471.308 521.827Z" fill="#FB3E81"/>
<path d="M471.308 521.827L418.757 475.585C416.183 473.32 417.462 470.145 421.319 467.432C431.397 456.368 455.047 430.345 469.018 414.764C469.07 393.524 451.262 391.849 442.352 393.667C423.75 413.707 383.993 456.529 373.776 467.5C359.286 473.493 368.697 478.46 374.978 480.458C394.959 498.243 441.828 541.224 450.675 547.486C459.522 553.748 480.184 537.876 471.308 521.827Z" stroke="#FB3E81"/>
<path d="M219.111 173C223.304 60.8598 320.111 1 402.491 1C498.611 1 580.111 69.5 586.611 173C593.111 276.5 500.6 347.5 405.111 351C315.885 354.271 215.11 280 219.111 173Z" fill="#035593" stroke="black"/>
<path d="M239.111 169C246.111 57 353.111 19.5 402.111 19.5C455.111 19.5 561.111 65.5 567.611 169C574.111 272.5 481.6 331 406.611 331C382.576 331 230.142 312.5 239.111 169Z" fill="#2CFDDC" stroke="black"/>
<path d="M420.004 21.1432C332.504 11.1433 278.504 69.1432 260.004 101.643C256.304 108.143 263.004 121.643 276.504 115.143C315.704 49.1432 391.171 38.9765 424.004 42.1432C432.504 36.1433 430.101 22.2971 420.004 21.1432Z" fill="white" stroke="#FDFFFF"/>
<path d="M304.714 135.425C304.714 158.525 317.144 192.125 355.105 192.125C393.066 192.125 405.496 158.525 405.496 135.425C405.496 64.025 304.714 64.025 304.714 135.425Z" fill="#DDE8E3"/>
<path d="M405.496 135.425C405.496 158.525 417.925 192.125 455.886 192.125C493.847 192.125 506.277 158.525 506.277 135.425C506.277 64.025 405.496 64.025 405.496 135.425Z" fill="#DDE8E3"/>
<path d="M307.402 137.263C307.402 157.213 315.464 187.925 347.714 187.925C379.964 187.925 388.027 156.95 388.027 137.263C387.691 69.0125 307.402 69.0125 307.402 137.263Z" fill="white"/>
<path d="M408.183 137.263C408.183 157.213 416.246 187.925 448.496 187.925C480.746 187.925 488.808 156.95 488.808 137.263C488.472 69.0125 408.183 69.0125 408.183 137.263Z" fill="white"/>
<path d="M339.999 137.925C339.999 154.2 354.78 166.8 372.585 166.8C390.726 166.8 405.171 154.2 405.171 137.925C405.171 98.025 339.999 98.025 339.999 137.925Z" fill="#493B30"/>
<path d="M440.999 137.925C440.999 154.2 455.78 166.8 473.585 166.8C491.726 166.8 506.171 154.2 506.171 137.925C506.171 98.025 440.999 98.025 440.999 137.925Z" fill="#493B30"/>
<path d="M466.437 631.571C495.706 631.251 519.111 601.445 518.713 564.996C518.315 528.547 494.265 499.259 464.996 499.578C435.727 499.898 412.322 529.704 412.719 566.153C413.117 602.602 437.167 631.89 466.437 631.571Z" fill="#545454"/>
<path d="M344.437 647.571C373.706 647.251 397.111 617.445 396.713 580.996C396.315 544.547 372.265 515.259 342.996 515.578C313.727 515.898 290.322 545.704 290.719 582.153C291.117 618.602 315.167 647.89 344.437 647.571Z" fill="#545454"/>
<path d="M397.996 306C360.441 306 329.996 288.539 329.996 267H465.996C465.996 288.539 435.551 306 397.996 306Z" fill="#7F184C"/>
<path d="M352.996 267V273.238C352.996 275.868 356.666 278 361.192 278H448.799C453.326 278 456.996 275.868 456.996 273.238V267H352.996Z" fill="#F2F2F2"/>
<path d="M406.165 289.404C387.833 284.381 367.491 285.11 350.996 290.321C363.391 299.85 382.883 306 404.819 306C414.486 306 423.673 304.799 431.996 302.649C425.889 297.075 417.134 292.411 406.165 289.404Z" fill="#FC4C59"/>
<path d="M329.996 266.933C329.996 290.68 363.64 310 404.996 310C446.351 310 479.996 290.68 479.996 266.933C479.996 264.761 476.929 263 473.147 263H336.845C333.063 263 329.996 264.761 329.996 266.933ZM465.918 270.866C462.501 288.432 436.483 302.134 404.996 302.134C373.508 302.134 347.49 288.432 344.074 270.866H465.918Z" fill="black"/>
</svg>
