<svg width="805" height="801" viewBox="0 0 805 801" fill="none" xmlns="http://www.w3.org/2000/svg">
<path d="M528.281 508.031H276.719V547.094H528.281V508.031Z" fill="#FB2E7B"/>
<path d="M528.281 566.625H276.719V722.875H528.281V566.625Z" fill="#FB2E7B"/>
<path d="M150.938 390.844C220.293 390.844 276.719 434.652 276.719 488.5H528.281C528.281 434.652 584.707 390.844 654.063 390.844C655.798 390.844 657.433 391.195 659.169 391.254L646.365 316.762C636.378 258.539 572.405 215.062 496.76 215.062H308.24C232.595 215.062 168.622 258.539 158.635 316.762L145.831 391.254C147.567 391.195 149.202 390.844 150.938 390.844ZM375.809 354.633C370.904 350.824 370.904 344.633 375.809 340.824C380.715 337.016 388.689 337.016 393.595 340.824L402.5 347.738L411.405 340.824C416.311 337.016 424.285 337.016 429.191 340.824C434.096 344.633 434.096 350.824 429.191 354.633L420.286 361.547L429.191 368.461C434.096 372.27 434.096 378.461 429.191 382.27C424.285 386.078 416.311 386.078 411.405 382.27L402.5 375.355L393.595 382.27C388.689 386.078 380.715 386.078 375.809 382.27C370.904 378.461 370.904 372.27 375.809 368.461L384.715 361.547L375.809 354.633Z" fill="#FB2E7B"/>
<path d="M754.688 488.5C754.688 447.621 714.085 414.438 662.565 411.039L662.54 410.883C659.723 410.668 656.955 410.375 654.062 410.375C598.568 410.375 553.438 445.414 553.438 488.5V722.875H603.75V742.406C603.75 753.187 615.02 761.938 628.906 761.938H679.219C693.105 761.938 704.375 753.187 704.375 742.406V722.875H725.028C740.575 722.875 752.398 712.035 749.832 700.141L717.33 548.793C739.946 534.457 754.688 512.914 754.688 488.5Z" fill="#FB2E7B"/>
<path d="M251.562 488.5C251.562 445.414 206.432 410.375 150.938 410.375C148.045 410.375 145.277 410.668 142.46 410.883L142.435 411.039C90.9147 414.438 50.3125 447.602 50.3125 488.5C50.3125 512.934 65.0541 534.477 87.6695 548.793L55.1928 700.121C52.6269 712.035 64.4503 722.875 79.9969 722.875H100.625V742.406C100.625 753.187 111.895 761.938 125.781 761.938H176.094C189.98 761.938 201.25 753.187 201.25 742.406V722.875H251.562V488.5Z" fill="#FB2E7B"/>
<path d="M528.281 508.031H276.719V547.094H528.281V508.031Z" fill="#FB2E7B"/>
<path d="M528.281 566.625H276.719V722.875H528.281V566.625Z" fill="#FB2E7B"/>
<path d="M150.938 390.844C220.293 390.844 276.719 434.652 276.719 488.5H528.281C528.281 434.652 584.707 390.844 654.063 390.844C655.798 390.844 657.433 391.195 659.169 391.254L646.365 316.762C636.378 258.539 572.405 215.062 496.76 215.062H308.24C232.595 215.062 168.622 258.539 158.635 316.762L145.831 391.254C147.567 391.195 149.202 390.844 150.938 390.844ZM375.809 354.633C370.904 350.824 370.904 344.633 375.809 340.824C380.715 337.016 388.689 337.016 393.595 340.824L402.5 347.738L411.405 340.824C416.311 337.016 424.285 337.016 429.191 340.824C434.096 344.633 434.096 350.824 429.191 354.633L420.286 361.547L429.191 368.461C434.096 372.27 434.096 378.461 429.191 382.27C424.285 386.078 416.311 386.078 411.405 382.27L402.5 375.355L393.595 382.27C388.689 386.078 380.715 386.078 375.809 382.27C370.904 378.461 370.904 372.27 375.809 368.461L384.715 361.547L375.809 354.633Z" fill="#FB2E7B"/>
<path d="M754.688 488.5C754.688 447.621 714.085 414.438 662.565 411.039L662.54 410.883C659.723 410.668 656.955 410.375 654.062 410.375C598.568 410.375 553.438 445.414 553.438 488.5V722.875H603.75V742.406C603.75 753.187 615.02 761.938 628.906 761.938H679.219C693.105 761.938 704.375 753.187 704.375 742.406V722.875H725.028C740.575 722.875 752.398 712.035 749.832 700.141L717.33 548.793C739.946 534.457 754.688 512.914 754.688 488.5Z" fill="#FB2E7B"/>
<path d="M251.562 488.5C251.562 445.414 206.432 410.375 150.938 410.375C148.045 410.375 145.277 410.668 142.46 410.883L142.435 411.039C90.9147 414.438 50.3125 447.602 50.3125 488.5C50.3125 512.934 65.0541 534.477 87.6695 548.793L55.1928 700.121C52.6269 712.035 64.4503 722.875 79.9969 722.875H100.625V742.406C100.625 753.187 111.895 761.938 125.781 761.938H176.094C189.98 761.938 201.25 753.187 201.25 742.406V722.875H251.562V488.5Z" fill="#FB2E7B"/>
<path d="M598.549 384.597C574.941 345.815 538.944 322.708 523.896 316.002L472.126 429.356C475.846 436.388 491.317 467.82 505.969 493.311C532.987 528.15 570.077 533.59 594.792 530.878C651.19 517.836 644.239 468.629 633.714 445.656C631.097 440.127 620.399 420.175 598.549 384.597Z" fill="#091336" stroke="#031D4B"/>
<path d="M586.351 401.025C568.78 369.001 539.747 346.408 527.426 339.115L492.402 424.616C502.895 443.742 525.352 484.064 531.228 492.347C538.572 502.701 570.975 514 587.153 510.889C616.476 503.082 618.091 472.52 615.234 458.215C610.424 448.186 597.913 422.706 586.351 401.025Z" fill="#2DEFD0" stroke="#2DEFD0"/>
<path d="M585.287 512.037C608.64 507.903 605.803 492.574 601.465 485.426C596.895 476.339 581.166 469.656 571.495 471.739C560.537 472.234 549.118 484.018 550.877 496.321C553.416 503.981 569.499 512.826 585.287 512.037Z" fill="#FB2E7B" stroke="#FB2E7B"/>
<path d="M605.551 438.293L613.77 455.547C558.241 433.786 528.158 457.946 520.057 472.745C518.774 470.659 514.597 463.552 508.154 451.81C540.34 420.11 586.496 429.591 605.551 438.293Z" fill="#0B1232" stroke="#0B1231"/>
<path d="M579.749 437.509L585.618 446.689C563.21 444.055 542.934 452.028 535.597 456.344C534.436 454.48 531.601 449.819 529.551 446.082C543.155 435.096 568.685 435.789 579.749 437.509Z" fill="#FB3E81" stroke="#FB3E81"/>
<path d="M569.842 445.984L564.906 436.23L557.845 437.005L563.336 447.013L569.842 445.984Z" fill="#50094F" stroke="#50094F"/>
<path d="M542.6 439.542L547.524 450.791L535.231 455.676L529.551 446.083L542.6 439.542Z" fill="#50094F" stroke="#50094F"/>
<path d="M231.939 378.044C259.933 345.985 296.223 331.992 310.869 329.003L337.026 450.842C332.452 456.786 313.036 483.623 295.409 504.898C265.065 532.345 230.936 528.973 209.319 520.589C161.209 494.821 176.163 448.785 189.653 428.987C192.975 424.243 206.084 407.412 231.939 378.044Z" fill="#091336" stroke="#031D4B"/>
<path d="M239.928 396.797C261.325 369.875 291.296 354.757 303.607 350.564L319.739 441.529C306.96 457.607 279.721 491.427 272.996 498.08C264.59 506.397 233.612 509.792 219.7 503.01C194.868 488.618 198.851 458.644 203.946 445.456C210.028 436.863 225.739 415.1 239.928 396.797Z" fill="#2DEFD0" stroke="#2DEFD0"/>
<path d="M221.164 504.556C201.018 495.113 206.277 480.928 211.425 475.016C217.125 467.28 232.375 464.471 240.652 468.741C250.362 471.773 258.479 485.846 254.721 497.352C251.091 504.179 235.14 508.999 221.164 504.556Z" fill="#FB2E7B" stroke="#FB2E7B"/>
<path d="M216.142 428.417L205.729 443.212C259.242 435.073 281.85 465.478 286.465 481.699C287.983 479.977 292.98 474.067 300.825 464.196C277.677 425.998 234.724 424.428 216.142 428.417Z" fill="#0B1232" stroke="#0B1231"/>
<path d="M239.35 433.668L232.473 441.192C252.976 443.861 269.689 456.305 275.483 462.194C276.852 460.66 280.214 456.806 282.711 453.665C272.499 439.855 249.549 434.58 239.35 433.668Z" fill="#FB3E81" stroke="#FB3E81"/>
<path d="M246.704 444.184L252.849 435.887L259.025 438.283L252.339 446.696L246.704 444.184Z" fill="#50094F" stroke="#50094F"/>
<path d="M272.206 444.291L265.805 454.038L275.929 461.633L282.711 453.665L272.206 444.291Z" fill="#50094F" stroke="#50094F"/>
<path d="M249.996 489.5V375C257.996 336.6 291.496 304 320.996 304H493.996C525.996 310 559.996 330.5 568.496 381C572.009 401.873 568.496 451.5 568.496 489.5C562.996 529.5 527.496 568.5 493.996 568.5H320.996C284.596 560.1 249.996 522 249.996 489.5Z" fill="#002553" stroke="#002553"/>
<path d="M268.996 486V378C276.996 339.6 305.996 329.667 319.496 329.5H502.496C534.496 335.5 545.829 366.333 547.496 381V492C533.896 536 501.829 546.333 487.496 546H319.496C283.096 537.6 270.663 502.5 268.996 486Z" fill="#2CFDDC" stroke="#2CFDDC"/>
<path fill-rule="evenodd" clip-rule="evenodd" d="M276.996 382V487C280.996 518 300.996 537 331.496 537H486.496C502.996 539 534.996 520 534.996 487V388.5C534.996 369 517.996 340 486.496 339H331.496C317.996 339.167 287.496 343.5 276.996 382ZM286.996 387.063V482.448C290.686 510.609 309.136 527.87 337.271 527.87H480.256C495.477 529.686 524.996 512.426 524.996 482.448V392.967C524.996 375.253 509.314 348.908 480.256 348H337.271C324.818 348.151 296.682 352.088 286.996 387.063Z" fill="#1394B2"/>
<path d="M276.996 487H276.496V487.032L276.5 487.064L276.996 487ZM276.996 382L276.514 381.868L276.496 381.933V382H276.996ZM486.496 537L486.556 536.504L486.526 536.5H486.496V537ZM486.496 339L486.512 338.5L486.504 338.5H486.496V339ZM331.496 339V338.5L331.49 338.5L331.496 339ZM286.996 482.448H286.496V482.481L286.5 482.513L286.996 482.448ZM286.996 387.063L286.514 386.929L286.496 386.995V387.063H286.996ZM480.256 527.87L480.315 527.373L480.286 527.37H480.256V527.87ZM480.256 348L480.271 347.5L480.264 347.5H480.256V348ZM337.271 348V347.5L337.265 347.5L337.271 348ZM277.496 487V382H276.496V487H277.496ZM331.496 536.5C316.354 536.5 303.856 531.786 294.648 523.258C285.438 514.728 279.48 502.344 277.492 486.936L276.5 487.064C278.512 502.656 284.554 515.272 293.969 523.992C303.386 532.714 316.138 537.5 331.496 537.5V536.5ZM486.496 536.5H331.496V537.5H486.496V536.5ZM534.496 487C534.496 503.326 526.583 516.195 516.608 524.745C506.612 533.314 494.622 537.481 486.556 536.504L486.436 537.496C494.871 538.519 507.131 534.186 517.259 525.505C527.409 516.805 535.496 503.674 535.496 487H534.496ZM534.496 388.5V487H535.496V388.5H534.496ZM486.48 339.5C502.066 339.995 514.064 347.412 522.175 357.133C530.295 366.864 534.496 378.878 534.496 388.5H535.496C535.496 378.622 531.197 366.386 522.943 356.492C514.678 346.588 502.426 339.005 486.512 338.5L486.48 339.5ZM331.496 339.5H486.496V338.5H331.496V339.5ZM277.478 382.132C282.693 363.01 292.858 352.413 303.364 346.562C313.888 340.702 324.794 339.583 331.502 339.5L331.49 338.5C324.698 338.584 313.604 339.715 302.878 345.688C292.134 351.671 281.799 362.49 276.514 381.868L277.478 382.132ZM287.496 482.448V387.063H286.496V482.448H287.496ZM337.271 527.37C323.309 527.37 311.789 523.089 303.303 515.35C294.816 507.609 289.325 496.37 287.492 482.383L286.5 482.513C288.358 496.687 293.936 508.159 302.63 516.089C311.325 524.02 323.098 528.37 337.271 528.37V527.37ZM480.256 527.37H337.271V528.37H480.256V527.37ZM524.496 482.448C524.496 497.26 517.206 508.938 508.011 516.7C498.795 524.479 487.744 528.26 480.315 527.373L480.197 528.366C487.989 529.296 499.307 525.355 508.656 517.464C518.026 509.555 525.496 497.614 525.496 482.448H524.496ZM524.496 392.967V482.448H525.496V392.967H524.496ZM480.24 348.5C494.608 348.949 505.666 355.683 513.141 364.505C520.626 373.338 524.496 384.241 524.496 392.967H525.496C525.496 383.98 521.525 372.853 513.904 363.858C506.273 354.852 494.962 347.959 480.271 347.5L480.24 348.5ZM337.271 348.5H480.256V347.5H337.271V348.5ZM287.478 387.196C292.285 369.839 301.653 360.221 311.336 354.911C321.037 349.591 331.092 348.575 337.277 348.5L337.265 347.5C330.997 347.576 320.757 348.604 310.855 354.034C300.936 359.474 291.393 369.311 286.514 386.929L287.478 387.196Z" fill="#1394B2"/>
<path d="M324.821 486.816L375.311 438.322C377.784 435.946 376.367 432.832 372.392 430.292C361.831 419.685 337.048 394.735 322.397 379.787C321.411 358.576 339.136 356.12 348.122 357.544C367.597 376.741 409.22 417.762 419.915 428.27C434.662 433.618 425.474 438.993 419.284 441.264C400.096 459.905 355.141 504.893 346.574 511.536C338.006 518.18 316.656 503.235 324.821 486.816Z" fill="#FB3E81"/>
<path d="M324.821 486.816L375.311 438.322C377.784 435.946 376.367 432.832 372.392 430.292C361.831 419.685 337.048 394.735 322.397 379.787C321.411 358.576 339.136 356.12 348.122 357.544C367.597 376.741 409.22 417.762 419.915 428.27C434.662 433.618 425.474 438.993 419.284 441.264C400.096 459.905 355.141 504.893 346.574 511.536C338.006 518.18 316.656 503.235 324.821 486.816Z" fill="#FB3E81"/>
<path d="M324.821 486.816L375.311 438.322C377.784 435.946 376.367 432.832 372.392 430.292C361.831 419.685 337.048 394.735 322.397 379.787C321.411 358.576 339.136 356.12 348.122 357.544C367.597 376.741 409.22 417.762 419.915 428.27C434.662 433.618 425.474 438.993 419.284 441.264C400.096 459.905 355.141 504.893 346.574 511.536C338.006 518.18 316.656 503.235 324.821 486.816Z" stroke="#FB3E81"/>
<path d="M482.308 486.827L429.757 440.585C427.183 438.32 428.462 435.145 432.319 432.432C442.398 421.368 466.047 395.345 480.019 379.764C480.07 358.524 462.263 356.849 453.352 358.667C434.751 378.707 394.993 421.529 384.777 432.5C370.286 438.493 379.697 443.46 385.978 445.458C405.959 463.243 452.828 506.224 461.675 512.486C470.522 518.748 491.184 502.876 482.308 486.827Z" fill="#FB3E81"/>
<path d="M482.308 486.827L429.757 440.585C427.183 438.32 428.462 435.145 432.319 432.432C442.398 421.368 466.047 395.345 480.019 379.764C480.07 358.524 462.263 356.849 453.352 358.667C434.751 378.707 394.993 421.529 384.777 432.5C370.286 438.493 379.697 443.46 385.978 445.458C405.959 463.243 452.828 506.224 461.675 512.486C470.522 518.748 491.184 502.876 482.308 486.827Z" fill="#FB3E81"/>
<path d="M482.308 486.827L429.757 440.585C427.183 438.32 428.462 435.145 432.319 432.432C442.398 421.368 466.047 395.345 480.019 379.764C480.07 358.524 462.263 356.849 453.352 358.667C434.751 378.707 394.993 421.529 384.777 432.5C370.286 438.493 379.697 443.46 385.978 445.458C405.959 463.243 452.828 506.224 461.675 512.486C470.522 518.748 491.184 502.876 482.308 486.827Z" stroke="#FB3E81"/>
<path d="M469 634C498.271 634 522 604.451 522 568C522 531.549 498.271 502 469 502C439.729 502 416 531.549 416 568C416 604.451 439.729 634 469 634Z" fill="#545454"/>
<path d="M338 654C367.271 654 391 624.451 391 588C391 551.549 367.271 522 338 522C308.729 522 285 551.549 285 588C285 624.451 308.729 654 338 654Z" fill="#545454"/>
<path d="M219.112 173C223.305 60.8598 320.112 1 402.492 1C498.612 1 580.112 69.5 586.612 173C593.112 276.5 500.601 347.5 405.112 351C315.886 354.271 215.111 280 219.112 173Z" fill="#035593" stroke="black"/>
<path d="M239.112 169C246.112 57 353.112 19.5 402.112 19.5C455.112 19.5 561.112 65.5 567.612 169C574.112 272.5 481.601 331 406.612 331C382.577 331 230.143 312.5 239.112 169Z" fill="#2CFDDC" stroke="black"/>
<path d="M420.005 21.1432C332.505 11.1433 278.505 69.1432 260.005 101.643C256.305 108.143 263.005 121.643 276.505 115.143C315.705 49.1432 391.172 38.9765 424.005 42.1432C432.505 36.1433 430.102 22.2971 420.005 21.1432Z" fill="white" stroke="#FDFFFF"/>
<path d="M304.715 135.425C304.715 158.525 317.145 192.125 355.106 192.125C393.067 192.125 405.497 158.525 405.497 135.425C405.497 64.025 304.715 64.025 304.715 135.425Z" fill="#DDE8E3"/>
<path d="M405.497 135.425C405.497 158.525 417.926 192.125 455.887 192.125C493.848 192.125 506.278 158.525 506.278 135.425C506.278 64.025 405.497 64.025 405.497 135.425Z" fill="#DDE8E3"/>
<path d="M307.403 137.263C307.403 157.213 315.465 187.925 347.715 187.925C379.965 187.925 388.028 156.95 388.028 137.263C387.692 69.0125 307.403 69.0125 307.403 137.263Z" fill="white"/>
<path d="M408.184 137.263C408.184 157.213 416.247 187.925 448.497 187.925C480.747 187.925 488.809 156.95 488.809 137.263C488.473 69.0125 408.184 69.0125 408.184 137.263Z" fill="white"/>
<path d="M334 115.925C334 132.2 348.781 144.8 366.586 144.8C384.727 144.8 399.172 132.2 399.172 115.925C399.172 76.025 334 76.025 334 115.925Z" fill="#493B30"/>
<path d="M437 115.925C437 132.2 451.781 144.8 469.586 144.8C487.727 144.8 502.172 132.2 502.172 115.925C502.172 76.025 437 76.025 437 115.925Z" fill="#493B30"/>
<path d="M397.997 306C360.442 306 329.997 288.539 329.997 267H465.997C465.997 288.539 435.551 306 397.997 306Z" fill="#7F184C"/>
<path d="M352.997 267V273.238C352.997 275.868 356.667 278 361.193 278H448.8C453.327 278 456.997 275.868 456.997 273.238V267H352.997Z" fill="#F2F2F2"/>
<path d="M406.165 289.404C387.834 284.381 367.492 285.11 350.997 290.321C363.392 299.85 382.884 306 404.82 306C414.487 306 423.674 304.799 431.997 302.649C425.89 297.075 417.135 292.411 406.165 289.404Z" fill="#FC4C59"/>
<path d="M329.997 266.933C329.997 290.68 363.641 310 404.997 310C446.352 310 479.997 290.68 479.997 266.933C479.997 264.761 476.93 263 473.147 263H336.846C333.064 263 329.997 264.761 329.997 266.933ZM465.919 270.866C462.502 288.432 436.484 302.134 404.997 302.134C373.509 302.134 347.491 288.432 344.075 270.866H465.919Z" fill="black"/>
</svg>
