<svg width="562" height="646" viewBox="0 0 562 646" fill="none" xmlns="http://www.w3.org/2000/svg">
<path d="M139.307 536.935L211.442 367.416C211.721 446.443 247.002 472.841 264.607 476.161L305.554 493.585L264.448 590.186C239.689 627.938 215.793 631.313 206.94 628.282L156.331 606.747C135.763 600.939 136.411 557.786 139.307 536.935Z" fill="#0A1437" stroke="#0C1436"/>
<path d="M162.678 534.367L215.188 410.967C220.256 457.288 265.275 480.126 287.151 485.754L246.84 580.485C237.843 595.5 222.159 601.88 215.442 603.193L170.355 584.007C155.221 574.622 158.931 547.003 162.678 534.367Z" fill="#1DBBC9" stroke="#1DBBC9"/>
<path d="M185.22 481.392L215.719 409.721C221.509 460.472 265.753 481.556 287.151 485.754L273.095 518.786L185.22 481.392Z" fill="#FB2770" stroke="#FB2770"/>
<path d="M182.582 588.474L216.528 508.7L230.748 514.751L198.224 595.13L182.582 588.474Z" fill="#31F8CB" stroke="#31F8CB"/>
<path d="M180.447 492.611L185.22 481.392L273.095 518.786L268.322 530.004L180.447 492.611Z" fill="#071333" stroke="#071333"/>
<path d="M205.906 432.78L215.719 409.721C225.047 457.266 255.936 470.999 267.102 477.959L261.003 492.293L233.398 480.547C213.947 471.092 206.966 444.763 205.906 432.78Z" fill="#AB0359" stroke="#AB0359"/>
<path d="M253.312 510.367L266.908 477.14C273.533 479.959 283.317 484.123 287.416 485.131L273.095 518.786L253.312 510.367Z" fill="#2E0E3D" stroke="#2E0E3D"/>
<path d="M215.442 603.193L248.928 523.223L267.791 531.25L246.84 580.486C238.791 595.315 222.619 602.076 215.442 603.193Z" fill="#046FAD" stroke="#036DA9"/>
<path d="M427.077 536.508L350.291 367.713C352.154 447.157 317.562 474.478 300.033 478.207L259.528 496.634L303.285 592.822C329.086 630.219 353.092 633.08 361.87 629.836L411.933 607.061C432.359 600.765 430.54 557.402 427.077 536.508Z" fill="#0A1437" stroke="#0C1436"/>
<path d="M403.618 534.446L347.722 411.573C343.907 458.249 299.473 482.207 277.732 488.352L320.643 582.679C330.054 597.572 345.923 603.635 352.68 604.805L397.282 584.515C412.173 574.745 407.711 547.065 403.618 534.446Z" fill="#1DBBC9" stroke="#1DBBC9"/>
<path d="M379.623 481.698L347.158 410.333C342.739 461.477 299.033 483.656 277.732 488.352L292.695 521.243L379.623 481.698Z" fill="#FB2770" stroke="#FB2770"/>
<path d="M385.167 589.278L349.032 509.845L334.964 516.244L369.693 596.317L385.167 589.278Z" fill="#31F8CB" stroke="#31F8CB"/>
<path d="M384.704 492.868L379.623 481.698L292.695 521.242L297.776 532.413L384.704 492.868Z" fill="#071333" stroke="#071333"/>
<path d="M357.603 433.294L347.158 410.333C339.111 458.333 308.571 472.826 297.585 480.07L304.078 494.343L331.385 481.921C350.595 471.984 356.868 445.362 357.603 433.294Z" fill="#AB0359" stroke="#AB0359"/>
<path d="M312.265 512.34L297.758 479.242C291.204 482.224 281.525 486.627 277.45 487.732L292.694 521.242L312.265 512.34Z" fill="#2E0E3D" stroke="#2E0E3D"/>
<path d="M352.68 604.805L317.001 525.165L298.341 533.654L320.643 582.679C329.1 597.407 345.468 603.842 352.68 604.805Z" fill="#046FAD" stroke="#036DA9"/>
<path d="M486.4 353.041C465.596 316.967 434.548 299.985 421.625 296.003L379.72 426.289C383.015 432.946 396.762 462.937 409.7 486.827C433.331 518.038 464.977 516.149 485.946 508.202C533.666 482.835 526.833 432.331 517.451 410.25C515.121 404.953 505.65 386.096 486.4 353.041Z" fill="#091336" stroke="#031D4B"/>
<path d="M476.334 372.889C460.79 342.705 435.675 324.832 425.06 319.669L396.874 417.116C406.157 435.142 426.011 473.079 431.164 480.613C437.604 490.03 465.374 495.289 479.074 488.677C503.866 474.404 504.668 441.817 501.969 427.307C497.691 417.711 486.574 393.392 476.334 372.889Z" fill="#2DEFD0" stroke="#2DEFD0"/>
<path d="M477.509 490.272C497.292 481.105 494.592 465.51 490.769 458.859C486.712 450.208 473.21 446.39 465.024 450.578C455.714 453.355 446.223 468.142 447.95 480.765C450.252 488.327 464.096 494.353 477.509 490.272Z" fill="#FB2E7B" stroke="#FB2E7B"/>
<path d="M493.361 408.273L500.674 424.792C453.041 413.249 427.908 444.937 421.296 462.223C420.166 460.286 416.48 453.644 410.781 442.576C437.56 402.498 476.992 403.008 493.361 408.273Z" fill="#0B1232" stroke="#0B1231"/>
<path d="M471.403 412.754L476.566 421.235C457.459 423.065 440.364 435.651 434.205 441.715C433.183 439.987 430.685 435.651 428.871 432.129C440.235 417.735 461.96 413.214 471.403 412.754Z" fill="#FB3E81" stroke="#FB3E81"/>
<path d="M463.136 423.736L458.755 414.457L452.764 416.727L457.621 426.16L463.136 423.736Z" fill="#50094F" stroke="#50094F"/>
<path d="M439.846 422.542L444.245 433.401L433.882 441.086L428.871 432.129L439.846 422.542Z" fill="#50094F" stroke="#50094F"/>
<path d="M75.0659 347.008C95.8281 310.931 126.827 293.972 139.732 290.003L181.626 420.44C178.337 427.098 164.62 457.096 151.708 480.989C128.122 512.197 96.518 510.269 75.5752 502.291C27.9115 476.848 34.7173 426.312 44.0782 404.225C46.4028 398.927 55.8547 380.067 75.0659 347.008Z" fill="#091336" stroke="#031D4B"/>
<path d="M85.1257 366.884C100.637 336.695 125.711 318.838 136.309 313.684L164.491 411.239C155.228 429.269 135.415 467.212 130.272 474.745C123.844 484.162 96.1147 489.392 82.4308 482.759C57.6677 468.446 56.8555 435.832 59.5448 421.314C63.8141 411.715 74.9073 387.391 85.1257 366.884Z" fill="#2DEFD0" stroke="#2DEFD0"/>
<path d="M83.9945 484.357C64.2351 475.159 66.9258 459.555 70.7411 452.903C74.7891 444.251 88.2714 440.446 96.4477 444.647C105.746 447.437 115.229 462.247 113.509 474.878C111.213 482.442 97.39 488.457 83.9945 484.357Z" fill="#FB2E7B" stroke="#FB2E7B"/>
<path d="M68.1343 402.275L60.8374 418.798C108.401 407.303 133.51 439.045 140.119 456.353C141.247 454.415 144.926 447.772 150.613 436.703C123.856 396.562 84.4786 397.026 68.1343 402.275Z" fill="#0B1232" stroke="#0B1231"/>
<path d="M90.0639 406.785L84.9109 415.267C103.992 417.121 121.068 429.737 127.221 435.814C128.241 434.085 130.734 429.749 132.544 426.226C121.191 411.807 99.4935 407.258 90.0639 406.785Z" fill="#FB3E81" stroke="#FB3E81"/>
<path d="M98.3237 417.786L102.695 408.505L108.679 410.785L103.831 420.219L98.3237 417.786Z" fill="#50094F" stroke="#50094F"/>
<path d="M121.581 416.619L117.192 427.481L127.544 435.185L132.544 426.226L121.581 416.619Z" fill="#50094F" stroke="#50094F"/>
<path d="M124 422.5V308C132 269.6 165.5 237 195 237H368C400 243 434 263.5 442.5 314C446.013 334.873 442.5 384.5 442.5 422.5C437 462.5 401.5 501.5 368 501.5H195C158.6 493.1 124 455 124 422.5Z" fill="#002553" stroke="#002553"/>
<path d="M143 419V311C151 272.6 180 262.667 193.5 262.5H376.5C408.5 268.5 419.833 299.333 421.5 314V425C407.9 469 375.833 479.333 361.5 479H193.5C157.1 470.6 144.667 435.5 143 419Z" fill="#2CFDDC" stroke="#2CFDDC"/>
<path fill-rule="evenodd" clip-rule="evenodd" d="M151 315V420C155 451 175 470 205.5 470H360.5C377 472 409 453 409 420V321.5C409 302 392 273 360.5 272H205.5C192 272.167 161.5 276.5 151 315ZM161 320.063V415.448C164.69 443.609 183.14 460.87 211.275 460.87H354.26C369.481 462.686 399 445.426 399 415.448V325.967C399 308.253 383.318 281.908 354.26 281H211.275C198.822 281.151 170.686 285.088 161 320.063Z" fill="#1394B2"/>
<path d="M151 420H150.5V420.032L150.504 420.064L151 420ZM151 315L150.518 314.868L150.5 314.933V315H151ZM360.5 470L360.56 469.504L360.53 469.5H360.5V470ZM360.5 272L360.516 271.5L360.508 271.5H360.5V272ZM205.5 272V271.5L205.494 271.5L205.5 272ZM161 415.448H160.5V415.481L160.504 415.513L161 415.448ZM161 320.063L160.518 319.929L160.5 319.995V320.063H161ZM354.26 460.87L354.319 460.373L354.289 460.37H354.26V460.87ZM354.26 281L354.275 280.5L354.268 280.5H354.26V281ZM211.275 281V280.5L211.269 280.5L211.275 281ZM151.5 420V315H150.5V420H151.5ZM205.5 469.5C190.358 469.5 177.86 464.786 168.652 456.258C159.442 447.728 153.484 435.344 151.496 419.936L150.504 420.064C152.516 435.656 158.558 448.272 167.973 456.992C177.39 465.714 190.142 470.5 205.5 470.5V469.5ZM360.5 469.5H205.5V470.5H360.5V469.5ZM408.5 420C408.5 436.326 400.587 449.195 390.612 457.745C380.615 466.314 368.626 470.481 360.56 469.504L360.44 470.496C368.874 471.519 381.135 467.186 391.263 458.505C401.413 449.805 409.5 436.674 409.5 420H408.5ZM408.5 321.5V420H409.5V321.5H408.5ZM360.484 272.5C376.07 272.995 388.068 280.412 396.179 290.133C404.299 299.864 408.5 311.878 408.5 321.5H409.5C409.5 311.622 405.201 299.386 396.946 289.492C388.682 279.588 376.43 272.005 360.516 271.5L360.484 272.5ZM205.5 272.5H360.5V271.5H205.5V272.5ZM151.482 315.132C156.697 296.01 166.862 285.413 177.368 279.562C187.892 273.702 198.798 272.583 205.506 272.5L205.494 271.5C198.702 271.584 187.608 272.715 176.882 278.688C166.138 284.671 155.803 295.49 150.518 314.868L151.482 315.132ZM161.5 415.448V320.063H160.5V415.448H161.5ZM211.275 460.37C197.313 460.37 185.793 456.089 177.307 448.35C168.82 440.609 163.328 429.37 161.496 415.383L160.504 415.513C162.361 429.687 167.94 441.159 176.634 449.089C185.329 457.02 197.102 461.37 211.275 461.37V460.37ZM354.26 460.37H211.275V461.37H354.26V460.37ZM398.5 415.448C398.5 430.26 391.21 441.938 382.015 449.7C372.799 457.479 361.748 461.26 354.319 460.373L354.2 461.366C361.992 462.296 373.311 458.355 382.66 450.464C392.03 442.555 399.5 430.614 399.5 415.448H398.5ZM398.5 325.967V415.448H399.5V325.967H398.5ZM354.244 281.5C368.612 281.949 379.67 288.683 387.145 297.505C394.63 306.338 398.5 317.241 398.5 325.967H399.5C399.5 316.98 395.529 305.853 387.908 296.858C380.277 287.852 368.965 280.959 354.275 280.5L354.244 281.5ZM211.275 281.5H354.26V280.5H211.275V281.5ZM161.482 320.196C166.289 302.839 175.657 293.221 185.34 287.911C195.041 282.591 205.096 281.575 211.281 281.5L211.269 280.5C205.001 280.576 194.761 281.604 184.859 287.034C174.94 292.474 165.397 302.311 160.518 319.929L161.482 320.196Z" fill="#1394B2"/>
<path d="M96.1154 173C100.309 60.8598 197.115 1 279.496 1C375.615 1 457.115 69.5 463.615 173C470.115 276.5 377.604 347.5 282.116 351C192.89 354.271 92.1143 280 96.1154 173Z" fill="#035593" stroke="black"/>
<path d="M116.115 169C123.115 57 230.115 19.5 279.115 19.5C332.115 19.5 438.115 65.5 444.615 169C451.115 272.5 358.604 331 283.615 331C259.58 331 107.146 312.5 116.115 169Z" fill="#2CFDDC" stroke="black"/>
<path d="M297.009 21.1432C209.509 11.1433 155.509 69.1432 137.009 101.643C133.309 108.143 140.009 121.643 153.509 115.143C192.709 49.1432 268.175 38.9765 301.009 42.1432C309.509 36.1433 307.105 22.2971 297.009 21.1432Z" fill="white" stroke="#FDFFFF"/>
<path d="M149.351 128.43L207.357 167.626C210.198 169.546 212.946 167.507 214.596 163.088C222.752 150.537 241.949 121.072 253.492 103.612C274.024 98.1984 280.143 115.015 280.635 124.1C265.95 147.167 234.572 196.468 226.541 209.129C224.404 224.67 217.222 216.814 213.703 211.238C191.452 196.386 138.036 161.867 129.743 154.884C121.451 147.9 131.585 123.89 149.351 128.43Z" fill="#FB3E81"/>
<path d="M149.351 128.43L207.357 167.626C210.198 169.546 212.946 167.507 214.596 163.088C222.752 150.537 241.949 121.072 253.492 103.612C274.024 98.1984 280.143 115.015 280.635 124.1C265.95 147.167 234.572 196.468 226.541 209.129C224.404 224.67 217.222 216.814 213.703 211.238C191.452 196.386 138.036 161.867 129.743 154.884C121.451 147.9 131.585 123.89 149.351 128.43Z" fill="#FB3E81"/>
<path d="M149.351 128.43L207.357 167.626C210.198 169.546 212.946 167.507 214.596 163.088C222.752 150.537 241.949 121.072 253.492 103.612C274.024 98.1984 280.143 115.015 280.635 124.1C265.95 147.167 234.572 196.468 226.541 209.129C224.404 224.67 217.222 216.814 213.703 211.238C191.452 196.386 138.036 161.867 129.743 154.884C121.451 147.9 131.585 123.89 149.351 128.43Z" stroke="#FB3E81"/>
<path d="M414.926 134.181L355.184 170.66C352.258 172.447 349.605 170.285 348.157 165.797C340.579 152.892 322.737 122.59 311.997 104.628C291.728 98.2813 284.849 114.792 283.944 123.841C297.568 147.547 326.679 198.212 334.128 211.222C335.556 226.838 343.089 219.322 346.859 213.916C369.768 200.106 424.712 168.086 433.315 161.493C441.919 154.9 432.885 130.461 414.926 134.181Z" fill="#FB3E81"/>
<path d="M414.926 134.181L355.184 170.66C352.258 172.447 349.605 170.285 348.157 165.797C340.579 152.892 322.737 122.59 311.997 104.628C291.728 98.2813 284.849 114.792 283.944 123.841C297.568 147.547 326.679 198.212 334.128 211.222C335.556 226.838 343.089 219.322 346.859 213.916C369.768 200.106 424.712 168.086 433.315 161.493C441.919 154.9 432.885 130.461 414.926 134.181Z" fill="#FB3E81"/>
<path d="M414.926 134.181L355.184 170.66C352.258 172.447 349.605 170.285 348.157 165.797C340.579 152.892 322.737 122.59 311.997 104.628C291.728 98.2813 284.849 114.792 283.944 123.841C297.568 147.547 326.679 198.212 334.128 211.222C335.556 226.838 343.089 219.322 346.859 213.916C369.768 200.106 424.712 168.086 433.315 161.493C441.919 154.9 432.885 130.461 414.926 134.181Z" stroke="#FB3E81"/>
<path d="M209 300C209 265.207 241.013 237 280.5 237C319.987 237 352 265.207 352 300H209Z" fill="#C03A2B"/>
<path d="M209 300C209 284.538 241.013 272 280.5 272C319.987 272 352 284.538 352 300" fill="#E64C3C"/>
</svg>
