<svg width="431" height="681" viewBox="0 0 431 681" fill="none" xmlns="http://www.w3.org/2000/svg">
<path d="M70.0001 637V501C101.2 554.6 144 562.333 161.5 559.5H206V637C198 669.8 177.333 679 168 679.5H113C91.8001 681.5 75.5001 652 70.0001 637Z" fill="#0A1437" stroke="#0C1436"/>
<path d="M90.5001 628.5V529.5C113.3 559.5 163.667 562 186 559.5V635.5C183.6 648.3 171.667 657.167 166 660H117C99.4001 658 92.0001 638.167 90.5001 628.5Z" fill="#1DBBC9" stroke="#1DBBC9"/>
<path d="M90.5001 586V528.5C115.7 561.3 164.667 562.833 186 559.5V586H90.5001Z" fill="#FB2770" stroke="#FB2770"/>
<path d="M130 659.5V595.5H145.455L147 659.5H130Z" fill="#31F8CB" stroke="#31F8CB"/>
<path d="M90.5001 595V586H186V595H90.5001Z" fill="#071333" stroke="#071333"/>
<path d="M90.5001 547V528.5C117.7 558.1 151.5 558.5 164.5 560V571.5H134.5C112.9 570.7 96.1668 554.833 90.5001 547Z" fill="#AB0359" stroke="#AB0359"/>
<path d="M164.5 586L164 559.5C171.2 559.5 181.833 559.5 186 559V586H164.5Z" fill="#2E0E3D" stroke="#2E0E3D"/>
<path d="M166 660L165.5 596H186V635.5C184.4 647.9 172.167 657.167 166 660Z" fill="#046FAD" stroke="#036DA9"/>
<path d="M371 637V501C339.8 554.6 297 562.333 279.5 559.5H235V637C243 669.8 263.667 679 273 679.5H328C349.2 681.5 365.5 652 371 637Z" fill="#0A1437" stroke="#0C1436"/>
<path d="M350.5 628.5V529.5C327.7 559.5 277.333 562 255 559.5V635.5C257.4 648.3 269.333 657.167 275 660H324C341.6 658 349 638.167 350.5 628.5Z" fill="#1DBBC9" stroke="#1DBBC9"/>
<path d="M350.5 586V528.5C325.3 561.3 276.333 562.833 255 559.5V586H350.5Z" fill="#FB2770" stroke="#FB2770"/>
<path d="M311 659.5V595.5H295.545L294 659.5H311Z" fill="#31F8CB" stroke="#31F8CB"/>
<path d="M350.5 595V586H255V595H350.5Z" fill="#071333" stroke="#071333"/>
<path d="M350.5 547V528.5C323.3 558.1 289.5 558.5 276.5 560V571.5H306.5C328.1 570.7 344.833 554.833 350.5 547Z" fill="#AB0359" stroke="#AB0359"/>
<path d="M276.5 586L277 559.5C269.8 559.5 259.167 559.5 255 559V586H276.5Z" fill="#2E0E3D" stroke="#2E0E3D"/>
<path d="M275 660L275.5 596H255V635.5C256.6 647.9 268.833 657.167 275 660Z" fill="#046FAD" stroke="#036DA9"/>
<path d="M51.0525 375.797C69.5398 417.625 87.9771 426.702 94.8849 426.012L81.7189 216.499C78.5565 208.51 64.8119 171.963 52.9529 143.844C34.3787 110.466 20.3542 129.004 12.7244 150.978C-2.83078 211.526 12.8421 281.217 22.623 308.494C25.0054 314.998 34.0267 337.563 51.0525 375.797Z" fill="#091336" stroke="#031D4B"/>
<path d="M50.7333 342.04C65.3487 377.97 81.2899 391.298 87.4335 393.47L76.1405 238.345C67.4119 216.887 48.8969 171.888 44.6661 163.556C39.3775 153.141 25.3535 159.396 20.721 175.808C12.9112 208.848 20.6377 256.418 25.4771 276.073C29.82 287.827 40.9513 317.476 50.7333 342.04Z" fill="#2DEFD0" stroke="#2DEFD0"/>
<path d="M21.0416 172.717C14.258 195.866 19.3677 217.091 22.7705 224.81C26.7769 235.305 33.909 234.089 36.618 223.939C40.1924 215.271 40.8666 189.128 36.9406 171.718C34.0081 161.923 26.1708 160.112 21.0416 172.717Z" fill="#FB2E7B" stroke="#FB2E7B"/>
<path d="M34.1469 299.326L26.695 279.067C51.3772 271.989 55.0177 213.571 53.7527 185.247C54.7516 187.487 58.0892 195.261 63.4482 208.436C61.1374 279.82 42.9512 298.772 34.1469 299.326Z" fill="#0B1232" stroke="#0B1231"/>
<path d="M43.0906 281.875L38.6194 272.176C46.9155 259.987 51.6189 233.232 52.9336 221.379C53.8311 223.37 56.0523 228.399 57.7574 232.591C56.128 259.101 47.3006 276.493 43.0906 281.875Z" fill="#FB3E81" stroke="#FB3E81"/>
<path d="M44.1492 261.849L48.4601 273.093L50.64 266.815L46.0727 255.587L44.1492 261.849Z" fill="#50094F" stroke="#50094F"/>
<path d="M55.1122 251.949L50.4007 238.427L53.2382 222.127L57.7574 232.591L55.1122 251.949Z" fill="#50094F" stroke="#50094F"/>
<path d="M390.741 351.517C374.379 390.598 356.764 399.583 350.002 399.19L354.506 206.208C357.272 198.756 369.219 164.693 379.663 138.44C396.445 107.12 410.856 123.664 419.169 143.59C436.743 198.685 424.234 263.272 415.782 288.679C413.718 294.738 405.82 315.789 390.741 351.517Z" fill="#091336" stroke="#031D4B"/>
<path d="M389.709 320.486C376.888 354.013 361.876 366.817 355.972 369.028L360.814 226.087C368.47 206.064 384.733 164.068 388.526 156.264C393.268 146.509 407.19 151.767 412.36 166.686C421.288 196.774 415.647 240.756 411.71 258.986C407.943 269.939 398.27 297.572 389.709 320.486Z" fill="#2DEFD0" stroke="#2DEFD0"/>
<path d="M411.924 163.857C419.459 184.892 415.321 204.574 412.31 211.786C408.822 221.57 401.819 220.702 398.775 211.47C394.945 203.629 393.248 179.629 396.383 163.494C398.853 154.391 406.422 152.454 411.924 163.857Z" fill="#FB2E7B" stroke="#FB2E7B"/>
<path d="M404.182 280.656L410.642 261.78C386.296 256.138 380.423 202.585 380.53 176.513C379.645 178.607 376.7 185.867 371.999 198.16C377.091 263.675 395.576 280.455 404.182 280.656Z" fill="#0B1232" stroke="#0B1231"/>
<path d="M394.768 264.933L398.742 255.865C390.168 244.953 384.518 220.533 382.765 209.686C381.969 211.547 380.004 216.246 378.508 220.158C381.151 244.461 390.449 260.134 394.768 264.933Z" fill="#FB3E81" stroke="#FB3E81"/>
<path d="M392.939 246.569L389.184 257.051L386.808 251.358L390.815 240.881L392.939 246.569Z" fill="#50094F" stroke="#50094F"/>
<path d="M381.857 237.853L385.913 225.263L382.498 210.385L378.508 220.158L381.857 237.853Z" fill="#50094F" stroke="#50094F"/>
<path d="M62.0001 483.5V369C70.0001 330.6 103.5 298 133 298H306C338 304 372 324.5 380.5 375C384.013 395.873 380.5 445.5 380.5 483.5C375 523.5 339.5 562.5 306 562.5H133C96.6001 554.1 62.0001 516 62.0001 483.5Z" fill="#002553" stroke="#002553"/>
<path d="M81.0001 480V372C89.0001 333.6 118 323.667 131.5 323.5H314.5C346.5 329.5 357.833 360.333 359.5 375V486C345.9 530 313.833 540.333 299.5 540H131.5C95.1001 531.6 82.6668 496.5 81.0001 480Z" fill="#2CFDDC" stroke="#2CFDDC"/>
<path fill-rule="evenodd" clip-rule="evenodd" d="M89.0001 376V481C93.0001 512 113 531 143.5 531H298.5C315 533 347 514 347 481V382.5C347 363 330 334 298.5 333H143.5C130 333.167 99.5001 337.5 89.0001 376ZM99.0001 381.063V476.448C102.69 504.609 121.14 521.87 149.275 521.87H292.26C307.481 523.686 337 506.426 337 476.448V386.967C337 369.253 321.318 342.908 292.26 342H149.275C136.822 342.151 108.686 346.088 99.0001 381.063Z" fill="#1394B2"/>
<path d="M89.0001 481H88.5001V481.032L88.5042 481.064L89.0001 481ZM89.0001 376L88.5177 375.868L88.5001 375.933V376H89.0001ZM298.5 531L298.56 530.504L298.53 530.5H298.5V531ZM298.5 333L298.516 332.5L298.508 332.5H298.5V333ZM143.5 333V332.5L143.494 332.5L143.5 333ZM99.0001 476.448H98.5001V476.481L98.5044 476.513L99.0001 476.448ZM99.0001 381.063L98.5183 380.929L98.5001 380.995V381.063H99.0001ZM292.26 521.87L292.319 521.373L292.29 521.37H292.26V521.87ZM292.26 342L292.275 341.5L292.268 341.5H292.26V342ZM149.275 342V341.5L149.269 341.5L149.275 342ZM89.5001 481V376H88.5001V481H89.5001ZM143.5 530.5C128.358 530.5 115.86 525.786 106.652 517.258C97.4421 508.728 91.4842 496.344 89.496 480.936L88.5042 481.064C90.5161 496.656 96.5581 509.272 105.973 517.992C115.39 526.714 128.142 531.5 143.5 531.5V530.5ZM298.5 530.5H143.5V531.5H298.5V530.5ZM346.5 481C346.5 497.326 338.587 510.195 328.612 518.745C318.616 527.314 306.626 531.481 298.56 530.504L298.44 531.496C306.875 532.519 319.135 528.186 329.263 519.505C339.413 510.805 347.5 497.674 347.5 481H346.5ZM346.5 382.5V481H347.5V382.5H346.5ZM298.484 333.5C314.07 333.995 326.068 341.412 334.179 351.133C342.299 360.864 346.5 372.878 346.5 382.5H347.5C347.5 372.622 343.201 360.386 334.947 350.492C326.682 340.588 314.43 333.005 298.516 332.5L298.484 333.5ZM143.5 333.5H298.5V332.5H143.5V333.5ZM89.4825 376.132C94.6974 357.01 104.862 346.413 115.368 340.562C125.892 334.702 136.799 333.583 143.506 333.5L143.494 332.5C136.702 332.584 125.608 333.715 114.882 339.688C104.138 345.671 93.8028 356.49 88.5177 375.868L89.4825 376.132ZM99.5001 476.448V381.063H98.5001V476.448H99.5001ZM149.275 521.37C135.313 521.37 123.793 517.089 115.308 509.35C106.82 501.609 101.329 490.37 99.4959 476.383L98.5044 476.513C100.362 490.687 105.94 502.159 114.634 510.089C123.329 518.02 135.102 522.37 149.275 522.37V521.37ZM292.26 521.37H149.275V522.37H292.26V521.37ZM336.5 476.448C336.5 491.26 329.21 502.938 320.015 510.7C310.799 518.479 299.748 522.26 292.319 521.373L292.201 522.366C299.993 523.296 311.311 519.355 320.66 511.464C330.03 503.555 337.5 491.614 337.5 476.448H336.5ZM336.5 386.967V476.448H337.5V386.967H336.5ZM292.244 342.5C306.612 342.949 317.67 349.683 325.145 358.505C332.63 367.338 336.5 378.241 336.5 386.967H337.5C337.5 377.98 333.529 366.853 325.908 357.858C318.277 348.852 306.966 341.959 292.275 341.5L292.244 342.5ZM149.275 342.5H292.26V341.5H149.275V342.5ZM99.482 381.196C104.289 363.839 113.657 354.221 123.34 348.911C133.041 343.591 143.096 342.575 149.281 342.5L149.269 341.5C143.001 341.576 132.761 342.604 122.86 348.034C112.94 353.474 103.397 363.311 98.5183 380.929L99.482 381.196Z" fill="#1394B2"/>
<path d="M33.1153 173C37.3087 60.8598 134.115 1 216.496 1C312.615 1 394.115 69.5 400.615 173C407.115 276.5 314.604 347.5 219.116 351C129.89 354.271 29.1141 280 33.1153 173Z" fill="#035593" stroke="black"/>
<path d="M53.1149 169C60.1151 57 167.115 19.5 216.115 19.5C269.115 19.5 375.115 65.5 381.615 169C388.115 272.5 295.604 331 220.615 331C196.58 331 44.1458 312.5 53.1149 169Z" fill="#2CFDDC" stroke="black"/>
<path d="M234.008 21.1432C146.508 11.1433 92.5084 69.1432 74.0084 101.643C70.3084 108.143 77.0084 121.643 90.5084 115.143C129.708 49.1432 205.175 38.9765 238.008 42.1432C246.508 36.1433 244.105 22.2971 234.008 21.1432Z" fill="white" stroke="#FDFFFF"/>
<g clip-path="url(#clip0_1_213)">
<path fill-rule="evenodd" clip-rule="evenodd" d="M219 36C294.663 36 356 98.2325 356 175C356 251.768 294.663 314 219 314C143.337 314 81.9999 251.768 81.9999 175C81.9999 98.2325 143.337 36 219 36ZM250.938 138.389C246.866 134.109 241.258 132.605 235.35 132.676C227.469 132.771 219.053 135.668 213.033 138.514C198.628 145.322 187.575 157.379 178.369 170.268C176.711 172.588 175.846 175.328 178.763 177.464C181.25 179.285 183.041 177.655 184.541 176.031L184.64 175.924C184.754 175.799 184.867 175.675 184.978 175.552C186.661 173.703 188.288 171.788 189.914 169.871L190.321 169.392L190.728 168.913C195.613 163.166 200.583 157.503 207.16 153.66C211.07 151.375 213.888 154.904 213.284 158.867C212.922 161.243 211.691 163.482 210.829 165.78C207.77 173.941 204.665 182.084 201.573 190.233C198.185 199.167 194.808 208.104 191.523 217.077L191.237 217.856L190.952 218.635C188.054 226.546 185.198 234.398 183.31 242.655C181.8 249.256 179.769 257.265 182.688 263.751C184.369 267.486 187.935 270.054 191.902 270.638C197.312 271.435 203.163 271.526 208.457 270.304C211.199 269.671 213.897 268.846 216.53 267.842C224.613 264.758 231.974 260.002 238.604 254.411C245.348 248.709 251.293 241.963 256.714 234.967C258.457 232.718 260.568 230.232 261.162 227.352C261.719 224.65 259.343 220.792 256.263 222.36C254.637 223.188 253.419 225.237 252.234 226.598C250.747 228.307 249.231 229.99 247.698 231.654C244.632 234.983 241.488 238.237 238.332 241.476C236.399 243.458 233.998 245.134 231.53 246.364C228.449 247.9 225.995 246.197 226.328 242.735C226.634 239.557 227.401 236.343 228.476 233.335C232.8 221.219 237.208 209.135 241.581 197.037C244.315 189.477 247.035 181.912 249.715 174.332C252.22 167.247 254.355 160.22 255.257 152.714C255.879 147.544 254.558 142.196 250.938 138.389ZM260.031 80.2554C246.996 75.1098 231.456 83.8914 228.839 97.8848C226.948 107.989 230.742 116.886 238.543 120.64C253.636 127.902 271.691 116.302 271.692 99.343C271.693 89.932 267.609 83.2473 260.031 80.2554Z" fill="#FB3E81" stroke="#FB3E81"/>
</g>
<defs>
<clipPath id="clip0_1_213">
<rect width="274" height="278" fill="white" transform="translate(81.9999 36)"/>
</clipPath>
</defs>
</svg>
