<svg width="805" height="801" viewBox="0 0 805 801" fill="none" xmlns="http://www.w3.org/2000/svg">
<path d="M528.281 508.031H276.719V547.094H528.281V508.031Z" fill="#FB2E7B"/>
<path d="M528.281 566.625H276.719V722.875H528.281V566.625Z" fill="#FB2E7B"/>
<path d="M150.937 390.844C220.293 390.844 276.719 434.652 276.719 488.5H528.281C528.281 434.652 584.706 390.844 654.062 390.844C655.798 390.844 657.433 391.195 659.169 391.254L646.364 316.762C636.377 258.539 572.405 215.062 496.76 215.062H308.239C232.594 215.062 168.622 258.539 158.635 316.762L145.831 391.254C147.566 391.195 149.202 390.844 150.937 390.844ZM375.809 354.633C370.904 350.824 370.904 344.633 375.809 340.824C380.714 337.016 388.689 337.016 393.594 340.824L402.5 347.738L411.405 340.824C416.311 337.016 424.285 337.016 429.191 340.824C434.096 344.633 434.096 350.824 429.191 354.633L420.285 361.547L429.191 368.461C434.096 372.27 434.096 378.461 429.191 382.27C424.285 386.078 416.311 386.078 411.405 382.27L402.5 375.355L393.594 382.27C388.689 386.078 380.714 386.078 375.809 382.27C370.904 378.461 370.904 372.27 375.809 368.461L384.714 361.547L375.809 354.633Z" fill="#FB2E7B"/>
<path d="M754.688 488.5C754.688 447.621 714.085 414.438 662.565 411.039L662.54 410.883C659.723 410.668 656.955 410.375 654.062 410.375C598.568 410.375 553.438 445.414 553.438 488.5V722.875H603.75V742.406C603.75 753.188 615.02 761.938 628.906 761.938H679.219C693.105 761.938 704.375 753.188 704.375 742.406V722.875H725.028C740.575 722.875 752.398 712.035 749.832 700.141L717.33 548.793C739.946 534.457 754.688 512.914 754.688 488.5Z" fill="#FB2E7B"/>
<path d="M251.562 488.5C251.562 445.414 206.432 410.375 150.938 410.375C148.045 410.375 145.277 410.668 142.46 410.883L142.435 411.039C90.9147 414.438 50.3125 447.602 50.3125 488.5C50.3125 512.934 65.0541 534.477 87.6695 548.793L55.1928 700.121C52.6269 712.035 64.4503 722.875 79.9969 722.875H100.625V742.406C100.625 753.188 111.895 761.938 125.781 761.938H176.094C189.98 761.938 201.25 753.188 201.25 742.406V722.875H251.562V488.5Z" fill="#FB2E7B"/>
<path d="M528.281 508.031H276.719V547.094H528.281V508.031Z" fill="#FB2E7B"/>
<path d="M528.281 566.625H276.719V722.875H528.281V566.625Z" fill="#FB2E7B"/>
<path d="M150.937 390.844C220.293 390.844 276.719 434.652 276.719 488.5H528.281C528.281 434.652 584.706 390.844 654.062 390.844C655.798 390.844 657.433 391.195 659.169 391.254L646.364 316.762C636.377 258.539 572.405 215.062 496.76 215.062H308.239C232.594 215.062 168.622 258.539 158.635 316.762L145.831 391.254C147.566 391.195 149.202 390.844 150.937 390.844ZM375.809 354.633C370.904 350.824 370.904 344.633 375.809 340.824C380.714 337.016 388.689 337.016 393.594 340.824L402.5 347.738L411.405 340.824C416.311 337.016 424.285 337.016 429.191 340.824C434.096 344.633 434.096 350.824 429.191 354.633L420.285 361.547L429.191 368.461C434.096 372.27 434.096 378.461 429.191 382.27C424.285 386.078 416.311 386.078 411.405 382.27L402.5 375.355L393.594 382.27C388.689 386.078 380.714 386.078 375.809 382.27C370.904 378.461 370.904 372.27 375.809 368.461L384.714 361.547L375.809 354.633Z" fill="#FB2E7B"/>
<path d="M754.688 488.5C754.688 447.621 714.085 414.438 662.565 411.039L662.54 410.883C659.723 410.668 656.955 410.375 654.062 410.375C598.568 410.375 553.438 445.414 553.438 488.5V722.875H603.75V742.406C603.75 753.188 615.02 761.938 628.906 761.938H679.219C693.105 761.938 704.375 753.188 704.375 742.406V722.875H725.028C740.575 722.875 752.398 712.035 749.832 700.141L717.33 548.793C739.946 534.457 754.688 512.914 754.688 488.5Z" fill="#FB2E7B"/>
<path d="M251.562 488.5C251.562 445.414 206.432 410.375 150.938 410.375C148.045 410.375 145.277 410.668 142.46 410.883L142.435 411.039C90.9147 414.438 50.3125 447.602 50.3125 488.5C50.3125 512.934 65.0541 534.477 87.6695 548.793L55.1928 700.121C52.6269 712.035 64.4503 722.875 79.9969 722.875H100.625V742.406C100.625 753.188 111.895 761.938 125.781 761.938H176.094C189.98 761.938 201.25 753.188 201.25 742.406V722.875H251.562V488.5Z" fill="#FB2E7B"/>
<path d="M248.996 487.5V373C256.996 334.6 290.496 302 319.996 302H492.996C524.996 308 558.996 328.5 567.496 379C571.009 399.873 567.496 449.5 567.496 487.5C561.996 527.5 526.496 566.5 492.996 566.5H319.996C283.596 558.1 248.996 520 248.996 487.5Z" fill="#002553" stroke="#002553"/>
<path d="M267.996 484V376C275.996 337.6 304.996 327.667 318.496 327.5H501.496C533.496 333.5 544.829 364.333 546.496 379V490C532.896 534 500.829 544.333 486.496 544H318.496C282.096 535.6 269.663 500.5 267.996 484Z" fill="#2CFDDC" stroke="#2CFDDC"/>
<path fill-rule="evenodd" clip-rule="evenodd" d="M275.996 380V485C279.996 516 299.996 535 330.496 535H485.496C501.996 537 533.996 518 533.996 485V386.5C533.996 367 516.996 338 485.496 337H330.496C316.996 337.167 286.496 341.5 275.996 380ZM285.996 385.063V480.448C289.686 508.609 308.136 525.87 336.271 525.87H479.256C494.477 527.686 523.996 510.426 523.996 480.448V390.967C523.996 373.253 508.314 346.908 479.256 346H336.271C323.818 346.151 295.682 350.088 285.996 385.063Z" fill="#1394B2"/>
<path d="M275.996 485H275.496V485.032L275.5 485.064L275.996 485ZM275.996 380L275.514 379.868L275.496 379.933V380H275.996ZM485.496 535L485.556 534.504L485.526 534.5H485.496V535ZM485.496 337L485.512 336.5L485.504 336.5H485.496V337ZM330.496 337V336.5L330.49 336.5L330.496 337ZM285.996 480.448H285.496V480.481L285.5 480.513L285.996 480.448ZM285.996 385.063L285.514 384.929L285.496 384.995V385.063H285.996ZM479.256 525.87L479.315 525.373L479.286 525.37H479.256V525.87ZM479.256 346L479.271 345.5L479.264 345.5H479.256V346ZM336.271 346V345.5L336.265 345.5L336.271 346ZM276.496 485V380H275.496V485H276.496ZM330.496 534.5C315.354 534.5 302.856 529.786 293.648 521.258C284.438 512.728 278.48 500.344 276.492 484.936L275.5 485.064C277.512 500.656 283.554 513.272 292.969 521.992C302.386 530.714 315.138 535.5 330.496 535.5V534.5ZM485.496 534.5H330.496V535.5H485.496V534.5ZM533.496 485C533.496 501.326 525.583 514.195 515.608 522.745C505.612 531.314 493.622 535.481 485.556 534.504L485.436 535.496C493.871 536.519 506.131 532.186 516.259 523.505C526.409 514.805 534.496 501.674 534.496 485H533.496ZM533.496 386.5V485H534.496V386.5H533.496ZM485.48 337.5C501.066 337.995 513.064 345.412 521.175 355.133C529.295 364.864 533.496 376.878 533.496 386.5H534.496C534.496 376.622 530.197 364.386 521.943 354.492C513.678 344.588 501.426 337.005 485.512 336.5L485.48 337.5ZM330.496 337.5H485.496V336.5H330.496V337.5ZM276.478 380.132C281.693 361.01 291.858 350.413 302.364 344.562C312.888 338.702 323.794 337.583 330.502 337.5L330.49 336.5C323.698 336.584 312.604 337.715 301.878 343.688C291.134 349.671 280.799 360.49 275.514 379.868L276.478 380.132ZM286.496 480.448V385.063H285.496V480.448H286.496ZM336.271 525.37C322.309 525.37 310.789 521.089 302.303 513.35C293.816 505.609 288.325 494.37 286.492 480.383L285.5 480.513C287.358 494.687 292.936 506.159 301.63 514.089C310.325 522.02 322.098 526.37 336.271 526.37V525.37ZM479.256 525.37H336.271V526.37H479.256V525.37ZM523.496 480.448C523.496 495.26 516.206 506.938 507.011 514.7C497.795 522.479 486.744 526.26 479.315 525.373L479.197 526.366C486.989 527.296 498.307 523.355 507.656 515.464C517.026 507.555 524.496 495.614 524.496 480.448H523.496ZM523.496 390.967V480.448H524.496V390.967H523.496ZM479.24 346.5C493.608 346.949 504.666 353.683 512.141 362.505C519.626 371.338 523.496 382.241 523.496 390.967H524.496C524.496 381.98 520.525 370.853 512.904 361.858C505.273 352.852 493.962 345.959 479.271 345.5L479.24 346.5ZM336.271 346.5H479.256V345.5H336.271V346.5ZM286.478 385.196C291.285 367.839 300.653 358.221 310.336 352.911C320.037 347.591 330.092 346.575 336.277 346.5L336.265 345.5C329.997 345.576 319.757 346.604 309.855 352.034C299.936 357.474 290.393 367.311 285.514 384.929L286.478 385.196Z" fill="#1394B2"/>
<path d="M323.821 484.816L374.311 436.322C376.784 433.946 375.367 430.832 371.392 428.292C360.831 417.685 336.048 392.735 321.397 377.787C320.411 356.576 338.136 354.12 347.122 355.544C366.597 374.741 408.22 415.762 418.915 426.27C433.662 431.618 424.474 436.993 418.284 439.264C399.096 457.905 354.141 502.893 345.574 509.536C337.006 516.18 315.656 501.235 323.821 484.816Z" fill="#FB3E81"/>
<path d="M323.821 484.816L374.311 436.322C376.784 433.946 375.367 430.832 371.392 428.292C360.831 417.685 336.048 392.735 321.397 377.787C320.411 356.576 338.136 354.12 347.122 355.544C366.597 374.741 408.22 415.762 418.915 426.27C433.662 431.618 424.474 436.993 418.284 439.264C399.096 457.905 354.141 502.893 345.574 509.536C337.006 516.18 315.656 501.235 323.821 484.816Z" fill="#FB3E81"/>
<path d="M323.821 484.816L374.311 436.322C376.784 433.946 375.367 430.832 371.392 428.292C360.831 417.685 336.048 392.735 321.397 377.787C320.411 356.576 338.136 354.12 347.122 355.544C366.597 374.741 408.22 415.762 418.915 426.27C433.662 431.618 424.474 436.993 418.284 439.264C399.096 457.905 354.141 502.893 345.574 509.536C337.006 516.18 315.656 501.235 323.821 484.816Z" stroke="#FB3E81"/>
<path d="M481.308 484.827L428.758 438.585C426.184 436.32 427.462 433.145 431.319 430.432C441.398 419.368 465.047 393.345 479.019 377.764C479.071 356.524 461.263 354.849 452.352 356.667C433.751 376.707 393.994 419.529 383.777 430.5C369.287 436.493 378.698 441.46 384.978 443.458C404.959 461.243 451.828 504.224 460.675 510.486C469.522 516.748 490.185 500.876 481.308 484.827Z" fill="#FB3E81"/>
<path d="M481.308 484.827L428.758 438.585C426.184 436.32 427.462 433.145 431.319 430.432C441.398 419.368 465.047 393.345 479.019 377.764C479.071 356.524 461.263 354.849 452.352 356.667C433.751 376.707 393.994 419.529 383.777 430.5C369.287 436.493 378.698 441.46 384.978 443.458C404.959 461.243 451.828 504.224 460.675 510.486C469.522 516.748 490.185 500.876 481.308 484.827Z" fill="#FB3E81"/>
<path d="M481.308 484.827L428.758 438.585C426.184 436.32 427.462 433.145 431.319 430.432C441.398 419.368 465.047 393.345 479.019 377.764C479.071 356.524 461.263 354.849 452.352 356.667C433.751 376.707 393.994 419.529 383.777 430.5C369.287 436.493 378.698 441.46 384.978 443.458C404.959 461.243 451.828 504.224 460.675 510.486C469.522 516.748 490.185 500.876 481.308 484.827Z" stroke="#FB3E81"/>
<path d="M219.112 173C223.305 60.8598 320.112 1 402.492 1C498.612 1 580.112 69.5 586.612 173C593.112 276.5 500.601 347.5 405.112 351C315.886 354.271 215.111 280 219.112 173Z" fill="#035593" stroke="black"/>
<path d="M239.112 169C246.112 57 353.112 19.5 402.112 19.5C455.112 19.5 561.112 65.5 567.612 169C574.112 272.5 481.601 331 406.612 331C382.577 331 230.143 312.5 239.112 169Z" fill="#2CFDDC" stroke="black"/>
<path d="M420.005 21.1432C332.505 11.1433 278.505 69.1432 260.005 101.643C256.305 108.143 263.005 121.643 276.505 115.143C315.705 49.1432 391.172 38.9765 424.005 42.1432C432.505 36.1433 430.102 22.2971 420.005 21.1432Z" fill="white" stroke="#FDFFFF"/>
<path d="M304.715 135.425C304.715 158.525 317.145 192.125 355.106 192.125C393.067 192.125 405.497 158.525 405.497 135.425C405.497 64.025 304.715 64.025 304.715 135.425Z" fill="#DDE8E3"/>
<path d="M405.497 135.425C405.497 158.525 417.926 192.125 455.887 192.125C493.848 192.125 506.278 158.525 506.278 135.425C506.278 64.025 405.497 64.025 405.497 135.425Z" fill="#DDE8E3"/>
<path d="M307.403 137.263C307.403 157.213 315.465 187.925 347.715 187.925C379.965 187.925 388.028 156.95 388.028 137.263C387.692 69.0125 307.403 69.0125 307.403 137.263Z" fill="white"/>
<path d="M408.184 137.263C408.184 157.213 416.247 187.925 448.497 187.925C480.747 187.925 488.809 156.95 488.809 137.263C488.473 69.0125 408.184 69.0125 408.184 137.263Z" fill="white"/>
<path d="M312 164.925C312 181.2 326.781 193.8 344.586 193.8C362.727 193.8 377.172 181.2 377.172 164.925C377.172 125.025 312 125.025 312 164.925Z" fill="#493B30"/>
<path d="M415 166.925C415 183.2 429.781 195.8 447.586 195.8C465.727 195.8 480.172 183.2 480.172 166.925C480.172 127.025 415 127.025 415 166.925Z" fill="#493B30"/>
<path d="M480 634C509.271 634 533 604.451 533 568C533 531.549 509.271 502 480 502C450.729 502 427 531.549 427 568C427 604.451 450.729 634 480 634Z" fill="#545454"/>
<path d="M350 635C379.271 635 403 605.451 403 569C403 532.549 379.271 503 350 503C320.729 503 297 532.549 297 569C297 605.451 320.729 635 350 635Z" fill="#545454"/>
<path d="M397.997 306C360.442 306 329.997 288.539 329.997 267H465.997C465.997 288.539 435.551 306 397.997 306Z" fill="#7F184C"/>
<path d="M352.997 267V273.238C352.997 275.868 356.667 278 361.193 278H448.8C453.327 278 456.997 275.868 456.997 273.238V267H352.997Z" fill="#F2F2F2"/>
<path d="M406.165 289.404C387.834 284.381 367.492 285.11 350.997 290.321C363.392 299.85 382.884 306 404.82 306C414.487 306 423.674 304.799 431.997 302.649C425.89 297.075 417.135 292.411 406.165 289.404Z" fill="#FC4C59"/>
<path d="M329.997 266.933C329.997 290.68 363.641 310 404.997 310C446.352 310 479.997 290.68 479.997 266.933C479.997 264.761 476.93 263 473.147 263H336.846C333.064 263 329.997 264.761 329.997 266.933ZM465.919 270.866C462.502 288.432 436.484 302.134 404.997 302.134C373.509 302.134 347.491 288.432 344.075 270.866H465.919Z" fill="black"/>
<path d="M500.549 336.597C476.942 297.815 440.944 274.708 425.896 268.002L374.127 381.356C377.846 388.388 393.318 419.82 407.969 445.311C434.987 480.15 472.078 485.59 496.793 482.878C553.191 469.836 546.24 420.629 535.715 397.656C533.097 392.127 522.399 372.175 500.549 336.597Z" fill="#091336" stroke="#031D4B"/>
<path d="M488.351 353.025C470.78 321.001 441.747 298.408 429.427 291.115L394.402 376.616C404.896 395.742 427.352 436.064 433.228 444.347C440.573 454.701 472.975 466 489.153 462.889C518.476 455.082 520.092 424.52 517.234 410.215C512.424 400.186 499.914 374.706 488.351 353.025Z" fill="#2DEFD0" stroke="#2DEFD0"/>
<path d="M487.287 464.037C510.64 459.903 507.803 444.574 503.465 437.426C498.896 428.339 483.167 421.656 473.495 423.739C462.537 424.234 451.118 436.018 452.877 448.321C455.416 455.981 471.499 464.826 487.287 464.037Z" fill="#FB2E7B" stroke="#FB2E7B"/>
<path d="M507.552 390.293L515.77 407.547C460.242 385.786 430.158 409.946 422.057 424.745C420.774 422.659 416.597 415.552 410.155 403.81C442.34 372.11 488.497 381.591 507.552 390.293Z" fill="#0B1232" stroke="#0B1231"/>
<path d="M481.75 389.509L487.618 398.689C465.211 396.055 444.934 404.028 437.597 408.344C436.436 406.48 433.601 401.819 431.552 398.082C445.155 387.096 470.685 387.789 481.75 389.509Z" fill="#FB3E81" stroke="#FB3E81"/>
<path d="M471.843 397.984L466.907 388.23L459.845 389.005L465.336 399.013L471.843 397.984Z" fill="#50094F" stroke="#50094F"/>
<path d="M444.6 391.542L449.524 402.791L437.232 407.676L431.552 398.083L444.6 391.542Z" fill="#50094F" stroke="#50094F"/>
<path d="M261.712 375.637C263.499 333.113 283.06 299.495 292.616 288.002L389.238 366.699C389.387 374.198 391.027 407.281 390.582 434.906C384.076 475.301 355.339 494.019 333.23 501C279.576 510.99 262.445 465.718 260.587 441.834C260.211 436.054 259.91 414.723 261.712 375.637Z" fill="#091336" stroke="#031D4B"/>
<path d="M279.675 385.27C279.529 350.881 293.456 320.339 300.438 309.366L369.925 370.246C370.012 390.784 369.915 434.209 368.831 443.607C367.475 455.354 345.429 477.38 330.333 480.791C301.956 485.096 286.314 459.218 282.04 445.742C281.41 435.233 280.054 408.426 279.675 385.27Z" fill="#2DEFD0" stroke="#2DEFD0"/>
<path d="M332.442 481.082C310.817 486.316 306.047 471.959 306.366 464.127C305.973 454.526 316.115 442.795 325.244 440.948C334.716 437.24 349.852 443.142 354.117 454.47C355.555 462.067 346.125 475.805 332.442 481.082Z" fill="#FB2E7B" stroke="#FB2E7B"/>
<path d="M280.897 424.82L282.027 442.876C318.687 403.051 355.345 412.632 369.092 422.401C369.199 420.108 369.401 412.371 369.347 399.762C327.394 384.44 292.899 410.083 280.897 424.82Z" fill="#0B1232" stroke="#0B1231"/>
<path d="M302.289 414.399L301.629 424.571C319.295 413.828 340.119 413.082 348.323 414.053C348.431 411.999 348.644 406.889 348.627 402.877C332.022 398.491 310.816 408.731 302.289 414.399Z" fill="#FB3E81" stroke="#FB3E81"/>
<path d="M314.604 418.003L314.209 407.686L320.526 405.692L320.571 416.438L314.604 418.003Z" fill="#50094F" stroke="#50094F"/>
<path d="M334.567 402.135L335.671 413.743L348.32 413.336L348.627 402.877L334.567 402.135Z" fill="#50094F" stroke="#50094F"/>
<path fill-rule="evenodd" clip-rule="evenodd" d="M188.917 492.74C188.917 486.793 195.76 481.974 204.201 481.974H611.799C620.24 481.974 627.083 486.793 627.083 492.74C627.083 498.686 620.24 503.507 611.799 503.507H204.201C195.76 503.507 188.917 498.686 188.917 492.74Z" fill="#1C274C"/>
<path d="M242.495 261.114C224.588 273.728 224.588 294.03 224.588 334.633V406.412C224.588 433.48 224.588 447.015 236.526 455.424C248.464 463.833 267.679 463.833 306.107 463.833H509.906C548.335 463.833 567.549 463.833 579.487 455.424C591.425 447.015 591.425 433.48 591.425 406.412V334.633C591.425 294.03 591.425 273.728 573.518 261.114C555.61 248.5 526.789 248.5 469.146 248.5H346.867C289.224 248.5 260.402 248.5 242.495 261.114Z" fill="#091336"/>
<path d="M346.866 410.006C338.425 410.006 331.582 414.827 331.582 420.772C331.582 426.718 338.425 431.539 346.866 431.539H469.146C477.587 431.539 484.43 426.718 484.43 420.772C484.43 414.827 477.587 410.006 469.146 410.006H346.866Z" fill="#1C274C"/>
<path d="M294.364 380.636C289.939 380.636 285.924 379.803 282.318 378.136C278.712 376.439 275.848 374 273.727 370.818C271.606 367.606 270.545 363.727 270.545 359.182C270.545 355.182 271.333 351.939 272.909 349.455C274.485 346.939 276.591 344.97 279.227 343.545C281.864 342.121 284.773 341.061 287.955 340.364C291.167 339.636 294.394 339.061 297.636 338.636C301.879 338.091 305.318 337.682 307.955 337.409C310.621 337.106 312.561 336.606 313.773 335.909C315.015 335.212 315.636 334 315.636 332.273V331.909C315.636 327.424 314.409 323.939 311.955 321.455C309.53 318.97 305.848 317.727 300.909 317.727C295.788 317.727 291.773 318.848 288.864 321.091C285.955 323.333 283.909 325.727 282.727 328.273L272.545 324.636C274.364 320.394 276.788 317.091 279.818 314.727C282.879 312.333 286.212 310.667 289.818 309.727C293.455 308.758 297.03 308.273 300.545 308.273C302.788 308.273 305.364 308.545 308.273 309.091C311.212 309.606 314.045 310.682 316.773 312.318C319.53 313.955 321.818 316.424 323.636 319.727C325.455 323.03 326.364 327.455 326.364 333V379H315.636V369.545H315.091C314.364 371.061 313.152 372.682 311.455 374.409C309.758 376.136 307.5 377.606 304.682 378.818C301.864 380.03 298.424 380.636 294.364 380.636ZM296 371C300.242 371 303.818 370.167 306.727 368.5C309.667 366.833 311.879 364.682 313.364 362.045C314.879 359.409 315.636 356.636 315.636 353.727V343.909C315.182 344.455 314.182 344.955 312.636 345.409C311.121 345.833 309.364 346.212 307.364 346.545C305.394 346.848 303.47 347.121 301.591 347.364C299.742 347.576 298.242 347.758 297.091 347.909C294.303 348.273 291.697 348.864 289.273 349.682C286.879 350.47 284.939 351.667 283.455 353.273C282 354.848 281.273 357 281.273 359.727C281.273 363.455 282.652 366.273 285.409 368.182C288.197 370.061 291.727 371 296 371ZM446.307 380.455C439.761 380.455 434.125 378.909 429.398 375.818C424.67 372.727 421.034 368.47 418.489 363.045C415.943 357.621 414.67 351.424 414.67 344.455C414.67 337.364 415.973 331.106 418.58 325.682C421.216 320.227 424.883 315.97 429.58 312.909C434.307 309.818 439.822 308.273 446.125 308.273C451.034 308.273 455.458 309.182 459.398 311C463.337 312.818 466.564 315.364 469.08 318.636C471.595 321.909 473.155 325.727 473.761 330.091H463.034C462.216 326.909 460.398 324.091 457.58 321.636C454.792 319.152 451.034 317.909 446.307 317.909C442.125 317.909 438.458 319 435.307 321.182C432.186 323.333 429.746 326.379 427.989 330.318C426.261 334.227 425.398 338.818 425.398 344.091C425.398 349.485 426.246 354.182 427.943 358.182C429.67 362.182 432.095 365.288 435.216 367.5C438.367 369.712 442.064 370.818 446.307 370.818C449.095 370.818 451.625 370.333 453.898 369.364C456.17 368.394 458.095 367 459.67 365.182C461.246 363.364 462.367 361.182 463.034 358.636H473.761C473.155 362.758 471.655 366.47 469.261 369.773C466.898 373.045 463.761 375.652 459.852 377.591C455.973 379.5 451.458 380.455 446.307 380.455ZM496.352 405.182C494.534 405.182 492.913 405.03 491.489 404.727C490.064 404.455 489.08 404.182 488.534 403.909L491.261 394.455C493.867 395.121 496.17 395.364 498.17 395.182C500.17 395 501.943 394.106 503.489 392.5C505.064 390.924 506.504 388.364 507.807 384.818L509.807 379.364L483.989 309.182H495.625L514.898 364.818H515.625L534.898 309.182H546.534L516.898 389.182C515.564 392.788 513.913 395.773 511.943 398.136C509.973 400.53 507.686 402.303 505.08 403.455C502.504 404.606 499.595 405.182 496.352 405.182Z" fill="white"/>
<path d="M356.818 309.182L373.545 337.727L390.273 309.182H402.636L380.091 344.091L402.636 379H390.273L373.545 351.909L356.818 379H344.455L366.636 344.091L344.455 309.182H356.818Z" fill="#2CFDDC"/>
</svg>
