<svg width="805" height="801" viewBox="0 0 805 801" fill="none" xmlns="http://www.w3.org/2000/svg">
<path d="M528.281 508.031H276.719V547.094H528.281V508.031Z" fill="#FB2E7B"/>
<path d="M528.281 566.625H276.719V722.875H528.281V566.625Z" fill="#FB2E7B"/>
<path d="M150.937 390.844C220.293 390.844 276.719 434.652 276.719 488.5H528.281C528.281 434.652 584.706 390.844 654.062 390.844C655.798 390.844 657.433 391.195 659.169 391.254L646.364 316.762C636.377 258.539 572.405 215.062 496.76 215.062H308.239C232.594 215.062 168.622 258.539 158.635 316.762L145.831 391.254C147.566 391.195 149.202 390.844 150.937 390.844ZM375.809 354.633C370.904 350.824 370.904 344.633 375.809 340.824C380.714 337.016 388.689 337.016 393.594 340.824L402.5 347.738L411.405 340.824C416.311 337.016 424.285 337.016 429.191 340.824C434.096 344.633 434.096 350.824 429.191 354.633L420.285 361.547L429.191 368.461C434.096 372.27 434.096 378.461 429.191 382.27C424.285 386.078 416.311 386.078 411.405 382.27L402.5 375.355L393.594 382.27C388.689 386.078 380.714 386.078 375.809 382.27C370.904 378.461 370.904 372.27 375.809 368.461L384.714 361.547L375.809 354.633Z" fill="#FB2E7B"/>
<path d="M754.688 488.5C754.688 447.621 714.085 414.438 662.565 411.039L662.54 410.883C659.723 410.668 656.955 410.375 654.062 410.375C598.568 410.375 553.438 445.414 553.438 488.5V722.875H603.75V742.406C603.75 753.188 615.02 761.938 628.906 761.938H679.219C693.105 761.938 704.375 753.188 704.375 742.406V722.875H725.028C740.575 722.875 752.398 712.035 749.832 700.141L717.33 548.793C739.946 534.457 754.688 512.914 754.688 488.5Z" fill="#FB2E7B"/>
<path d="M251.562 488.5C251.562 445.414 206.432 410.375 150.938 410.375C148.045 410.375 145.277 410.668 142.46 410.883L142.435 411.039C90.9147 414.438 50.3125 447.602 50.3125 488.5C50.3125 512.934 65.0541 534.477 87.6695 548.793L55.1928 700.121C52.6269 712.035 64.4503 722.875 79.9969 722.875H100.625V742.406C100.625 753.188 111.895 761.938 125.781 761.938H176.094C189.98 761.938 201.25 753.188 201.25 742.406V722.875H251.562V488.5Z" fill="#FB2E7B"/>
<path d="M528.281 508.031H276.719V547.094H528.281V508.031Z" fill="#FB2E7B"/>
<path d="M528.281 566.625H276.719V722.875H528.281V566.625Z" fill="#FB2E7B"/>
<path d="M150.937 390.844C220.293 390.844 276.719 434.652 276.719 488.5H528.281C528.281 434.652 584.706 390.844 654.062 390.844C655.798 390.844 657.433 391.195 659.169 391.254L646.364 316.762C636.377 258.539 572.405 215.062 496.76 215.062H308.239C232.594 215.062 168.622 258.539 158.635 316.762L145.831 391.254C147.566 391.195 149.202 390.844 150.937 390.844ZM375.809 354.633C370.904 350.824 370.904 344.633 375.809 340.824C380.714 337.016 388.689 337.016 393.594 340.824L402.5 347.738L411.405 340.824C416.311 337.016 424.285 337.016 429.191 340.824C434.096 344.633 434.096 350.824 429.191 354.633L420.285 361.547L429.191 368.461C434.096 372.27 434.096 378.461 429.191 382.27C424.285 386.078 416.311 386.078 411.405 382.27L402.5 375.355L393.594 382.27C388.689 386.078 380.714 386.078 375.809 382.27C370.904 378.461 370.904 372.27 375.809 368.461L384.714 361.547L375.809 354.633Z" fill="#FB2E7B"/>
<path d="M754.688 488.5C754.688 447.621 714.085 414.438 662.565 411.039L662.54 410.883C659.723 410.668 656.955 410.375 654.062 410.375C598.568 410.375 553.438 445.414 553.438 488.5V722.875H603.75V742.406C603.75 753.188 615.02 761.938 628.906 761.938H679.219C693.105 761.938 704.375 753.188 704.375 742.406V722.875H725.028C740.575 722.875 752.398 712.035 749.832 700.141L717.33 548.793C739.946 534.457 754.688 512.914 754.688 488.5Z" fill="#FB2E7B"/>
<path d="M251.562 488.5C251.562 445.414 206.432 410.375 150.938 410.375C148.045 410.375 145.277 410.668 142.46 410.883L142.435 411.039C90.9147 414.438 50.3125 447.602 50.3125 488.5C50.3125 512.934 65.0541 534.477 87.6695 548.793L55.1928 700.121C52.6269 712.035 64.4503 722.875 79.9969 722.875H100.625V742.406C100.625 753.188 111.895 761.938 125.781 761.938H176.094C189.98 761.938 201.25 753.188 201.25 742.406V722.875H251.562V488.5Z" fill="#FB2E7B"/>
<path d="M248.996 487.5V373C256.996 334.6 290.496 302 319.996 302H492.996C524.996 308 558.996 328.5 567.496 379C571.009 399.873 567.496 449.5 567.496 487.5C561.996 527.5 526.496 566.5 492.996 566.5H319.996C283.596 558.1 248.996 520 248.996 487.5Z" fill="#002553" stroke="#002553"/>
<path d="M267.996 484V376C275.996 337.6 304.996 327.667 318.496 327.5H501.496C533.496 333.5 544.829 364.333 546.496 379V490C532.896 534 500.829 544.333 486.496 544H318.496C282.096 535.6 269.663 500.5 267.996 484Z" fill="#2CFDDC" stroke="#2CFDDC"/>
<path fill-rule="evenodd" clip-rule="evenodd" d="M275.996 380V485C279.996 516 299.996 535 330.496 535H485.496C501.996 537 533.996 518 533.996 485V386.5C533.996 367 516.996 338 485.496 337H330.496C316.996 337.167 286.496 341.5 275.996 380ZM285.996 385.063V480.448C289.686 508.609 308.136 525.87 336.271 525.87H479.256C494.477 527.686 523.996 510.426 523.996 480.448V390.967C523.996 373.253 508.314 346.908 479.256 346H336.271C323.818 346.151 295.682 350.088 285.996 385.063Z" fill="#1394B2"/>
<path d="M275.996 485H275.496V485.032L275.5 485.064L275.996 485ZM275.996 380L275.514 379.868L275.496 379.933V380H275.996ZM485.496 535L485.556 534.504L485.526 534.5H485.496V535ZM485.496 337L485.512 336.5L485.504 336.5H485.496V337ZM330.496 337V336.5L330.49 336.5L330.496 337ZM285.996 480.448H285.496V480.481L285.5 480.513L285.996 480.448ZM285.996 385.063L285.514 384.929L285.496 384.995V385.063H285.996ZM479.256 525.87L479.315 525.373L479.286 525.37H479.256V525.87ZM479.256 346L479.271 345.5L479.264 345.5H479.256V346ZM336.271 346V345.5L336.265 345.5L336.271 346ZM276.496 485V380H275.496V485H276.496ZM330.496 534.5C315.354 534.5 302.856 529.786 293.648 521.258C284.438 512.728 278.48 500.344 276.492 484.936L275.5 485.064C277.512 500.656 283.554 513.272 292.969 521.992C302.386 530.714 315.138 535.5 330.496 535.5V534.5ZM485.496 534.5H330.496V535.5H485.496V534.5ZM533.496 485C533.496 501.326 525.583 514.195 515.608 522.745C505.612 531.314 493.622 535.481 485.556 534.504L485.436 535.496C493.871 536.519 506.131 532.186 516.259 523.505C526.409 514.805 534.496 501.674 534.496 485H533.496ZM533.496 386.5V485H534.496V386.5H533.496ZM485.48 337.5C501.066 337.995 513.064 345.412 521.175 355.133C529.295 364.864 533.496 376.878 533.496 386.5H534.496C534.496 376.622 530.197 364.386 521.943 354.492C513.678 344.588 501.426 337.005 485.512 336.5L485.48 337.5ZM330.496 337.5H485.496V336.5H330.496V337.5ZM276.478 380.132C281.693 361.01 291.858 350.413 302.364 344.562C312.888 338.702 323.794 337.583 330.502 337.5L330.49 336.5C323.698 336.584 312.604 337.715 301.878 343.688C291.134 349.671 280.799 360.49 275.514 379.868L276.478 380.132ZM286.496 480.448V385.063H285.496V480.448H286.496ZM336.271 525.37C322.309 525.37 310.789 521.089 302.303 513.35C293.816 505.609 288.325 494.37 286.492 480.383L285.5 480.513C287.358 494.687 292.936 506.159 301.63 514.089C310.325 522.02 322.098 526.37 336.271 526.37V525.37ZM479.256 525.37H336.271V526.37H479.256V525.37ZM523.496 480.448C523.496 495.26 516.206 506.938 507.011 514.7C497.795 522.479 486.744 526.26 479.315 525.373L479.197 526.366C486.989 527.296 498.307 523.355 507.656 515.464C517.026 507.555 524.496 495.614 524.496 480.448H523.496ZM523.496 390.967V480.448H524.496V390.967H523.496ZM479.24 346.5C493.608 346.949 504.666 353.683 512.141 362.505C519.626 371.338 523.496 382.241 523.496 390.967H524.496C524.496 381.98 520.525 370.853 512.904 361.858C505.273 352.852 493.962 345.959 479.271 345.5L479.24 346.5ZM336.271 346.5H479.256V345.5H336.271V346.5ZM286.478 385.196C291.285 367.839 300.653 358.221 310.336 352.911C320.037 347.591 330.092 346.575 336.277 346.5L336.265 345.5C329.997 345.576 319.757 346.604 309.855 352.034C299.936 357.474 290.393 367.311 285.514 384.929L286.478 385.196Z" fill="#1394B2"/>
<path d="M323.821 484.816L374.311 436.322C376.784 433.946 375.367 430.832 371.392 428.292C360.831 417.685 336.048 392.735 321.397 377.787C320.411 356.576 338.136 354.12 347.122 355.544C366.597 374.741 408.22 415.762 418.915 426.27C433.662 431.618 424.474 436.993 418.284 439.264C399.096 457.905 354.141 502.893 345.574 509.536C337.006 516.18 315.656 501.235 323.821 484.816Z" fill="#FB3E81"/>
<path d="M323.821 484.816L374.311 436.322C376.784 433.946 375.367 430.832 371.392 428.292C360.831 417.685 336.048 392.735 321.397 377.787C320.411 356.576 338.136 354.12 347.122 355.544C366.597 374.741 408.22 415.762 418.915 426.27C433.662 431.618 424.474 436.993 418.284 439.264C399.096 457.905 354.141 502.893 345.574 509.536C337.006 516.18 315.656 501.235 323.821 484.816Z" fill="#FB3E81"/>
<path d="M323.821 484.816L374.311 436.322C376.784 433.946 375.367 430.832 371.392 428.292C360.831 417.685 336.048 392.735 321.397 377.787C320.411 356.576 338.136 354.12 347.122 355.544C366.597 374.741 408.22 415.762 418.915 426.27C433.662 431.618 424.474 436.993 418.284 439.264C399.096 457.905 354.141 502.893 345.574 509.536C337.006 516.18 315.656 501.235 323.821 484.816Z" stroke="#FB3E81"/>
<path d="M481.308 484.827L428.758 438.585C426.184 436.32 427.462 433.145 431.319 430.432C441.398 419.368 465.047 393.345 479.019 377.764C479.071 356.524 461.263 354.849 452.352 356.667C433.751 376.707 393.994 419.529 383.777 430.5C369.287 436.493 378.698 441.46 384.978 443.458C404.959 461.243 451.828 504.224 460.675 510.486C469.522 516.748 490.185 500.876 481.308 484.827Z" fill="#FB3E81"/>
<path d="M481.308 484.827L428.758 438.585C426.184 436.32 427.462 433.145 431.319 430.432C441.398 419.368 465.047 393.345 479.019 377.764C479.071 356.524 461.263 354.849 452.352 356.667C433.751 376.707 393.994 419.529 383.777 430.5C369.287 436.493 378.698 441.46 384.978 443.458C404.959 461.243 451.828 504.224 460.675 510.486C469.522 516.748 490.185 500.876 481.308 484.827Z" fill="#FB3E81"/>
<path d="M481.308 484.827L428.758 438.585C426.184 436.32 427.462 433.145 431.319 430.432C441.398 419.368 465.047 393.345 479.019 377.764C479.071 356.524 461.263 354.849 452.352 356.667C433.751 376.707 393.994 419.529 383.777 430.5C369.287 436.493 378.698 441.46 384.978 443.458C404.959 461.243 451.828 504.224 460.675 510.486C469.522 516.748 490.185 500.876 481.308 484.827Z" stroke="#FB3E81"/>
<path d="M219.112 173C223.305 60.8598 320.112 1 402.492 1C498.612 1 580.112 69.5 586.612 173C593.112 276.5 500.601 347.5 405.112 351C315.886 354.271 215.111 280 219.112 173Z" fill="#035593" stroke="black"/>
<path d="M239.112 169C246.112 57 353.112 19.5 402.112 19.5C455.112 19.5 561.112 65.5 567.612 169C574.112 272.5 481.601 331 406.612 331C382.577 331 230.143 312.5 239.112 169Z" fill="#2CFDDC" stroke="black"/>
<path d="M420.005 21.1432C332.505 11.1433 278.505 69.1432 260.005 101.643C256.305 108.143 263.005 121.643 276.505 115.143C315.705 49.1432 391.172 38.9765 424.005 42.1432C432.505 36.1433 430.102 22.2971 420.005 21.1432Z" fill="white" stroke="#FDFFFF"/>
<path d="M304.715 135.425C304.715 158.525 317.145 192.125 355.106 192.125C393.067 192.125 405.497 158.525 405.497 135.425C405.497 64.025 304.715 64.025 304.715 135.425Z" fill="#DDE8E3"/>
<path d="M405.497 135.425C405.497 158.525 417.926 192.125 455.887 192.125C493.848 192.125 506.278 158.525 506.278 135.425C506.278 64.025 405.497 64.025 405.497 135.425Z" fill="#DDE8E3"/>
<path d="M307.403 137.263C307.403 157.213 315.465 187.925 347.715 187.925C379.965 187.925 388.028 156.95 388.028 137.263C387.692 69.0125 307.403 69.0125 307.403 137.263Z" fill="white"/>
<path d="M408.184 137.263C408.184 157.213 416.247 187.925 448.497 187.925C480.747 187.925 488.809 156.95 488.809 137.263C488.473 69.0125 408.184 69.0125 408.184 137.263Z" fill="white"/>
<path d="M334 162.925C334 179.2 348.781 191.8 366.586 191.8C384.727 191.8 399.172 179.2 399.172 162.925C399.172 123.025 334 123.025 334 162.925Z" fill="#493B30"/>
<path d="M433 162.925C433 179.2 447.781 191.8 465.586 191.8C483.727 191.8 498.172 179.2 498.172 162.925C498.172 123.025 433 123.025 433 162.925Z" fill="#493B30"/>
<path d="M480 634C509.271 634 533 604.451 533 568C533 531.549 509.271 502 480 502C450.729 502 427 531.549 427 568C427 604.451 450.729 634 480 634Z" fill="#545454"/>
<path d="M350 635C379.271 635 403 605.451 403 569C403 532.549 379.271 503 350 503C320.729 503 297 532.549 297 569C297 605.451 320.729 635 350 635Z" fill="#545454"/>
<path d="M397.997 306C360.442 306 329.997 288.539 329.997 267H465.997C465.997 288.539 435.551 306 397.997 306Z" fill="#7F184C"/>
<path d="M352.997 267V273.238C352.997 275.868 356.667 278 361.193 278H448.8C453.327 278 456.997 275.868 456.997 273.238V267H352.997Z" fill="#F2F2F2"/>
<path d="M406.165 289.404C387.834 284.381 367.492 285.11 350.997 290.321C363.392 299.85 382.884 306 404.82 306C414.487 306 423.674 304.799 431.997 302.649C425.89 297.075 417.135 292.411 406.165 289.404Z" fill="#FC4C59"/>
<path d="M329.997 266.933C329.997 290.68 363.641 310 404.997 310C446.352 310 479.997 290.68 479.997 266.933C479.997 264.761 476.93 263 473.147 263H336.846C333.064 263 329.997 264.761 329.997 266.933ZM465.919 270.866C462.502 288.432 436.484 302.134 404.997 302.134C373.509 302.134 347.491 288.432 344.075 270.866H465.919Z" fill="black"/>
<path d="M531.102 379.354C529.493 333.981 509.409 296.214 499.567 283.002L398.948 356.519C398.751 364.472 396.861 399.454 397.164 428.855C403.676 472.458 433.359 495.354 456.24 505.084C511.805 521.31 529.824 474.996 531.888 449.811C532.311 443.709 532.746 421.074 531.102 379.354Z" fill="#091336" stroke="#031D4B"/>
<path d="M512.425 387.711C512.773 351.185 498.511 317.275 491.336 304.885L418.949 362.308C418.741 384.122 418.592 430.276 419.663 440.375C421.001 452.999 443.729 478.71 459.36 483.913C488.752 491.455 505.117 465.594 509.625 451.72C510.339 440.62 511.898 412.277 512.425 387.711Z" fill="#2DEFD0" stroke="#2DEFD0"/>
<path d="M457.171 484.001C479.559 491.824 484.587 477.068 484.302 468.712C484.764 458.551 474.318 445.025 464.864 442.109C455.066 437.178 439.34 441.867 434.854 453.457C433.319 461.379 443.016 476.963 457.171 484.001Z" fill="#FB2E7B" stroke="#FB2E7B"/>
<path d="M510.931 429.608L509.655 448.676C471.879 402.526 433.821 408.872 419.514 417.815C419.415 415.367 419.251 407.125 419.379 393.732C462.96 381.839 498.572 412.694 510.931 429.608Z" fill="#0B1232" stroke="#0B1231"/>
<path d="M488.814 416.298L489.439 427.176C471.187 413.913 449.603 410.943 441.092 411.116C440.992 408.922 440.801 403.47 440.842 399.209C458.081 396.285 480.006 409.383 488.814 416.298Z" fill="#FB3E81" stroke="#FB3E81"/>
<path d="M476.026 418.841L476.495 407.919L469.958 405.139L469.849 416.553L476.026 418.841Z" fill="#50094F" stroke="#50094F"/>
<path d="M455.421 399.891L454.211 412.11L441.1 410.355L440.842 399.209L455.421 399.891Z" fill="#50094F" stroke="#50094F"/>
<path d="M289.452 353.763C295.847 311.684 318.942 280.39 329.69 270.002L417.195 358.726C416.529 366.197 414.566 399.262 411.124 426.675C400.27 466.125 369.671 481.612 346.934 486.151C292.512 490.255 280.399 443.391 281.146 419.446C281.4 413.66 283.416 392.422 289.452 353.763Z" fill="#091336" stroke="#031D4B"/>
<path d="M306.263 365.29C309.852 331.088 327.014 302.239 335.146 292.089L397.611 360.155C395.467 380.581 390.655 423.739 388.557 432.963C385.933 444.493 361.626 463.995 346.248 465.747C317.572 466.945 304.833 439.522 302.047 425.66C302.562 415.145 304.125 388.35 306.263 365.29Z" fill="#2DEFD0" stroke="#2DEFD0"/>
<path d="M348.314 466.265C326.248 469.119 323.066 454.33 324.233 446.578C324.885 436.992 336.241 426.431 345.516 425.587C355.335 422.93 369.741 430.441 372.751 442.164C373.355 449.872 362.489 462.505 348.314 466.265Z" fill="#FB2E7B" stroke="#FB2E7B"/>
<path d="M303.183 404.738L302.346 422.81C343.114 387.202 378.515 400.707 391.119 411.911C391.475 409.644 392.516 401.974 393.832 389.434C353.79 369.646 316.715 391.392 303.183 404.738Z" fill="#0B1232" stroke="#0B1231"/>
<path d="M325.58 396.702L323.82 406.742C342.548 397.981 363.33 399.501 371.38 401.357C371.71 399.327 372.477 394.27 372.895 390.28C356.864 384.117 334.672 391.993 325.58 396.702Z" fill="#FB3E81" stroke="#FB3E81"/>
<path d="M337.431 401.623L338.159 391.323L344.655 390.026L343.533 400.714L337.431 401.623Z" fill="#50094F" stroke="#50094F"/>
<path d="M358.999 388.016L358.836 399.675L371.455 400.644L372.896 390.28L358.999 388.016Z" fill="#50094F" stroke="#50094F"/>
<path fill-rule="evenodd" clip-rule="evenodd" d="M188.917 492.74C188.917 486.793 195.76 481.974 204.201 481.974H611.799C620.24 481.974 627.083 486.793 627.083 492.74C627.083 498.686 620.24 503.507 611.799 503.507H204.201C195.76 503.507 188.917 498.686 188.917 492.74Z" fill="#1C274C"/>
<path d="M242.495 261.114C224.588 273.728 224.588 294.03 224.588 334.633V406.412C224.588 433.48 224.588 447.015 236.526 455.424C248.464 463.833 267.679 463.833 306.107 463.833H509.906C548.335 463.833 567.549 463.833 579.487 455.424C591.425 447.015 591.425 433.48 591.425 406.412V334.633C591.425 294.03 591.425 273.728 573.518 261.114C555.61 248.5 526.789 248.5 469.146 248.5H346.867C289.224 248.5 260.402 248.5 242.495 261.114Z" fill="#091336"/>
<path d="M346.866 410.006C338.425 410.006 331.582 414.827 331.582 420.772C331.582 426.718 338.425 431.539 346.866 431.539H469.146C477.587 431.539 484.43 426.718 484.43 420.772C484.43 414.827 477.587 410.006 469.146 410.006H346.866Z" fill="#1C274C"/>
<path d="M294.364 377.636C289.939 377.636 285.924 376.803 282.318 375.136C278.712 373.439 275.848 371 273.727 367.818C271.606 364.606 270.545 360.727 270.545 356.182C270.545 352.182 271.333 348.939 272.909 346.455C274.485 343.939 276.591 341.97 279.227 340.545C281.864 339.121 284.773 338.061 287.955 337.364C291.167 336.636 294.394 336.061 297.636 335.636C301.879 335.091 305.318 334.682 307.955 334.409C310.621 334.106 312.561 333.606 313.773 332.909C315.015 332.212 315.636 331 315.636 329.273V328.909C315.636 324.424 314.409 320.939 311.955 318.455C309.53 315.97 305.848 314.727 300.909 314.727C295.788 314.727 291.773 315.848 288.864 318.091C285.955 320.333 283.909 322.727 282.727 325.273L272.545 321.636C274.364 317.394 276.788 314.091 279.818 311.727C282.879 309.333 286.212 307.667 289.818 306.727C293.455 305.758 297.03 305.273 300.545 305.273C302.788 305.273 305.364 305.545 308.273 306.091C311.212 306.606 314.045 307.682 316.773 309.318C319.53 310.955 321.818 313.424 323.636 316.727C325.455 320.03 326.364 324.455 326.364 330V376H315.636V366.545H315.091C314.364 368.061 313.152 369.682 311.455 371.409C309.758 373.136 307.5 374.606 304.682 375.818C301.864 377.03 298.424 377.636 294.364 377.636ZM296 368C300.242 368 303.818 367.167 306.727 365.5C309.667 363.833 311.879 361.682 313.364 359.045C314.879 356.409 315.636 353.636 315.636 350.727V340.909C315.182 341.455 314.182 341.955 312.636 342.409C311.121 342.833 309.364 343.212 307.364 343.545C305.394 343.848 303.47 344.121 301.591 344.364C299.742 344.576 298.242 344.758 297.091 344.909C294.303 345.273 291.697 345.864 289.273 346.682C286.879 347.47 284.939 348.667 283.455 350.273C282 351.848 281.273 354 281.273 356.727C281.273 360.455 282.652 363.273 285.409 365.182C288.197 367.061 291.727 368 296 368ZM446.307 377.455C439.761 377.455 434.125 375.909 429.398 372.818C424.67 369.727 421.034 365.47 418.489 360.045C415.943 354.621 414.67 348.424 414.67 341.455C414.67 334.364 415.973 328.106 418.58 322.682C421.216 317.227 424.883 312.97 429.58 309.909C434.307 306.818 439.822 305.273 446.125 305.273C451.034 305.273 455.458 306.182 459.398 308C463.337 309.818 466.564 312.364 469.08 315.636C471.595 318.909 473.155 322.727 473.761 327.091H463.034C462.216 323.909 460.398 321.091 457.58 318.636C454.792 316.152 451.034 314.909 446.307 314.909C442.125 314.909 438.458 316 435.307 318.182C432.186 320.333 429.746 323.379 427.989 327.318C426.261 331.227 425.398 335.818 425.398 341.091C425.398 346.485 426.246 351.182 427.943 355.182C429.67 359.182 432.095 362.288 435.216 364.5C438.367 366.712 442.064 367.818 446.307 367.818C449.095 367.818 451.625 367.333 453.898 366.364C456.17 365.394 458.095 364 459.67 362.182C461.246 360.364 462.367 358.182 463.034 355.636H473.761C473.155 359.758 471.655 363.47 469.261 366.773C466.898 370.045 463.761 372.652 459.852 374.591C455.973 376.5 451.458 377.455 446.307 377.455ZM496.352 402.182C494.534 402.182 492.913 402.03 491.489 401.727C490.064 401.455 489.08 401.182 488.534 400.909L491.261 391.455C493.867 392.121 496.17 392.364 498.17 392.182C500.17 392 501.943 391.106 503.489 389.5C505.064 387.924 506.504 385.364 507.807 381.818L509.807 376.364L483.989 306.182H495.625L514.898 361.818H515.625L534.898 306.182H546.534L516.898 386.182C515.564 389.788 513.913 392.773 511.943 395.136C509.973 397.53 507.686 399.303 505.08 400.455C502.504 401.606 499.595 402.182 496.352 402.182Z" fill="white"/>
<path d="M356.818 309.182L373.545 337.727L390.273 309.182H402.636L380.091 344.091L402.636 379H390.273L373.545 351.909L356.818 379H344.455L366.636 344.091L344.455 309.182H356.818Z" fill="#FB2E7B"/>
</svg>
