<svg width="581" height="688" viewBox="0 0 581 688" fill="none" xmlns="http://www.w3.org/2000/svg">
<path d="M148 637V501C179.2 554.6 222 562.333 239.5 559.5H284V637C276 669.8 255.333 679 246 679.5H191C169.8 681.5 153.5 652 148 637Z" fill="#0A1437" stroke="#0C1436"/>
<path d="M168.5 628.5V529.5C191.3 559.5 241.667 562 264 559.5V635.5C261.6 648.3 249.667 657.167 244 660H195C177.4 658 170 638.167 168.5 628.5Z" fill="#1DBBC9" stroke="#1DBBC9"/>
<path d="M168.5 586V528.5C193.7 561.3 242.667 562.833 264 559.5V586H168.5Z" fill="#FB2770" stroke="#FB2770"/>
<path d="M208 659.5V595.5H223.455L225 659.5H208Z" fill="#31F8CB" stroke="#31F8CB"/>
<path d="M168.5 595V586H264V595H168.5Z" fill="#071333" stroke="#071333"/>
<path d="M168.5 547V528.5C195.7 558.1 229.5 558.5 242.5 560V571.5H212.5C190.9 570.7 174.167 554.833 168.5 547Z" fill="#AB0359" stroke="#AB0359"/>
<path d="M242.5 586L242 559.5C249.2 559.5 259.833 559.5 264 559V586H242.5Z" fill="#2E0E3D" stroke="#2E0E3D"/>
<path d="M244 660L243.5 596H264V635.5C262.4 647.9 250.167 657.167 244 660Z" fill="#046FAD" stroke="#036DA9"/>
<path d="M519.187 573.614L435.508 430C441.53 502.308 409.307 532.022 392.443 537.84L353.994 560.243L401.679 642.082C428.772 672.69 452.29 672.001 460.661 667.83L508.183 640.141C527.731 631.58 523.664 592.222 519.187 573.614Z" fill="#0A1437" stroke="#0C1436"/>
<path d="M496.244 574.959L435.331 470.416C434.09 513.574 392.11 541.571 371.275 550.174L418.036 630.429C427.986 642.737 443.752 646.093 450.391 646.232L492.729 621.563C506.705 610.591 500.896 585.922 496.244 574.959Z" fill="#1DBBC9" stroke="#1DBBC9"/>
<path d="M470.095 530.079L434.716 469.36C433.124 516.683 391.758 542.954 371.275 550.174L387.58 578.158L470.095 530.079Z" fill="#FB2770" stroke="#FB2770"/>
<path d="M481.189 627.58L441.811 559.997L428.458 567.778L466.5 636.139L481.189 627.58Z" fill="#31F8CB" stroke="#31F8CB"/>
<path d="M475.632 539.583L470.095 530.079L387.58 578.158L393.117 587.661L475.632 539.583Z" fill="#071333" stroke="#071333"/>
<path d="M446.099 488.896L434.716 469.36C429.427 514.311 400.468 531.749 390.159 539.878L397.235 552.022L423.156 536.919C441.326 525.2 446.022 500.021 446.099 488.896Z" fill="#AB0359" stroke="#AB0359"/>
<path d="M406.156 567.334L390.283 539.099C384.062 542.723 374.875 548.077 370.967 549.646L387.58 578.158L406.156 567.334Z" fill="#2E0E3D" stroke="#2E0E3D"/>
<path d="M450.391 646.232L411.445 578.397L393.733 588.718L418.036 630.429C427.048 642.718 443.32 646.344 450.391 646.232Z" fill="#046FAD" stroke="#036DA9"/>
<path d="M493.199 372.18C453.744 403.683 409.293 411.184 392 410.997V256.857C398.618 250.856 427.099 223.441 452.207 202.289C493.199 176.974 530.988 189.913 553.405 205.664C601.571 249.318 573.474 301.111 553.405 321.55C548.495 326.426 529.579 343.378 493.199 372.18Z" fill="#091336" stroke="#031D4B"/>
<path d="M488.715 347.428C457.971 374.431 420.395 384.932 405.451 386.807L409.294 272.608C427.654 256.482 466.682 222.653 475.905 216.353C487.434 208.477 523.302 212.415 537.393 224.229C561.988 248.081 550.203 283.297 541.236 297.923C532.269 306.737 509.211 328.976 488.715 347.428Z" fill="#2DEFD0" stroke="#2DEFD0"/>
<path d="M536.112 221.978C556.608 238.63 547.214 254.419 539.955 260.232C531.628 268.108 513.694 267.545 505.368 260.232C495.12 254.044 489.356 234.917 496.401 221.978C502.166 214.665 521.38 212.978 536.112 221.978Z" fill="#FB2E7B" stroke="#FB2E7B"/>
<path d="M523.302 315.362L538.674 300.173C476.162 296.123 457.971 253.481 456.69 232.667C454.555 234.354 447.467 240.205 436.194 250.106C453.104 302.311 501.312 315.362 523.302 315.362Z" fill="#0B1232" stroke="#0B1231"/>
<path d="M498.323 302.986L507.93 295.673C485.384 287.122 469.5 267.733 464.376 259.107C462.455 260.607 457.715 264.395 454.128 267.545C462.327 286.897 487.007 299.236 498.323 302.986Z" fill="#FB3E81" stroke="#FB3E81"/>
<path d="M492.558 288.36L483.591 296.798L477.186 292.298L486.794 283.859L492.558 288.36Z" fill="#50094F" stroke="#50094F"/>
<path d="M463.736 281.609L473.343 271.483L463.736 259.669L454.128 267.545L463.736 281.609Z" fill="#50094F" stroke="#50094F"/>
<path d="M88.1527 372.18C127.767 403.683 172.397 411.184 189.761 410.997V256.857C183.116 250.856 154.52 223.441 129.31 202.289C88.1526 176.974 50.2103 189.913 27.7023 205.664C-20.6581 249.318 7.5521 301.111 27.7023 321.55C32.6326 326.426 51.6252 343.378 88.1527 372.18Z" fill="#091336" stroke="#031D4B"/>
<path d="M92.6543 347.428C123.523 374.43 161.251 384.931 176.256 386.807L172.397 272.608C153.962 256.482 114.777 222.653 105.516 216.353C93.9404 208.477 57.9274 212.415 43.7794 224.228C19.0848 248.081 30.9176 283.297 39.9209 297.923C48.9242 306.736 72.0754 328.976 92.6543 347.428Z" fill="#2DEFD0" stroke="#2DEFD0"/>
<path d="M45.0656 221.978C24.4867 238.63 33.9187 254.419 41.207 260.232C49.5672 268.108 67.5738 267.545 75.9339 260.232C86.2234 254.044 92.0112 234.917 84.9372 221.978C79.1494 214.665 59.8567 212.977 45.0656 221.978Z" fill="#FB2E7B" stroke="#FB2E7B"/>
<path d="M57.9274 315.362L42.4933 300.173C105.259 296.123 123.523 253.481 124.809 232.667C126.952 234.355 134.069 240.205 145.388 250.106C128.41 302.311 80.0069 315.362 57.9274 315.362Z" fill="#0B1232" stroke="#0B1231"/>
<path d="M83.008 302.986L73.3616 295.673C95.9984 287.122 111.947 267.733 117.092 259.107C119.021 260.607 123.78 264.395 127.381 267.545C119.15 286.897 94.3692 299.236 83.008 302.986Z" fill="#FB3E81" stroke="#FB3E81"/>
<path d="M88.7957 288.36L97.799 296.798L104.23 292.298L94.5835 283.859L88.7957 288.36Z" fill="#50094F" stroke="#50094F"/>
<path d="M117.735 281.609L108.088 271.483L117.735 259.67L127.381 267.545L117.735 281.609Z" fill="#50094F" stroke="#50094F"/>
<path d="M140 483.5V369C148 330.6 181.5 298 211 298H384C416 304 450 324.5 458.5 375C462.013 395.873 458.5 445.5 458.5 483.5C453 523.5 417.5 562.5 384 562.5H211C174.6 554.1 140 516 140 483.5Z" fill="#002553" stroke="#002553"/>
<path d="M159 480V372C167 333.6 196 323.667 209.5 323.5H392.5C424.5 329.5 435.833 360.333 437.5 375V486C423.9 530 391.833 540.333 377.5 540H209.5C173.1 531.6 160.667 496.5 159 480Z" fill="#2CFDDC" stroke="#2CFDDC"/>
<path fill-rule="evenodd" clip-rule="evenodd" d="M167 376V481C171 512 191 531 221.5 531H376.5C393 533 425 514 425 481V382.5C425 363 408 334 376.5 333H221.5C208 333.167 177.5 337.5 167 376ZM177 381.063V476.448C180.69 504.609 199.14 521.87 227.275 521.87H370.26C385.481 523.686 415 506.426 415 476.448V386.967C415 369.253 399.318 342.908 370.26 342H227.275C214.822 342.151 186.686 346.088 177 381.063Z" fill="#1394B2"/>
<path d="M167 481H166.5V481.032L166.504 481.064L167 481ZM167 376L166.518 375.868L166.5 375.933V376H167ZM376.5 531L376.56 530.504L376.53 530.5H376.5V531ZM376.5 333L376.516 332.5L376.508 332.5H376.5V333ZM221.5 333V332.5L221.494 332.5L221.5 333ZM177 476.448H176.5V476.481L176.504 476.513L177 476.448ZM177 381.063L176.518 380.929L176.5 380.995V381.063H177ZM370.26 521.87L370.319 521.373L370.289 521.37H370.26V521.87ZM370.26 342L370.275 341.5L370.268 341.5H370.26V342ZM227.275 342V341.5L227.269 341.5L227.275 342ZM167.5 481V376H166.5V481H167.5ZM221.5 530.5C206.358 530.5 193.86 525.786 184.652 517.258C175.442 508.728 169.484 496.344 167.496 480.936L166.504 481.064C168.516 496.656 174.558 509.272 183.973 517.992C193.39 526.714 206.142 531.5 221.5 531.5V530.5ZM376.5 530.5H221.5V531.5H376.5V530.5ZM424.5 481C424.5 497.326 416.587 510.195 406.612 518.745C396.615 527.314 384.626 531.481 376.56 530.504L376.44 531.496C384.874 532.519 397.135 528.186 407.263 519.505C417.413 510.805 425.5 497.674 425.5 481H424.5ZM424.5 382.5V481H425.5V382.5H424.5ZM376.484 333.5C392.07 333.995 404.068 341.412 412.179 351.133C420.299 360.864 424.5 372.878 424.5 382.5H425.5C425.5 372.622 421.201 360.386 412.946 350.492C404.682 340.588 392.43 333.005 376.516 332.5L376.484 333.5ZM221.5 333.5H376.5V332.5H221.5V333.5ZM167.482 376.132C172.697 357.01 182.862 346.413 193.368 340.562C203.892 334.702 214.798 333.583 221.506 333.5L221.494 332.5C214.702 332.584 203.608 333.715 192.882 339.688C182.138 345.671 171.803 356.49 166.518 375.868L167.482 376.132ZM177.5 476.448V381.063H176.5V476.448H177.5ZM227.275 521.37C213.313 521.37 201.793 517.089 193.307 509.35C184.82 501.609 179.328 490.37 177.496 476.383L176.504 476.513C178.361 490.687 183.94 502.159 192.634 510.089C201.329 518.02 213.102 522.37 227.275 522.37V521.37ZM370.26 521.37H227.275V522.37H370.26V521.37ZM414.5 476.448C414.5 491.26 407.21 502.938 398.015 510.7C388.799 518.479 377.748 522.26 370.319 521.373L370.2 522.366C377.992 523.296 389.311 519.355 398.66 511.464C408.03 503.555 415.5 491.614 415.5 476.448H414.5ZM414.5 386.967V476.448H415.5V386.967H414.5ZM370.244 342.5C384.612 342.949 395.67 349.683 403.145 358.505C410.63 367.338 414.5 378.241 414.5 386.967H415.5C415.5 377.98 411.529 366.853 403.908 357.858C396.277 348.852 384.965 341.959 370.275 341.5L370.244 342.5ZM227.275 342.5H370.26V341.5H227.275V342.5ZM177.482 381.196C182.289 363.839 191.657 354.221 201.34 348.911C211.041 343.591 221.096 342.575 227.281 342.5L227.269 341.5C221.001 341.576 210.761 342.604 200.859 348.034C190.94 353.474 181.397 363.311 176.518 380.929L177.482 381.196Z" fill="#1394B2"/>
<path d="M111.115 173C115.309 60.8598 212.115 1 294.496 1C390.615 1 472.115 69.5 478.615 173C485.115 276.5 392.604 347.5 297.116 351C207.89 354.271 107.114 280 111.115 173Z" fill="#035593" stroke="black"/>
<path d="M131.115 169C138.115 57 245.115 19.5 294.115 19.5C347.115 19.5 453.115 65.5 459.615 169C466.115 272.5 373.604 331 298.615 331C274.58 331 122.146 312.5 131.115 169Z" fill="#2CFDDC" stroke="black"/>
<path d="M312.009 21.1432C224.509 11.1433 170.509 69.1432 152.009 101.643C148.309 108.143 155.009 121.643 168.509 115.143C207.709 49.1432 283.175 38.9765 316.009 42.1432C324.509 36.1433 322.105 22.2971 312.009 21.1432Z" fill="white" stroke="#FDFFFF"/>
<path d="M215.545 84.9078C205.545 80.408 186.545 93.408 190.545 106.908C206.378 122.408 238.945 154.308 242.545 157.908C246.545 159.908 245.212 164.074 244.045 165.908C233.545 176.241 208.945 200.408 194.545 214.408C188.145 236.808 205.878 240.408 215.545 239.408C237.878 217.408 283.745 172.408 288.545 168.408C293.345 164.408 303.18 164.408 307.045 168.408C321.378 183.241 355.045 218.808 373.045 236.408C401.045 244.008 402.045 224.908 399.045 214.408L350.545 165.908C348.945 164.308 349.878 161.241 350.545 159.908C362.878 147.074 390.445 118.108 402.045 104.908C402.045 83.3078 385.712 83.5745 377.545 86.4078C356.545 106.908 312.845 149.408 306.045 155.408C299.245 161.408 291.545 157.908 288.545 155.408L215.545 84.9078Z" fill="#FB3E81" stroke="#FB3E81"/>
<path d="M290 306C252.445 306 222 288.539 222 267H358C358 288.539 327.555 306 290 306Z" fill="#7F184C"/>
<path d="M245 267V273.238C245 275.868 248.67 278 253.197 278H340.803C345.331 278 349 275.868 349 273.238V267H245Z" fill="#F2F2F2"/>
<path d="M298.169 289.404C279.838 284.381 259.496 285.11 243 290.321C255.395 299.85 274.888 306 296.824 306C306.491 306 315.677 304.799 324 302.649C317.894 297.075 309.139 292.411 298.169 289.404Z" fill="#FC4C59"/>
<path d="M222 266.933C222 290.68 255.645 310 297 310C338.355 310 372 290.68 372 266.933C372 264.761 368.933 263 365.151 263H228.849C225.067 263 222 264.761 222 266.933ZM357.922 270.866C354.505 288.432 328.487 302.134 297 302.134C265.513 302.134 239.495 288.432 236.078 270.866H357.922Z" fill="black"/>
</svg>
