<svg width="805" height="801" viewBox="0 0 805 801" fill="none" xmlns="http://www.w3.org/2000/svg">
<path d="M528.281 508.031H276.719V547.094H528.281V508.031Z" fill="#FB2E7B"/>
<path d="M528.281 566.625H276.719V722.875H528.281V566.625Z" fill="#FB2E7B"/>
<path d="M150.937 390.844C220.293 390.844 276.719 434.652 276.719 488.5H528.281C528.281 434.652 584.706 390.844 654.062 390.844C655.798 390.844 657.433 391.195 659.169 391.254L646.364 316.762C636.377 258.539 572.405 215.062 496.76 215.062H308.239C232.594 215.062 168.622 258.539 158.635 316.762L145.831 391.254C147.566 391.195 149.202 390.844 150.937 390.844ZM375.809 354.633C370.904 350.824 370.904 344.633 375.809 340.824C380.714 337.016 388.689 337.016 393.594 340.824L402.5 347.738L411.405 340.824C416.311 337.016 424.285 337.016 429.191 340.824C434.096 344.633 434.096 350.824 429.191 354.633L420.285 361.547L429.191 368.461C434.096 372.27 434.096 378.461 429.191 382.27C424.285 386.078 416.311 386.078 411.405 382.27L402.5 375.355L393.594 382.27C388.689 386.078 380.714 386.078 375.809 382.27C370.904 378.461 370.904 372.27 375.809 368.461L384.714 361.547L375.809 354.633Z" fill="#FB2E7B"/>
<path d="M754.688 488.5C754.688 447.621 714.085 414.438 662.565 411.039L662.54 410.883C659.723 410.668 656.955 410.375 654.062 410.375C598.568 410.375 553.438 445.414 553.438 488.5V722.875H603.75V742.406C603.75 753.187 615.02 761.938 628.906 761.938H679.219C693.105 761.938 704.375 753.187 704.375 742.406V722.875H725.028C740.575 722.875 752.398 712.035 749.832 700.141L717.33 548.793C739.946 534.457 754.688 512.914 754.688 488.5Z" fill="#FB2E7B"/>
<path d="M251.562 488.5C251.562 445.414 206.432 410.375 150.938 410.375C148.045 410.375 145.277 410.668 142.46 410.883L142.435 411.039C90.9147 414.438 50.3125 447.602 50.3125 488.5C50.3125 512.934 65.0541 534.477 87.6695 548.793L55.1928 700.121C52.6269 712.035 64.4503 722.875 79.9969 722.875H100.625V742.406C100.625 753.187 111.895 761.938 125.781 761.938H176.094C189.98 761.938 201.25 753.187 201.25 742.406V722.875H251.562V488.5Z" fill="#FB2E7B"/>
<path d="M528.281 508.031H276.719V547.094H528.281V508.031Z" fill="#FB2E7B"/>
<path d="M528.281 566.625H276.719V722.875H528.281V566.625Z" fill="#FB2E7B"/>
<path d="M150.937 390.844C220.293 390.844 276.719 434.652 276.719 488.5H528.281C528.281 434.652 584.706 390.844 654.062 390.844C655.798 390.844 657.433 391.195 659.169 391.254L646.364 316.762C636.377 258.539 572.405 215.062 496.76 215.062H308.239C232.594 215.062 168.622 258.539 158.635 316.762L145.831 391.254C147.566 391.195 149.202 390.844 150.937 390.844ZM375.809 354.633C370.904 350.824 370.904 344.633 375.809 340.824C380.714 337.016 388.689 337.016 393.594 340.824L402.5 347.738L411.405 340.824C416.311 337.016 424.285 337.016 429.191 340.824C434.096 344.633 434.096 350.824 429.191 354.633L420.285 361.547L429.191 368.461C434.096 372.27 434.096 378.461 429.191 382.27C424.285 386.078 416.311 386.078 411.405 382.27L402.5 375.355L393.594 382.27C388.689 386.078 380.714 386.078 375.809 382.27C370.904 378.461 370.904 372.27 375.809 368.461L384.714 361.547L375.809 354.633Z" fill="#FB2E7B"/>
<path d="M754.688 488.5C754.688 447.621 714.085 414.438 662.565 411.039L662.54 410.883C659.723 410.668 656.955 410.375 654.062 410.375C598.568 410.375 553.438 445.414 553.438 488.5V722.875H603.75V742.406C603.75 753.187 615.02 761.938 628.906 761.938H679.219C693.105 761.938 704.375 753.187 704.375 742.406V722.875H725.028C740.575 722.875 752.398 712.035 749.832 700.141L717.33 548.793C739.946 534.457 754.688 512.914 754.688 488.5Z" fill="#FB2E7B"/>
<path d="M251.562 488.5C251.562 445.414 206.432 410.375 150.938 410.375C148.045 410.375 145.277 410.668 142.46 410.883L142.435 411.039C90.9147 414.438 50.3125 447.602 50.3125 488.5C50.3125 512.934 65.0541 534.477 87.6695 548.793L55.1928 700.121C52.6269 712.035 64.4503 722.875 79.9969 722.875H100.625V742.406C100.625 753.187 111.895 761.938 125.781 761.938H176.094C189.98 761.938 201.25 753.187 201.25 742.406V722.875H251.562V488.5Z" fill="#FB2E7B"/>
<path d="M600.549 384.597C576.941 345.815 540.944 322.708 525.896 316.002L474.126 429.356C477.846 436.388 493.317 467.82 507.969 493.311C534.987 528.15 572.077 533.59 596.792 530.878C653.19 517.836 646.239 468.629 635.714 445.656C633.097 440.127 622.399 420.175 600.549 384.597Z" fill="#091336" stroke="#031D4B"/>
<path d="M588.35 401.025C570.78 369.001 541.746 346.408 529.426 339.115L494.401 424.616C504.895 443.742 527.351 484.064 533.227 492.347C540.572 502.701 572.975 514 589.152 510.889C618.475 503.082 620.091 472.52 617.234 458.215C612.424 448.186 599.913 422.706 588.35 401.025Z" fill="#2DEFD0" stroke="#2DEFD0"/>
<path d="M587.287 512.037C610.64 507.903 607.803 492.574 603.465 485.426C598.895 476.339 583.166 469.656 573.495 471.739C562.537 472.234 551.118 484.018 552.877 496.321C555.416 503.981 571.499 512.826 587.287 512.037Z" fill="#FB2E7B" stroke="#FB2E7B"/>
<path d="M607.551 438.293L615.77 455.547C560.241 433.786 530.158 457.946 522.057 472.745C520.774 470.659 516.597 463.552 510.154 451.81C542.34 420.11 588.496 429.591 607.551 438.293Z" fill="#0B1232" stroke="#0B1231"/>
<path d="M581.749 437.509L587.618 446.689C565.21 444.055 544.934 452.028 537.597 456.344C536.436 454.48 533.601 449.819 531.551 446.082C545.155 435.096 570.685 435.789 581.749 437.509Z" fill="#FB3E81" stroke="#FB3E81"/>
<path d="M571.842 445.984L566.906 436.23L559.845 437.005L565.336 447.013L571.842 445.984Z" fill="#50094F" stroke="#50094F"/>
<path d="M544.6 439.542L549.524 450.791L537.231 455.676L531.551 446.083L544.6 439.542Z" fill="#50094F" stroke="#50094F"/>
<path d="M233.939 378.044C261.933 345.985 298.223 331.992 312.869 329.003L339.026 450.842C334.452 456.786 315.036 483.623 297.409 504.898C267.065 532.345 232.936 528.973 211.319 520.589C163.209 494.821 178.163 448.785 191.653 428.987C194.975 424.243 208.084 407.412 233.939 378.044Z" fill="#091336" stroke="#031D4B"/>
<path d="M241.928 396.797C263.325 369.875 293.297 354.757 305.607 350.564L321.74 441.529C308.96 457.607 281.721 491.427 274.996 498.08C266.59 506.397 235.612 509.792 221.7 503.01C196.868 488.618 200.851 458.644 205.947 445.456C212.028 436.863 227.739 415.1 241.928 396.797Z" fill="#2DEFD0" stroke="#2DEFD0"/>
<path d="M223.164 504.556C203.018 495.113 208.277 480.928 213.425 475.016C219.125 467.28 234.375 464.471 242.652 468.741C252.362 471.773 260.479 485.846 256.721 497.352C253.091 504.179 237.14 508.999 223.164 504.556Z" fill="#FB2E7B" stroke="#FB2E7B"/>
<path d="M218.142 428.417L207.729 443.212C261.243 435.073 283.85 465.478 288.465 481.699C289.983 479.977 294.98 474.067 302.826 464.196C279.677 425.998 236.725 424.428 218.142 428.417Z" fill="#0B1232" stroke="#0B1231"/>
<path d="M241.351 433.668L234.473 441.192C254.976 443.861 271.689 456.305 277.483 462.194C278.852 460.66 282.215 456.806 284.711 453.665C274.499 439.855 251.549 434.58 241.351 433.668Z" fill="#FB3E81" stroke="#FB3E81"/>
<path d="M248.704 444.184L254.849 435.887L261.026 438.283L254.339 446.696L248.704 444.184Z" fill="#50094F" stroke="#50094F"/>
<path d="M274.206 444.291L267.805 454.038L277.929 461.633L284.711 453.665L274.206 444.291Z" fill="#50094F" stroke="#50094F"/>
<path d="M251.996 489.5V375C259.996 336.6 293.496 304 322.996 304H495.996C527.996 310 561.996 330.5 570.496 381C574.009 401.873 570.496 451.5 570.496 489.5C564.996 529.5 529.496 568.5 495.996 568.5H322.996C286.596 560.1 251.996 522 251.996 489.5Z" fill="#002553" stroke="#002553"/>
<path d="M270.996 486V378C278.996 339.6 307.996 329.667 321.496 329.5H504.496C536.496 335.5 547.829 366.333 549.496 381V492C535.896 536 503.829 546.333 489.496 546H321.496C285.096 537.6 272.663 502.5 270.996 486Z" fill="#2CFDDC" stroke="#2CFDDC"/>
<path fill-rule="evenodd" clip-rule="evenodd" d="M278.996 382V487C282.996 518 302.996 537 333.496 537H488.496C504.996 539 536.996 520 536.996 487V388.5C536.996 369 519.996 340 488.496 339H333.496C319.996 339.167 289.496 343.5 278.996 382ZM288.996 387.063V482.448C292.686 510.609 311.136 527.87 339.271 527.87H482.256C497.477 529.686 526.996 512.426 526.996 482.448V392.967C526.996 375.253 511.314 348.908 482.256 348H339.271C326.818 348.151 298.682 352.088 288.996 387.063Z" fill="#1394B2"/>
<path d="M278.996 487H278.496V487.032L278.5 487.064L278.996 487ZM278.996 382L278.514 381.868L278.496 381.933V382H278.996ZM488.496 537L488.556 536.504L488.526 536.5H488.496V537ZM488.496 339L488.512 338.5L488.504 338.5H488.496V339ZM333.496 339V338.5L333.49 338.5L333.496 339ZM288.996 482.448H288.496V482.481L288.5 482.513L288.996 482.448ZM288.996 387.063L288.514 386.929L288.496 386.995V387.063H288.996ZM482.256 527.87L482.315 527.373L482.286 527.37H482.256V527.87ZM482.256 348L482.271 347.5L482.264 347.5H482.256V348ZM339.271 348V347.5L339.265 347.5L339.271 348ZM279.496 487V382H278.496V487H279.496ZM333.496 536.5C318.354 536.5 305.856 531.786 296.648 523.258C287.438 514.728 281.48 502.344 279.492 486.936L278.5 487.064C280.512 502.656 286.554 515.272 295.969 523.992C305.386 532.714 318.138 537.5 333.496 537.5V536.5ZM488.496 536.5H333.496V537.5H488.496V536.5ZM536.496 487C536.496 503.326 528.583 516.195 518.608 524.745C508.612 533.314 496.622 537.481 488.556 536.504L488.436 537.496C496.871 538.519 509.131 534.186 519.259 525.505C529.409 516.805 537.496 503.674 537.496 487H536.496ZM536.496 388.5V487H537.496V388.5H536.496ZM488.48 339.5C504.066 339.995 516.064 347.412 524.175 357.133C532.295 366.864 536.496 378.878 536.496 388.5H537.496C537.496 378.622 533.197 366.386 524.943 356.492C516.678 346.588 504.426 339.005 488.512 338.5L488.48 339.5ZM333.496 339.5H488.496V338.5H333.496V339.5ZM279.478 382.132C284.693 363.01 294.858 352.413 305.364 346.562C315.888 340.702 326.794 339.583 333.502 339.5L333.49 338.5C326.698 338.584 315.604 339.715 304.878 345.688C294.134 351.671 283.799 362.49 278.514 381.868L279.478 382.132ZM289.496 482.448V387.063H288.496V482.448H289.496ZM339.271 527.37C325.309 527.37 313.789 523.089 305.303 515.35C296.816 507.609 291.325 496.37 289.492 482.383L288.5 482.513C290.358 496.687 295.936 508.159 304.63 516.089C313.325 524.02 325.098 528.37 339.271 528.37V527.37ZM482.256 527.37H339.271V528.37H482.256V527.37ZM526.496 482.448C526.496 497.26 519.206 508.938 510.011 516.7C500.795 524.479 489.744 528.26 482.315 527.373L482.197 528.366C489.989 529.296 501.307 525.355 510.656 517.464C520.026 509.555 527.496 497.614 527.496 482.448H526.496ZM526.496 392.967V482.448H527.496V392.967H526.496ZM482.24 348.5C496.608 348.949 507.666 355.683 515.141 364.505C522.626 373.338 526.496 384.241 526.496 392.967H527.496C527.496 383.98 523.525 372.853 515.904 363.858C508.273 354.852 496.962 347.959 482.271 347.5L482.24 348.5ZM339.271 348.5H482.256V347.5H339.271V348.5ZM289.478 387.196C294.285 369.839 303.653 360.221 313.336 354.911C323.037 349.591 333.092 348.575 339.277 348.5L339.265 347.5C332.997 347.576 322.757 348.604 312.855 354.034C302.936 359.474 293.393 369.311 288.514 386.929L289.478 387.196Z" fill="#1394B2"/>
<path d="M326.821 486.816L377.311 438.322C379.784 435.946 378.367 432.832 374.392 430.292C363.831 419.685 339.048 394.735 324.397 379.787C323.411 358.576 341.136 356.12 350.122 357.544C369.597 376.741 411.22 417.762 421.915 428.27C436.662 433.618 427.474 438.993 421.284 441.264C402.096 459.905 357.141 504.893 348.574 511.536C340.006 518.18 318.656 503.235 326.821 486.816Z" fill="#FB3E81"/>
<path d="M326.821 486.816L377.311 438.322C379.784 435.946 378.367 432.832 374.392 430.292C363.831 419.685 339.048 394.735 324.397 379.787C323.411 358.576 341.136 356.12 350.122 357.544C369.597 376.741 411.22 417.762 421.915 428.27C436.662 433.618 427.474 438.993 421.284 441.264C402.096 459.905 357.141 504.893 348.574 511.536C340.006 518.18 318.656 503.235 326.821 486.816Z" fill="#FB3E81"/>
<path d="M326.821 486.816L377.311 438.322C379.784 435.946 378.367 432.832 374.392 430.292C363.831 419.685 339.048 394.735 324.397 379.787C323.411 358.576 341.136 356.12 350.122 357.544C369.597 376.741 411.22 417.762 421.915 428.27C436.662 433.618 427.474 438.993 421.284 441.264C402.096 459.905 357.141 504.893 348.574 511.536C340.006 518.18 318.656 503.235 326.821 486.816Z" stroke="#FB3E81"/>
<path d="M484.308 486.827L431.758 440.585C429.184 438.32 430.462 435.145 434.319 432.432C444.398 421.368 468.047 395.345 482.019 379.764C482.071 358.524 464.263 356.849 455.352 358.667C436.751 378.707 396.994 421.529 386.777 432.5C372.287 438.493 381.698 443.46 387.978 445.458C407.959 463.243 454.828 506.224 463.675 512.486C472.522 518.748 493.185 502.876 484.308 486.827Z" fill="#FB3E81"/>
<path d="M484.308 486.827L431.758 440.585C429.184 438.32 430.462 435.145 434.319 432.432C444.398 421.368 468.047 395.345 482.019 379.764C482.071 358.524 464.263 356.849 455.352 358.667C436.751 378.707 396.994 421.529 386.777 432.5C372.287 438.493 381.698 443.46 387.978 445.458C407.959 463.243 454.828 506.224 463.675 512.486C472.522 518.748 493.185 502.876 484.308 486.827Z" fill="#FB3E81"/>
<path d="M484.308 486.827L431.758 440.585C429.184 438.32 430.462 435.145 434.319 432.432C444.398 421.368 468.047 395.345 482.019 379.764C482.071 358.524 464.263 356.849 455.352 358.667C436.751 378.707 396.994 421.529 386.777 432.5C372.287 438.493 381.698 443.46 387.978 445.458C407.959 463.243 454.828 506.224 463.675 512.486C472.522 518.748 493.185 502.876 484.308 486.827Z" stroke="#FB3E81"/>
<path d="M219.112 173C223.305 60.8598 320.112 1 402.492 1C498.612 1 580.112 69.5 586.612 173C593.112 276.5 500.601 347.5 405.112 351C315.886 354.271 215.111 280 219.112 173Z" fill="#035593" stroke="black"/>
<path d="M239.112 169C246.112 57 353.112 19.5 402.112 19.5C455.112 19.5 561.112 65.5 567.612 169C574.112 272.5 481.601 331 406.612 331C382.577 331 230.143 312.5 239.112 169Z" fill="#2CFDDC" stroke="black"/>
<path d="M420.005 21.1432C332.505 11.1433 278.505 69.1432 260.005 101.643C256.305 108.143 263.005 121.643 276.505 115.143C315.705 49.1432 391.172 38.9765 424.005 42.1432C432.505 36.1433 430.102 22.2971 420.005 21.1432Z" fill="white" stroke="#FDFFFF"/>
<path d="M304.715 135.425C304.715 158.525 317.145 192.125 355.106 192.125C393.067 192.125 405.497 158.525 405.497 135.425C405.497 64.025 304.715 64.025 304.715 135.425Z" fill="#DDE8E3"/>
<path d="M405.497 135.425C405.497 158.525 417.926 192.125 455.887 192.125C493.848 192.125 506.278 158.525 506.278 135.425C506.278 64.025 405.497 64.025 405.497 135.425Z" fill="#DDE8E3"/>
<path d="M307.403 137.263C307.403 157.213 315.465 187.925 347.715 187.925C379.965 187.925 388.028 156.95 388.028 137.263C387.692 69.0125 307.403 69.0125 307.403 137.263Z" fill="white"/>
<path d="M408.184 137.263C408.184 157.213 416.247 187.925 448.497 187.925C480.747 187.925 488.809 156.95 488.809 137.263C488.473 69.0125 408.184 69.0125 408.184 137.263Z" fill="white"/>
<path d="M335 155.925C335 172.2 349.781 184.8 367.586 184.8C385.727 184.8 400.172 172.2 400.172 155.925C400.172 116.025 335 116.025 335 155.925Z" fill="#493B30"/>
<path d="M437 158.925C437 175.2 451.781 187.8 469.586 187.8C487.727 187.8 502.172 175.2 502.172 158.925C502.172 119.025 437 119.025 437 158.925Z" fill="#493B30"/>
<path d="M476 612C505.271 612 529 582.451 529 546C529 509.549 505.271 480 476 480C446.729 480 423 509.549 423 546C423 582.451 446.729 612 476 612Z" fill="#545454"/>
<path d="M345 632C374.271 632 398 602.451 398 566C398 529.549 374.271 500 345 500C315.729 500 292 529.549 292 566C292 602.451 315.729 632 345 632Z" fill="#545454"/>
<path d="M397.997 306C360.442 306 329.997 288.539 329.997 267H465.997C465.997 288.539 435.551 306 397.997 306Z" fill="#7F184C"/>
<path d="M352.997 267V273.238C352.997 275.868 356.667 278 361.193 278H448.8C453.327 278 456.997 275.868 456.997 273.238V267H352.997Z" fill="#F2F2F2"/>
<path d="M406.165 289.404C387.834 284.381 367.492 285.11 350.997 290.321C363.392 299.85 382.884 306 404.82 306C414.487 306 423.674 304.799 431.997 302.649C425.89 297.075 417.135 292.411 406.165 289.404Z" fill="#FC4C59"/>
<path d="M329.997 266.933C329.997 290.68 363.641 310 404.997 310C446.352 310 479.997 290.68 479.997 266.933C479.997 264.761 476.93 263 473.147 263H336.846C333.064 263 329.997 264.761 329.997 266.933ZM465.919 270.866C462.502 288.432 436.484 302.134 404.997 302.134C373.509 302.134 347.491 288.432 344.075 270.866H465.919Z" fill="black"/>
</svg>
