<svg width="805" height="801" viewBox="0 0 805 801" fill="none" xmlns="http://www.w3.org/2000/svg">
<path d="M528.281 508.031H276.718V547.094H528.281V508.031Z" fill="#FB2E7B"/>
<path d="M528.281 566.625H276.718V722.875H528.281V566.625Z" fill="#FB2E7B"/>
<path d="M150.937 390.844C220.293 390.844 276.718 434.652 276.718 488.5H528.281C528.281 434.652 584.706 390.844 654.062 390.844C655.798 390.844 657.433 391.195 659.169 391.254L646.364 316.762C636.377 258.539 572.405 215.062 496.76 215.062H308.239C232.594 215.062 168.622 258.539 158.635 316.762L145.83 391.254C147.566 391.195 149.201 390.844 150.937 390.844ZM375.809 354.633C370.903 350.824 370.903 344.633 375.809 340.824C380.714 337.016 388.689 337.016 393.594 340.824L402.5 347.738L411.405 340.824C416.31 337.016 424.285 337.016 429.19 340.824C434.096 344.633 434.096 350.824 429.19 354.633L420.285 361.547L429.19 368.461C434.096 372.27 434.096 378.461 429.19 382.27C424.285 386.078 416.31 386.078 411.405 382.27L402.5 375.355L393.594 382.27C388.689 386.078 380.714 386.078 375.809 382.27C370.903 378.461 370.903 372.27 375.809 368.461L384.714 361.547L375.809 354.633Z" fill="#FB2E7B"/>
<path d="M754.687 488.5C754.687 447.621 714.085 414.438 662.565 411.039L662.54 410.883C659.722 410.668 656.955 410.375 654.062 410.375C598.567 410.375 553.437 445.414 553.437 488.5V722.875H603.75V742.406C603.75 753.187 615.02 761.938 628.906 761.938H679.218C693.105 761.938 704.375 753.187 704.375 742.406V722.875H725.028C740.574 722.875 752.398 712.035 749.832 700.141L717.33 548.793C739.945 534.457 754.687 512.914 754.687 488.5Z" fill="#FB2E7B"/>
<path d="M251.562 488.5C251.562 445.414 206.432 410.375 150.937 410.375C148.044 410.375 145.277 410.668 142.459 410.883L142.434 411.039C90.9142 414.438 50.312 447.602 50.312 488.5C50.312 512.934 65.0536 534.477 87.669 548.793L55.1923 700.121C52.6264 712.035 64.4498 722.875 79.9964 722.875H100.625V742.406C100.625 753.187 111.895 761.938 125.781 761.938H176.093C189.98 761.938 201.25 753.187 201.25 742.406V722.875H251.562V488.5Z" fill="#FB2E7B"/>
<path d="M528.281 508.031H276.718V547.094H528.281V508.031Z" fill="#FB2E7B"/>
<path d="M528.281 566.625H276.718V722.875H528.281V566.625Z" fill="#FB2E7B"/>
<path d="M150.937 390.844C220.293 390.844 276.718 434.652 276.718 488.5H528.281C528.281 434.652 584.706 390.844 654.062 390.844C655.798 390.844 657.433 391.195 659.169 391.254L646.364 316.762C636.377 258.539 572.405 215.062 496.76 215.062H308.239C232.594 215.062 168.622 258.539 158.635 316.762L145.83 391.254C147.566 391.195 149.201 390.844 150.937 390.844ZM375.809 354.633C370.903 350.824 370.903 344.633 375.809 340.824C380.714 337.016 388.689 337.016 393.594 340.824L402.5 347.738L411.405 340.824C416.31 337.016 424.285 337.016 429.19 340.824C434.096 344.633 434.096 350.824 429.19 354.633L420.285 361.547L429.19 368.461C434.096 372.27 434.096 378.461 429.19 382.27C424.285 386.078 416.31 386.078 411.405 382.27L402.5 375.355L393.594 382.27C388.689 386.078 380.714 386.078 375.809 382.27C370.903 378.461 370.903 372.27 375.809 368.461L384.714 361.547L375.809 354.633Z" fill="#FB2E7B"/>
<path d="M754.687 488.5C754.687 447.621 714.085 414.438 662.565 411.039L662.54 410.883C659.722 410.668 656.955 410.375 654.062 410.375C598.567 410.375 553.437 445.414 553.437 488.5V722.875H603.75V742.406C603.75 753.187 615.02 761.938 628.906 761.938H679.218C693.105 761.938 704.375 753.187 704.375 742.406V722.875H725.028C740.574 722.875 752.398 712.035 749.832 700.141L717.33 548.793C739.945 534.457 754.687 512.914 754.687 488.5Z" fill="#FB2E7B"/>
<path d="M251.562 488.5C251.562 445.414 206.432 410.375 150.937 410.375C148.044 410.375 145.277 410.668 142.459 410.883L142.434 411.039C90.9142 414.438 50.312 447.602 50.312 488.5C50.312 512.934 65.0536 534.477 87.669 548.793L55.1923 700.121C52.6264 712.035 64.4498 722.875 79.9964 722.875H100.625V742.406C100.625 753.187 111.895 761.938 125.781 761.938H176.093C189.98 761.938 201.25 753.187 201.25 742.406V722.875H251.562V488.5Z" fill="#FB2E7B"/>
<path d="M207.11 391.88C229.56 352.382 264.876 328.171 279.728 321.002L334.924 432.727C331.414 439.872 316.882 471.773 302.992 497.709C277.011 533.371 240.071 539.954 215.265 538.005C158.455 526.707 163.929 477.299 173.768 454.008C176.22 448.4 186.321 428.123 207.11 391.88Z" fill="#091336" stroke="#031D4B"/>
<path d="M219.807 407.928C236.421 375.371 264.785 351.888 276.891 344.217L314.499 428.614C304.576 448.058 283.324 489.062 277.695 497.524C270.659 508.102 238.584 520.397 222.307 517.786C192.739 510.885 190.204 480.382 192.632 465.993C197.142 455.818 208.891 429.959 219.807 407.928Z" fill="#2DEFD0" stroke="#2DEFD0"/>
<path d="M224.208 518.876C200.722 515.463 203.1 500.051 207.224 492.772C211.522 483.546 227.056 476.38 236.793 478.164C247.77 478.32 259.548 489.749 258.158 502.104C255.848 509.839 240.025 519.178 224.208 518.876Z" fill="#FB2E7B" stroke="#FB2E7B"/>
<path d="M201.719 445.778L194.016 463.28C248.911 439.813 279.731 463.038 288.28 477.584C289.501 475.459 293.466 468.224 299.558 456.286C266.408 425.589 220.52 436.49 201.719 445.778Z" fill="#0B1232" stroke="#0B1231"/>
<path d="M227.507 444.198L221.912 453.557C244.249 450.232 264.772 457.577 272.241 461.665C273.347 459.767 276.043 455.019 277.981 451.221C264.042 440.657 238.524 442.138 227.507 444.198Z" fill="#FB3E81" stroke="#FB3E81"/>
<path d="M237.673 452.365L242.317 442.462L249.404 443.019L244.212 453.193L237.673 452.365Z" fill="#50094F" stroke="#50094F"/>
<path d="M264.731 445.085L260.143 456.482L272.587 460.987L277.981 451.221L264.731 445.085Z" fill="#50094F" stroke="#50094F"/>
<path d="M596.549 378.597C572.942 339.816 536.944 316.708 521.896 310.003L470.126 423.356C473.846 430.388 489.317 461.82 503.969 487.311C530.987 522.15 568.077 527.59 592.793 524.878C649.19 511.836 642.239 462.629 631.714 439.656C629.097 434.127 618.399 414.175 596.549 378.597Z" fill="#091336" stroke="#031D4B"/>
<path d="M584.351 395.025C566.78 363.001 537.747 340.408 525.427 333.115L490.402 418.616C500.896 437.742 523.352 478.064 529.228 486.347C536.573 496.701 568.975 508 585.153 504.889C614.476 497.082 616.092 466.52 613.234 452.215C608.424 442.186 595.914 416.706 584.351 395.025Z" fill="#2DEFD0" stroke="#2DEFD0"/>
<path d="M583.287 506.037C606.64 501.903 603.803 486.574 599.465 479.426C594.895 470.339 579.166 463.656 569.495 465.739C558.537 466.234 547.118 478.018 548.877 490.321C551.416 497.981 567.499 506.826 583.287 506.037Z" fill="#FB2E7B" stroke="#FB2E7B"/>
<path d="M603.551 432.293L611.77 449.547C556.242 427.786 526.158 451.946 518.057 466.746C516.774 464.66 512.597 457.552 506.154 445.81C538.34 414.11 584.496 423.591 603.551 432.293Z" fill="#0B1232" stroke="#0B1231"/>
<path d="M577.75 431.509L583.618 440.69C561.211 438.055 540.934 446.028 533.597 450.344C532.436 448.48 529.601 443.819 527.552 440.083C541.155 429.096 566.685 429.789 577.75 431.509Z" fill="#FB3E81" stroke="#FB3E81"/>
<path d="M567.842 439.984L562.907 430.23L555.845 431.005L561.336 441.013L567.842 439.984Z" fill="#50094F" stroke="#50094F"/>
<path d="M540.6 433.542L545.524 444.791L533.231 449.676L527.552 440.083L540.6 433.542Z" fill="#50094F" stroke="#50094F"/>
<path d="M247.996 483.5V369C255.996 330.6 289.496 298 318.996 298H491.996C523.996 304 557.996 324.5 566.496 375C570.01 395.873 566.496 445.5 566.496 483.5C560.996 523.5 525.496 562.5 491.996 562.5H318.996C282.596 554.1 247.996 516 247.996 483.5Z" fill="#002553" stroke="#002553"/>
<path d="M266.996 480V372C274.996 333.6 303.996 323.667 317.496 323.5H500.496C532.496 329.5 543.83 360.333 545.496 375V486C531.896 530 499.83 540.333 485.496 540H317.496C281.096 531.6 268.663 496.5 266.996 480Z" fill="#2CFDDC" stroke="#2CFDDC"/>
<path fill-rule="evenodd" clip-rule="evenodd" d="M274.996 376V481C278.996 512 298.996 531 329.496 531H484.496C500.996 533 532.996 514 532.996 481V382.5C532.996 363 515.996 334 484.496 333H329.496C315.996 333.167 285.496 337.5 274.996 376ZM284.996 381.063V476.448C288.686 504.609 307.136 521.87 335.272 521.87H478.256C493.477 523.686 522.996 506.426 522.996 476.448V386.967C522.996 369.253 507.314 342.908 478.256 342H335.272C322.818 342.151 294.682 346.088 284.996 381.063Z" fill="#1394B2"/>
<path d="M274.996 481H274.496V481.032L274.5 481.064L274.996 481ZM274.996 376L274.514 375.868L274.496 375.933V376H274.996ZM484.496 531L484.557 530.504L484.527 530.5H484.496V531ZM484.496 333L484.512 332.5L484.504 332.5H484.496V333ZM329.496 333V332.5L329.49 332.5L329.496 333ZM284.996 476.448H284.496V476.481L284.501 476.513L284.996 476.448ZM284.996 381.063L284.514 380.929L284.496 380.995V381.063H284.996ZM478.256 521.87L478.315 521.373L478.286 521.37H478.256V521.87ZM478.256 342L478.272 341.5L478.264 341.5H478.256V342ZM335.272 342V341.5L335.265 341.5L335.272 342ZM275.496 481V376H274.496V481H275.496ZM329.496 530.5C314.354 530.5 301.856 525.786 292.649 517.258C283.438 508.728 277.48 496.344 275.492 480.936L274.5 481.064C276.512 496.656 282.554 509.272 291.969 517.992C301.387 526.714 314.138 531.5 329.496 531.5V530.5ZM484.496 530.5H329.496V531.5H484.496V530.5ZM532.496 481C532.496 497.326 524.584 510.195 514.608 518.745C504.612 527.314 492.622 531.481 484.557 530.504L484.436 531.496C492.871 532.519 505.131 528.186 515.259 519.505C525.409 510.805 533.496 497.674 533.496 481H532.496ZM532.496 382.5V481H533.496V382.5H532.496ZM484.48 333.5C500.067 333.995 512.064 341.412 520.175 351.133C528.295 360.864 532.496 372.878 532.496 382.5H533.496C533.496 372.622 529.198 360.386 520.943 350.492C512.678 340.588 500.426 333.005 484.512 332.5L484.48 333.5ZM329.496 333.5H484.496V332.5H329.496V333.5ZM275.479 376.132C280.694 357.01 290.858 346.413 301.365 340.562C311.888 334.702 322.795 333.583 329.503 333.5L329.49 332.5C322.698 332.584 311.604 333.715 300.878 339.688C290.135 345.671 279.799 356.49 274.514 375.868L275.479 376.132ZM285.496 476.448V381.063H284.496V476.448H285.496ZM335.272 521.37C321.309 521.37 309.789 517.089 301.304 509.35C292.816 501.609 287.325 490.37 285.492 476.383L284.501 476.513C286.358 490.687 291.936 502.159 300.63 510.089C309.326 518.02 321.098 522.37 335.272 522.37V521.37ZM478.256 521.37H335.272V522.37H478.256V521.37ZM522.496 476.448C522.496 491.26 515.207 502.938 506.012 510.7C496.796 518.479 485.744 522.26 478.315 521.373L478.197 522.366C485.989 523.296 497.308 519.355 506.657 511.464C516.026 503.555 523.496 491.614 523.496 476.448H522.496ZM522.496 386.967V476.448H523.496V386.967H522.496ZM478.24 342.5C492.608 342.949 503.667 349.683 511.142 358.505C518.626 367.338 522.496 378.241 522.496 386.967H523.496C523.496 377.98 519.526 366.853 511.904 357.858C504.274 348.852 492.962 341.959 478.272 341.5L478.24 342.5ZM335.272 342.5H478.256V341.5H335.272V342.5ZM285.478 381.196C290.285 363.839 299.653 354.221 309.337 348.911C319.037 343.591 329.092 342.575 335.278 342.5L335.265 341.5C328.997 341.576 318.758 342.604 308.856 348.034C298.936 353.474 289.394 363.311 284.514 380.929L285.478 381.196Z" fill="#1394B2"/>
<path d="M322.821 480.816L373.312 432.322C375.785 429.946 374.367 426.832 370.392 424.292C359.832 413.685 335.048 388.735 320.397 373.787C319.411 352.576 337.136 350.12 346.122 351.544C365.597 370.741 407.22 411.762 417.915 422.27C432.662 427.618 423.474 432.993 417.284 435.264C398.096 453.905 353.141 498.893 344.574 505.536C336.007 512.18 314.656 497.235 322.821 480.816Z" fill="#FB3E81"/>
<path d="M322.821 480.816L373.312 432.322C375.785 429.946 374.367 426.832 370.392 424.292C359.832 413.685 335.048 388.735 320.397 373.787C319.411 352.576 337.136 350.12 346.122 351.544C365.597 370.741 407.22 411.762 417.915 422.27C432.662 427.618 423.474 432.993 417.284 435.264C398.096 453.905 353.141 498.893 344.574 505.536C336.007 512.18 314.656 497.235 322.821 480.816Z" fill="#FB3E81"/>
<path d="M322.821 480.816L373.312 432.322C375.785 429.946 374.367 426.832 370.392 424.292C359.832 413.685 335.048 388.735 320.397 373.787C319.411 352.576 337.136 350.12 346.122 351.544C365.597 370.741 407.22 411.762 417.915 422.27C432.662 427.618 423.474 432.993 417.284 435.264C398.096 453.905 353.141 498.893 344.574 505.536C336.007 512.18 314.656 497.235 322.821 480.816Z" stroke="#FB3E81"/>
<path d="M480.308 480.827L427.758 434.585C425.184 432.32 426.462 429.145 430.319 426.432C440.398 415.368 464.047 389.345 478.019 373.764C478.071 352.524 460.263 350.849 451.352 352.667C432.751 372.707 392.994 415.529 382.777 426.5C368.287 432.493 377.698 437.46 383.978 439.458C403.959 457.243 450.828 500.224 459.675 506.486C468.522 512.748 489.185 496.876 480.308 480.827Z" fill="#FB3E81"/>
<path d="M480.308 480.827L427.758 434.585C425.184 432.32 426.462 429.145 430.319 426.432C440.398 415.368 464.047 389.345 478.019 373.764C478.071 352.524 460.263 350.849 451.352 352.667C432.751 372.707 392.994 415.529 382.777 426.5C368.287 432.493 377.698 437.46 383.978 439.458C403.959 457.243 450.828 500.224 459.675 506.486C468.522 512.748 489.185 496.876 480.308 480.827Z" fill="#FB3E81"/>
<path d="M480.308 480.827L427.758 434.585C425.184 432.32 426.462 429.145 430.319 426.432C440.398 415.368 464.047 389.345 478.019 373.764C478.071 352.524 460.263 350.849 451.352 352.667C432.751 372.707 392.994 415.529 382.777 426.5C368.287 432.493 377.698 437.46 383.978 439.458C403.959 457.243 450.828 500.224 459.675 506.486C468.522 512.748 489.185 496.876 480.308 480.827Z" stroke="#FB3E81"/>
<path d="M466 652C495.271 652 519 622.451 519 586C519 549.549 495.271 520 466 520C436.729 520 413 549.549 413 586C413 622.451 436.729 652 466 652Z" fill="#545454"/>
<path d="M334 650C363.271 650 387 620.451 387 584C387 547.549 363.271 518 334 518C304.729 518 281 547.549 281 584C281 620.451 304.729 650 334 650Z" fill="#545454"/>
<path d="M219.112 173C223.305 60.8598 320.112 1 402.492 1C498.612 1 580.112 69.5 586.612 173C593.112 276.5 500.601 347.5 405.112 351C315.886 354.271 215.111 280 219.112 173Z" fill="#035593" stroke="black"/>
<path d="M239.111 169C246.111 57 353.111 19.5 402.111 19.5C455.111 19.5 561.111 65.5 567.611 169C574.111 272.5 481.601 331 406.612 331C382.576 331 230.142 312.5 239.111 169Z" fill="#2CFDDC" stroke="black"/>
<path d="M420.005 21.1432C332.505 11.1433 278.505 69.1432 260.005 101.643C256.305 108.143 263.005 121.643 276.505 115.143C315.705 49.1432 391.172 38.9765 424.005 42.1432C432.505 36.1433 430.102 22.2971 420.005 21.1432Z" fill="white" stroke="#FDFFFF"/>
<path d="M304.715 135.425C304.715 158.525 317.145 192.125 355.106 192.125C393.067 192.125 405.496 158.525 405.496 135.425C405.496 64.025 304.715 64.025 304.715 135.425Z" fill="#DDE8E3"/>
<path d="M405.496 135.425C405.496 158.525 417.926 192.125 455.887 192.125C493.848 192.125 506.278 158.525 506.278 135.425C506.278 64.025 405.496 64.025 405.496 135.425Z" fill="#DDE8E3"/>
<path d="M307.403 137.263C307.403 157.213 315.465 187.925 347.715 187.925C379.965 187.925 388.028 156.95 388.028 137.263C387.692 69.0125 307.403 69.0125 307.403 137.263Z" fill="white"/>
<path d="M408.184 137.263C408.184 157.213 416.246 187.925 448.496 187.925C480.746 187.925 488.809 156.95 488.809 137.263C488.473 69.0125 408.184 69.0125 408.184 137.263Z" fill="white"/>
<path d="M307.403 137.525C307.403 153.8 322.184 166.4 339.989 166.4C358.129 166.4 372.574 153.8 372.574 137.525C372.574 97.625 307.403 97.625 307.403 137.525Z" fill="#493B30"/>
<path d="M408.184 137.525C408.184 153.8 422.965 166.4 440.77 166.4C458.91 166.4 473.356 153.8 473.356 137.525C473.356 97.625 408.184 97.625 408.184 137.525Z" fill="#493B30"/>
<path d="M397.996 306C360.441 306 329.996 288.539 329.996 267H465.996C465.996 288.539 435.551 306 397.996 306Z" fill="#7F184C"/>
<path d="M352.996 267V273.238C352.996 275.868 356.666 278 361.193 278H448.799C453.327 278 456.996 275.868 456.996 273.238V267H352.996Z" fill="#F2F2F2"/>
<path d="M406.165 289.404C387.834 284.381 367.492 285.11 350.996 290.321C363.391 299.85 382.884 306 404.82 306C414.487 306 423.674 304.799 431.996 302.649C425.89 297.075 417.135 292.411 406.165 289.404Z" fill="#FC4C59"/>
<path d="M329.996 266.933C329.996 290.68 363.641 310 404.996 310C446.351 310 479.996 290.68 479.996 266.933C479.996 264.761 476.929 263 473.147 263H336.845C333.063 263 329.996 264.761 329.996 266.933ZM465.918 270.866C462.501 288.432 436.483 302.134 404.996 302.134C373.509 302.134 347.491 288.432 344.074 270.866H465.918Z" fill="black"/>
</svg>
